<?xml version="1.0" encoding="utf-8"?>
<!-- Generator: Adobe Illustrator 21.0.2, SVG Export Plug-In . SVG Version: 6.00 Build 0)  -->
<svg version="1.1" id="Layer_1" xmlns="http://www.w3.org/2000/svg" xmlns:xlink="http://www.w3.org/1999/xlink" x="0px" y="0px"
	 viewBox="0 0 1200 37" style="enable-background:new 0 0 1200 37;" xml:space="preserve">
<style type="text/css">
	.st0{clip-path:url(#SVGID_2_);}
	.st1{fill:#523422;}
</style>
<g>
	<defs>
		<rect id="SVGID_1_" width="1200" height="37"/>
	</defs>
	<clipPath id="SVGID_2_">
		<use xlink:href="#SVGID_1_"  style="overflow:visible;"/>
	</clipPath>
	<g class="st0">
		<path class="st1" d="M-360,0v13.1v0.5V19h6.5c2.1,1.8,4.1,3.5,6.2,5.3c11.7,1.9,23.3,3.9,34.8,6.2c30.2-3.9,60.7-6.6,91.5-8.7
			c12.3,0.1,24.6,0.4,37,0.7l18.5,0.5l18.6,0.6l90.2-2.5l90.2-1.4l2.9-0.7h120.5c3,0.2,5.9,0.4,8.8,0.7l0.2-0.7h12.6
			c0.2,0.1,0.4,0.1,0.7,0.2c25.1,0.1,50.3,0,75.5,0c12.6-0.1,25.2-0.1,37.7,0s25,0.1,37.4,0.2c49.6,0.2,98,1.2,143.2,3.7
			c8.7,1.8,35.2,1.4,42,3.3c29.4-2.4,60.5-1.7,89.8-0.7l-1.1,0.2l13.8-0.2c0.6,0.2,0.6,0.5,0.2,0.7c15.7-1.9,40.2,0.9,59.3,2.2
			l-1.1,0.2c27.9,0.8,55.3,1.1,82.4,1.3c27.1,0.2,54,0.4,80.9,0.4c26.9,0.1,53.7,0.3,80.7,0.8c27,0.4,54.3,1,82,2.1
			c12.9,1.1,26.3,1.7,40,1.9c13.8,0.1,28-0.1,42.4-0.3c28.8-0.5,58.6-0.8,88.1,0.5c5.4,1.2,38.1,1.1,70.7,0.5
			c4.1-0.1,8.1-0.1,12.2-0.3c4-0.1,8-0.3,11.8-0.4c7.7-0.3,15-0.6,21.4-0.9c12.9-0.6,22.3-1.1,25-1.4l-13.9-2.7
			c22.2-1.2,38.6-1.1,54.1-1.1c3.9,0,7.7,0,11.6-0.1s7.8-0.2,11.8-0.4c8-0.4,16.4-0.9,25.9-1.9l-2.1,0.7c5.6,0.5,8.4-6.4,70-0.2v0.3
			c1.9-0.1,2.1-0.6,5.3-0.3l-4.3-0.5l-5.3-0.7c6.3-0.9,11.8-2.7,20.2-3.4c1.8,0.2,2.5,0.8,2.7,1.3l20.7-1.6l6.5,1.6
			c6.3-1.4,3.2-5.4,20.3-3.9c-1.3-0.5-1.8-0.9-1.6-1.2h10.9c0.4,0,0.9,0.1,1.3,0.1c0.8,0,1.3-0.1,1.7-0.1h11.1v-2.3v-5.4V0h-1H-360z
			"/>
	</g>
</g>
</svg>
