<?xml version="1.0" encoding="utf-8"?>
<!-- Generator: Adobe Illustrator 21.0.2, SVG Export Plug-In . SVG Version: 6.00 Build 0)  -->
<svg version="1.1" id="Layer_1" xmlns="http://www.w3.org/2000/svg" xmlns:xlink="http://www.w3.org/1999/xlink" x="0px" y="0px"
	 viewBox="0 0 1200 49" style="enable-background:new 0 0 1200 49;" xml:space="preserve">
<style type="text/css">
	.st0{clip-path:url(#SVGID_2_);fill:#B0D35C;}
	.st1{clip-path:url(#SVGID_2_);}
	.st2{fill:#533420;}
</style>
<g>
	<defs>
		<rect id="SVGID_1_" width="1200" height="49"/>
	</defs>
	<clipPath id="SVGID_2_">
		<use xlink:href="#SVGID_1_"  style="overflow:visible;"/>
	</clipPath>
	<rect x="-367.9" class="st0" width="1935.8" height="49"/>
	<g class="st1">
		<path class="st2" d="M1160.6,17.7l1.5-0.1c-0.1-0.2-0.5-0.3-1-0.4C1161.1,17.3,1160.8,17.5,1160.6,17.7z"/>
		<path class="st2" d="M1505.4,24.1c2.3,0,2.7-0.4,2.6-0.8c-0.4,0.2-1.1,0.4-2.1,0.6L1505.4,24.1z"/>
		<path class="st2" d="M1508.2,22.4l-0.5,0.3c0.1,0.2,0.2,0.4,0.3,0.6C1508.4,23,1508.6,22.8,1508.2,22.4z"/>
		<path class="st2" d="M1145.5,16.8c-8,0.2-17.8,0.5-27.2,0.8c-9.4,0.3-18.3,0.5-24.6,0.5v2.4l12.7,1.7l4.2-3
			c8.5,1.5,14.8,1.7,20.3,1.6s10.2-0.7,15.5-0.5c7.4,0,12.9-1.1,14.2-2.6l-15.5,1L1145.5,16.8z"/>
		<path class="st2" d="M197.2,3C196.3,2.9,195.9,3.1,197.2,3L197.2,3z"/>
		<path class="st2" d="M834.2,6.4c0.3,0,0.4,0,0.6,0c0.5-0.6,0.9-1.1,1.3-1.5L834.2,6.4z"/>
		<path class="st2" d="M936.5,11c0.2,0.1,0.4,0.1,0.6,0.2C937.1,10.8,937.2,10.4,936.5,11z"/>
		<path class="st2" d="M596.5,9c0.5-0.1,1-0.2,1.7-0.3C597.3,8.7,596.8,8.8,596.5,9z"/>
		<path class="st2" d="M9.1,7.1c0,0,0.3,0,0.4-0.1C9.1,6.9,8.8,6.8,8.4,6.7L9.1,7.1z"/>
		<path class="st2" d="M12,6.3c-0.1-0.1-0.3-0.2-0.8-0.3C11.4,6.2,11.7,6.2,12,6.3z"/>
		<path class="st2" d="M12,6.3c0.3,0.3-1.6,0.6-2.4,0.7c2.5,0.8,5,0.8,7.5,0.4C17.1,6.7,13.8,6.7,12,6.3z"/>
		<path class="st2" d="M-332.6,24l1-0.5C-332.1,23.6-332.4,23.8-332.6,24z"/>
		<path class="st2" d="M-278.4,19.8l0.5-1.5C-278.4,18.9-278.4,19.4-278.4,19.8z"/>
		<path class="st2" d="M836.1,4.9l0.7-0.6C836.6,4.5,836.4,4.7,836.1,4.9z"/>
		<path class="st2" d="M1031,12.2c0,0.5,0.3,0.8,0.5,1.1c0.1,0,0.2,0,0.3,0L1031,12.2z"/>
		<path class="st2" d="M1508,23.3c0-0.2-0.1-0.4-0.3-0.6l-1.8,1.2C1506.8,23.7,1507.5,23.5,1508,23.3z"/>
		<path class="st2" d="M1145.5,16.8l-0.4,1.8l15.5-1c0.1-0.2,0.4-0.3,0.4-0.5C1158.9,16.7,1153,16.7,1145.5,16.8z"/>
		<path class="st2" d="M-206.1,13.4c0.3,0,0.6-0.1,0.9-0.1C-205.7,13.2-205.9,13.3-206.1,13.4z"/>
		<path class="st2" d="M1112.7,12.8l1.4-0.6C1113.5,12.4,1113,12.6,1112.7,12.8z"/>
		<path class="st2" d="M1549.7,31c-11.3-1.6-24-3.6-29.4-5.1c14.2,0.1,3.7-0.6,0.8-1.6l-0.9,0.9c-8.5-0.3-8.7-2.5-12.9-2.9
			c0,0.2,0.2,0.4,0.3,0.6l0.5-0.3c0.4,0.4,0.2,0.6-0.2,0.9c0.1,0.5-0.2,0.8-2.6,0.8l0.4-0.3c-3.5,0.5-9.7,0.5-12.3,0.5l-0.2-1.8
			c-3,1.9-13.7,1.2-24.6,0.1c-2.7-0.3-5.5-0.6-8.1-0.9c-2.7-0.3-5.2-0.7-7.6-1c-4.7-0.6-8.6-1-10.7-0.9c-8.6-1.9-19,1.3-29.6,0.6
			c-16.9,0.1-8.5-2.3-17.1-3.5c-10.6-0.7,2.2,2-2,2.3l-12.8-2c7.4-0.5,3.3-1.4,1.9-2.1c-11,0.1-28.3-2.5-31.6,1.3
			c-14.8-1.3-14.9-2.8-21.2-2.8c2.1,0.6,6.4,1.1,6.4,1.8c-6-1.4-2.8,0.5-0.4,0.8c-9,1.8-47-5.3-48.8-1.3v-0.7c-2,3,1.4,5.8-4.8,7.6
			l-4.2-1.2l-6.3,1.4c-4.3-0.8-2.2-1.7-2.2-2c-5.1,0.8-11.3,0.9-17.8,0.8c-3.2-0.1-6.5-0.2-9.8-0.3c-3.3-0.1-6.5-0.3-9.7-0.3
			c4.5,2.6,8.9,5.3,13.4,7.8c-10.6-1.6-29.7-5.2-31.8-2.5l-6.4-2.6c-21.2-4.8-14.7,2.5-23.2,1l-10.7-2.8l10.6-0.1
			c-10.6-1.3-14.8-2.2-23.3-4l-0.1,0.1c0.6,0.1,1,0.2,1,0.4l-1.5,0.1c-1.3,1.5-6.8,2.6-14.2,2.6c-5.3-0.1-10,0.4-15.5,0.5
			s-11.8-0.1-20.3-1.6l-4.2,3l-12.7-1.7v-2.4c6.2,0,15.2-0.2,24.6-0.5s19.2-0.6,27.2-0.8l0.3-1.1c-4.7,0.1-9.8,0.4-14.4,0.7
			c-4.7,0.3-8.9,0.5-12,0.4c-2.7-0.4-9.2-2.4-6.6-4l-4.4,1.8c-31.6,0.4-31.8,0.5-64.8-2l2.9,1.2c-6.5,0.7-13.1,1.5-14.9-0.5
			c-19.8-0.4-40.3-2-53.2-5.1l-2.8,2.8c-4.2-0.2-10.4-4.5-12.5-0.5l-8.9,1.2c-5.7-0.2-9.2,1.4-15.7-0.3l0,0l0,0
			c-0.4-0.1-0.8-0.2-1.2-0.3c0,0.1,0,0.2,0.1,0.2c-12.9-1.3,0.1,2.5-14.7,0.9c-4.7-2-5.3,3.6-12.5,2.9l-7.2-4.1
			c-13.1-2.4-15.3,1.6-34.3,1.4c-9.1-1.5-13.5-5-7.4-8c-8.3,3.6-3.8,2.4-14.8,4.1c-1.7-1.5-0.5-1.9,1.9-3.2c-9.7-1.9-6,1.3-13.4,1.2
			c-2.2,2.9-4.7,7.4-7.1,7.6l2.8,0.9c-7.8,1.5-16.3,2.1-25.4,0.6l0.4-1.4l-9.7,0.6L795,13l-13.8,0.4l1.9,0.5
			c-3.2,0.2-13.9,0.7-19.9-0.4l0.2-1c-17.1-3.4-31.3,0.6-51.4,0.6l2.7-2.1c-6.8-2.2-1.9,3.2-10.1,2.1l-0.4-2.6
			c-7.2,3.3-9.3-0.8-14.2-2.2l2.3,3.4l-9.3-0.9c-10.2-1.3-6.2-4.4-4.7-6.1l-7,2.6l-1.3-3c-5.2,3.4-5.1-0.6-14.1,1.1
			c-0.7-1.1,1.6-1.8-1.5-2.3l-14.8,4l8.9-1.7l-1.1,4.3c-9.3,3.2-12.5-0.7-19.2,0.4l4.6-1.2c-10.8,0.9-11.4-1-17.4-2
			c1.9,0.8,4.7,2.1,0.4,2.6c-3.2,0.2-1.7-1.6-4.7-2.1c-0.8,2.9-8.5,4.3-15.5,2.8c0.1-0.4,0.2-0.8,0.7-1.1c-1.8,0.4-2.7,1.2-5.8,0.4
			l1.9-3.2l-6.1,3c-4-0.9-9.9,1.3-9.3-0.9l2.3-0.6L549,6.6L548.6,4c-3.1,3.5-16.5-1.6-15.6,2.8c-5.7-2.5-22.6,1.4-19.1-3.6
			c-19.9-0.7-30.8,3.9-55,1.2c-8.6-4.4-32.2-3.3-47.8-4c-15.2,0.7-27.7,1.4-40.3,2c-12.6,0.7-25.3,1.3-40.9,1.8
			c-18.6-6.1-46.7,1.6-66.8-1.9l-5.5,2.3c-13.4-3.8-33.8,0.7-52.6-3c-4.6,1-7,1.3-8.1,1.4c0.9,0.1,2.1,0.6,2.5,2.1
			C194,4,183.2,5.3,184,2.3l1.4-0.3c0.8-3-16.3,1.3-22.3-1.3l3.3,3.2l-9.9-0.4l2.7-0.6c-5.5,0.9-10.6,1.5-15.5,1.9
			c-4.8,0.4-9.4,0.7-13.8,0.8c-8.7,0.2-16.6-0.2-24.5-0.6c-15.7-0.8-31-1.6-51.7,1.7c5.5-3.5-8.1,1.9-8.7-1.9
			C34.5,0.1,25.6,6.1,17.1,7.5c0,0.2-0.1,0.4-0.6,0.7L1.5,8c8.9-5-10.7,4.2-2.6-0.1c-19.6-1.5-42.1-1.2-65.3-0.5
			c-23.3,0.9-47.3,2-69.9,1.8l2,1.2c-11.5,0.1-25.7,2-34.5,0.2s-18.9,3.8-22.3,4.1c-8.5,2.2-16.4-0.7-15.1-1.2
			c-9.9,1.2-19.1,5.7-33,4.5c-2.5-1.9-12.2-0.4-21.3,1.1s-17.6,3-18,0.7l-0.1,0.4c-4.6-0.5-9.1-0.4-13.6,0s-8.9,1.1-13.4,1.8
			c-9,1.4-18.1,3.1-28.1,2.8c0,0,0.3-0.4,1-0.8c-7.4,3.6-14.7,7.3-22,11h-5.3v2.8V49h1920V36.2v-3.8
			C1556.9,32,1553.4,31.5,1549.7,31z"/>
		<path class="st2" d="M1231.7,20.3c0.3,0,0.5,0,0.8,0l-3-1.7L1231.7,20.3z"/>
		<path class="st2" d="M1382.9,15.2c2.6,0,4.8-0.2,6.4-0.7C1382.2,14.5,1381.9,14.8,1382.9,15.2z"/>
		<path class="st2" d="M1521.2,24.1l1.1-1.1C1520.1,23.4,1520.3,23.7,1521.2,24.1z"/>
	</g>
</g>
</svg>
