<?xml version="1.0" encoding="utf-8"?>
<!-- Generator: Adobe Illustrator 21.0.2, SVG Export Plug-In . SVG Version: 6.00 Build 0)  -->
<svg version="1.1" id="Layer_1" xmlns="http://www.w3.org/2000/svg" xmlns:xlink="http://www.w3.org/1999/xlink" x="0px" y="0px"
	 viewBox="0 0 400 140.7" style="enable-background:new 0 0 400 140.7;" xml:space="preserve">
<style type="text/css">
	.st0{fill:#486841;}
	.st1{fill:#523422;}
</style>
<g>
	<g>
		<g>
			<path class="st0" d="M98.8,37.2v-9.1c6.1-0.3,11.5-0.5,16.4-0.5c4.8,0,8.8,0.3,12,0.9c3.2,0.6,6.2,1.5,9,2.8c2.8,1.3,5.1,3,7,5
				c4,4.4,6.1,10.4,6.1,18V113h-10.8V54.2c0-11.6-7.8-17.4-23.4-17.4C110.4,36.7,105,36.9,98.8,37.2z"/>
			<path class="st0" d="M160.1,84.6V28.8h10.8v44.6l-8.6,11.1H160.1z"/>
			<path class="st0" d="M176.4,116.4l-0.6-8.4l25.5-4l-19.8-75.2l11.1,5l8.7,35.7c1.2,5.2,3.9,16.1,8,32.7
				c13.6-4.9,21.3-17.1,23-36.6l3.3-36.7l10.8,0.5l-3.2,36.2c-0.4,5.6-1.2,10.4-2.4,14.4s-2.4,7.3-3.7,9.8c-1.3,2.5-3.1,5.1-5.3,7.7
				c-2.2,2.7-4.7,5-7.6,6.9c-2.8,2-6.3,3.7-10.5,5.3c-4.1,1.6-8.7,2.7-13.8,3.4L176.4,116.4z"/>
			<path class="st0" d="M251,113v-8.4h41.1V54.2c0-6.7-1.5-11.3-4.5-13.7c-3-2.5-7.7-3.7-14-3.7c-6.7,0-13.2,0.2-19.2,0.7l-3.3,0.3
				v-9.1c7-0.7,15.1-1,24.5-1c9.4,0,16.3,2,20.8,6.1c4.5,4.1,6.7,10.9,6.7,20.6v50.3h9.6v8.4H251z"/>
			<path class="st0" d="M337.5,29h10.8c0.3,0.8,0.8,2,1.3,3.5c0.5,1.5,1.2,4.5,2,8.9c0.8,4.4,1.3,8.8,1.3,13.1v81.8h-10.8V54.4
				C342.1,45.9,340.5,37.4,337.5,29z"/>
			<path class="st0" d="M358.7,113.5l1.6-9.9c1.8,0.6,4.8,0.8,8.9,0.8c3,0,6.3-1.3,9.7-3.8c4.1-3.1,7-7.2,8.7-12.4
				c1-3,1.5-6.3,1.5-9.8V50.8c0-5.3-1.2-9-3.5-11.4c-2.1-2.1-5.4-3.2-9.8-3.2c-2.3,0-5,0.4-8,1.2v-8.6c3.5-0.9,7.4-1.4,11.7-1.4
				c13.6,0,20.4,7.5,20.4,22.4V113h-8.8l-1.4-14.2h-0.5c-0.2,0.5-0.7,1.4-1.5,2.7c-0.8,1.3-1.6,2.4-2.4,3.4c-0.8,1-1.8,2.1-3.1,3.2
				c-1.3,1.2-2.6,2.2-3.9,3.1c-1.4,0.9-3,1.6-4.8,2.2c-1.8,0.6-3.8,0.9-5.7,0.9C363.7,114.3,360.7,114,358.7,113.5z"/>
		</g>
		<g>
			<g id="XMLID_24_">
				<polygon id="XMLID_34_" class="st1" points="84.3,52.7 81.5,56.2 47.3,31.4 50.1,27.9 				"/>
				<polygon id="XMLID_33_" class="st1" points="50.1,27.9 52.9,31.4 18.5,55.9 15.8,52.4 				"/>
				<path id="XMLID_27_" class="st1" d="M75.6,76.8V56.1L50,39.1l-25.6,17v19.1L9.5,87.3V113h33.4V93.1h14.9V113h32.2V87.3
					L75.6,76.8z M35.9,101.1h-17v-8h17V101.1z M46.5,70.7H29.3V58.4h17.2V70.7z M52,58.4h17.2v12.3H52V58.4z M82.8,101.1h-17v-8h17
					V101.1z"/>
				<path id="XMLID_26_" class="st1" d="M79.9,68.5v5.7c0,0,17,13.2,17.5,12.9c0.4-0.3,2.7-3.9,2.7-3.9L79.9,68.5z"/>
				<path id="XMLID_25_" class="st1" d="M20.1,68.5v5.7c0,0-17,13.2-17.5,12.9C2.2,86.7,0,83.2,0,83.2L20.1,68.5z"/>
			</g>
			<g>
				<g>
					<g>
						<path class="st0" d="M51,26.2c0,0-1.3-6.3,0.8-10.5c2.1-4.2,8.8-6.2,9.7-7.4c0,0,0.4,9.5-1.4,12.1c-1.5,2.2-5.2,6.2-7.4,6.2
							c0,0,4.4-6.6,4.2-9.9C56.9,16.6,52.9,25.5,51,26.2z"/>
					</g>
					<path class="st0" d="M48.1,26.8c0,0-25.4-4.5-21-26.8c0,0,2.7,1.7,8.7,4c6,2.3,14,6.1,13.6,22c0,1.7-7.4-14.9-14.2-17.2
						C35.2,8.8,48.4,25,48.1,26.8z"/>
				</g>
			</g>
		</g>
	</g>
	<g>
		<path class="st0" d="M4.2,134.2c1.2-0.9,2.3-3.4,2.3-5.2c0-2.2-1.9-2.4-3.3-1.9c-1.2,0.5-1.9,0.3-2.1-0.3c-0.3-1.1,2-2.2,4-1.9
			c4.4,0.6,3.9,5.7,2.2,8.3c-1.5,2.4-3.1,2.7-3.5,2.5C3.4,135.3,3.5,134.7,4.2,134.2z"/>
		<path class="st0" d="M9.9,133.8c0.2-0.5,1.6-4,2.6-7.4c0.4-1.4,0.9-2.2,1.8-2c0.7,0.2,0.8,1,0.4,2.2c-0.7,2.3-2.9,7.3-3.4,8.1
			c-0.5,0.8-0.9,0.9-1.4,0.7C9.6,135.2,9.7,134.6,9.9,133.8z"/>
		<path class="st0" d="M22.6,128.9c1.1,0.5,1.6,2,1.5,2.8c-0.6,2.8-3,3.9-5.6,4.1c-1.6,0.2-2.3-0.1-2.7-0.2
			c-0.9-0.4-1.4-1.2-0.6-1.9s1.4,0.2,2.8,0.1c2.6-0.1,4-1.2,4.2-2.2c0.2-1-0.9-1.6-2.2-1.5c-1.4,0.1-1.6-0.3-1.5-0.9
			c0.1-0.6,0.7-0.8,1.4-0.9c0.7,0,3.5-1.4,3.4-2.5c-0.1-1.1-3-0.9-4.4-0.5c-1.4,0.5-1.9,0.1-1.9-0.5c0-1.4,2.7-1.8,4.6-1.9
			c2-0.1,3.7,1.2,3.3,3.1C24.6,127.5,23.4,128.5,22.6,128.9z"/>
		<path class="st0" d="M28,126.6c0.2-0.9,0.9-1.3,1.4-1.1c0.8,0.3,0.8,1,0.5,1.9c-0.3,0.9-1.3,4.3-2.7,3.8
			C26.1,130.8,27.5,128.3,28,126.6z"/>
		<path class="st0" d="M42.8,120.9c-0.8,0.7-1.8-0.7-3-0.8c-3.7-0.1-5.1,7.7-5.8,11.4c-0.7,3.7-2.2,3.9-3,3.8
			c-0.9-0.1-1.3-0.9-1.2-1.9c0.2-1.7,1.5-2.2,2.4-2.4c0.3-2,1-4.6,1.8-7.3c1.2-3.6,3.2-5.2,5.6-5.3c0.9,0,2,0.3,2.7,0.9
			C43,119.9,43.1,120.7,42.8,120.9z"/>
		<path class="st0" d="M54.9,120.9c-0.8,0.7-1.8-0.7-3-0.8c-3.7-0.1-5.1,7.7-5.8,11.4c-0.7,3.7-2.2,3.9-3,3.8
			c-0.9-0.1-1.3-0.9-1.2-1.9c0.2-1.7,1.5-2.2,2.4-2.4c0.3-2,1-4.6,1.8-7.3c1.2-3.6,3.2-5.2,5.6-5.3c0.9,0,2,0.3,2.7,0.9
			C55.1,119.9,55.2,120.7,54.9,120.9z"/>
		<path class="st0" d="M48.1,133.8c0.2-0.5,1.6-4,2.6-7.4c0.4-1.4,0.9-2.2,1.8-2c0.7,0.2,0.8,1,0.4,2.2c-0.7,2.3-2.9,7.3-3.4,8.1
			c-0.5,0.8-0.9,0.9-1.4,0.7C47.8,135.2,47.9,134.6,48.1,133.8z"/>
		<path class="st0" d="M53.5,133.3c0.2-0.7,1.3-0.2,2.1,0.1c2.3,0.9,5.1-0.4,5.8-2.8c0.6-2.3-1.1-3.4-3.1-3.3c-2,0-2.9,0.1-3-0.7
			c-0.1-0.6,0.5-1,1.2-1.2c4.1-1,7.8,1.8,6.7,5.5c-1.4,4.9-5.8,5.3-8.1,4.6C53.9,134.9,53.3,133.9,53.5,133.3z"/>
		<path class="st0" d="M67.2,126.6c0.2-0.9,0.9-1.3,1.4-1.1c0.8,0.3,0.8,1,0.5,1.9c-0.3,0.9-1.3,4.3-2.7,3.8
			C65.3,130.8,66.7,128.3,67.2,126.6z"/>
		<path class="st0" d="M86.2,126.5c-0.2,2-2.6,3.1-3.6,3.4c0.4,0.2,0.9,0.7,0.7,2.3c-0.2,1.8-0.7,2.3-1.2,2.9
			c-0.6,0.8-2,0.3-1.5-0.6c0.5-1,0.8-1.7,0.9-2.4c0.1-0.7-0.2-1-1.3-1.2c-1.1-0.1-2.8,0.7-3-0.7c-0.2-1.4,3.3-1.1,3.3-1.1
			c1.4-0.4,3.1-1.5,3.6-2.1c0.5-0.5,0.5-1.3-0.6-1.4c-1.1-0.1-2.4,0.2-3.1,0.5c-0.7,0.3-2.1,0.5-2.5,0c-0.4-0.5,0-1.1,0.3-1.4
			c0.8-0.7,3.4-1.2,5-1C84.9,123.8,86.4,124.6,86.2,126.5z"/>
		<path class="st0" d="M98,129.9c-0.7,2-3.5,6.4-5.1,5.6c-1.3-0.7,0.6-2.3,1.4-3.3c0.7-0.9,2.9-4.1,0.9-4.4c-1-0.2-2.5,0.2-3.7,0.6
			c-1.1,2.2-2.6,5-3.1,5.7c-0.6,0.8-1,1.2-1.6,1c-0.4-0.2-0.6-0.8-0.1-1.6c0.2-0.4,1.1-2.2,2.1-4c-0.5,0.1-0.9-0.1-1.1-0.6
			c-0.3-0.7,0.8-1.5,1.6-1.9c0.2-0.1,0.5-0.2,0.8-0.3c0.3-0.6,0.5-1,0.6-1.3c0.5-1.1,1.2-1.7,1.8-1.4c0.6,0.3,0.6,0.9,0.2,1.8
			l-0.1,0.3c1.3-0.3,2.6-0.4,3.3-0.2C97.5,126.2,98.7,127.9,98,129.9z"/>
		<path class="st0" d="M98.8,134.3c0.3-1.3,3-8.4,3.5-9.2c0.5-0.7,1-1,1.6-0.8c0.4,0.1,0.6,0.8,0.2,1.6c-0.4,0.8-3.4,7.9-3.7,9.2
			c-0.3,1.3-1,1.3-1.4,1.2C98.6,136.3,98.5,135.6,98.8,134.3z M102.6,132.3c0.2-3,4.3-4.7,4.9-4.9s1.2-0.2,1.5,0.3
			c0.4,0.5,0.1,1.3-0.8,1.6c-1.1,0.4-3.6,1.4-3.6,3.1s2.2,1.6,2.2,2.2c0,0.6-0.6,1-1.5,1C104.6,135.4,102.5,134.4,102.6,132.3z"/>
		<path class="st0" d="M128.5,120.9c-0.8,0.7-1.8-0.7-3-0.8c-3.7-0.1-5.1,7.7-5.8,11.4c-0.7,3.7-2.2,3.9-3,3.8
			c-0.9-0.1-1.3-0.9-1.2-1.9c0.2-1.7,1.5-2.2,2.4-2.4c0.3-2,1-4.6,1.8-7.3c1.2-3.6,3.2-5.2,5.6-5.3c0.9,0,2,0.3,2.7,0.9
			C128.7,119.9,128.8,120.7,128.5,120.9z"/>
		<path class="st0" d="M121.8,133.3c0.2-0.7,1.3-0.2,2.1,0.1c2.3,0.9,5.1-0.4,5.8-2.8c0.6-2.3-1.1-3.4-3.1-3.3c-2,0-2.9,0.1-3-0.7
			c-0.1-0.6,0.5-1,1.2-1.2c4.1-1,7.8,1.8,6.7,5.5c-1.4,4.9-5.8,5.3-8.1,4.6C122.3,134.9,121.6,133.9,121.8,133.3z"/>
		<path class="st0" d="M136.3,132.5c0.2,0.6,0.4,1,0.8,1.1c1.6,0.6,3.1-0.9,3.7-2.2c0.4-0.8,0.9-1.3,1.5-1.1
			c0.6,0.2,0.6,0.9,0.2,1.8c-1,2.4-3,3.7-5,3.4c-1.6-0.2-2.7-1.1-3.1-2.4c-0.1,0-0.2,0-0.2,0.1c-0.8,0.1-1-0.6-0.5-1.2
			c0.1-0.1,0.3-0.3,0.5-0.4c0-0.3,0.1-0.6,0.1-1c1.3-5.7,5.8-7.4,7.9-7.4c1.4,0,2,1,1.7,2.7C143.6,128.6,139.1,131.2,136.3,132.5z
			 M142.3,124.9c-0.4-0.5-3.3,0.8-5,2.9c-0.7,0.8-1,1.9-1.2,2.8c0.8-0.4,1.7-0.9,2.4-1.4C141.6,127.3,142.7,125.4,142.3,124.9z"/>
		<path class="st0" d="M157.1,133.8c-0.8,0-1.1-0.6-1-1.6c0.1-2.1-0.4-4.4-1.3-4.6c0,2.7-1.4,8.4-3.6,10.1c-2,1.5-4.3,1.6-5.8,1.5
			c-0.6-0.1-0.9-0.3-0.9-0.8c0.1-0.5,0.4-0.7,1-0.8c0.8-0.1,2.2,0,3.5-0.6c2.3-0.9,3.5-5.1,3.8-8.3c0.2-1.6,0.5-2.8,1.5-2.9
			c1.1-0.1,2.3,0.5,3.1,2.7C158.4,130.6,158.1,133.8,157.1,133.8z M154.6,127.6L154.6,127.6L154.6,127.6z"/>
		<path class="st0" d="M159.7,133.8c0.2-0.5,1.6-4,2.6-7.4c0.4-1.4,0.9-2.2,1.8-2c0.7,0.2,0.8,1,0.4,2.2c-0.7,2.3-2.9,7.3-3.4,8.1
			c-0.5,0.8-0.9,0.9-1.4,0.7C159.4,135.2,159.4,134.6,159.7,133.8z"/>
		<path class="st0" d="M167.4,126.6c0.2-0.9,0.9-1.3,1.4-1.1c0.8,0.3,0.8,1,0.5,1.9c-0.3,0.9-1.3,4.3-2.7,3.8
			C165.5,130.8,166.9,128.3,167.4,126.6z"/>
		<path class="st0" d="M162,139.2c0.1-0.6,1.1-0.5,1.7-0.5c2.2,0.2,6.4-0.1,8.3-11.4c0.2-1.2,0.8-2.2,1.8-1.8c1,0.3,0.3,1.9,0,3.3
			c-0.6,2.8-2.9,12.5-9.5,12C162.8,140.6,162,140,162,139.2z"/>
		<path class="st0" d="M175.3,133.8c0.2-0.5,1.6-4,2.6-7.4c0.4-1.4,0.9-2.2,1.8-2c0.7,0.2,0.8,1,0.4,2.2c-0.7,2.3-2.9,7.3-3.4,8.1
			c-0.5,0.8-0.9,0.9-1.4,0.7C174.9,135.2,175,134.6,175.3,133.8z"/>
		<path class="st0" d="M185.5,134.2c1.2-0.9,2.3-3.4,2.3-5.2c0-2.2-1.9-2.4-3.3-1.9c-1.2,0.5-1.9,0.3-2.1-0.3c-0.3-1.1,2-2.2,4-1.9
			c4.4,0.6,3.9,5.7,2.2,8.3c-1.5,2.4-3.1,2.7-3.5,2.5C184.7,135.3,184.8,134.7,185.5,134.2z"/>
		<path class="st0" d="M193.5,126.6c0.2-0.9,0.9-1.3,1.4-1.1c0.8,0.3,0.8,1,0.5,1.9c-0.3,0.9-1.3,4.3-2.7,3.8
			C191.6,130.8,193,128.3,193.5,126.6z"/>
		<path class="st0" d="M205.1,127.5c-0.7,0.1-1.4,0.3-2,0.5c0.7,3.4,0.9,7.6-2.2,8.7c-1.4,0.5-3.4,0.1-4.1-1.9
			c-1.2-3.2,0.9-6.4,3.9-8l-0.1-0.3c-0.7-1.8-2-3.9-0.7-4.3c0.5-0.2,1.3-0.5,1.9,1.1c0.2,0.4,0.5,1.4,0.9,2.7
			c0.8-0.2,1.6-0.4,2.4-0.4c0.9,0,1.4,0.2,1.6,0.7C206.8,127.1,205.9,127.4,205.1,127.5z M201.2,128.9c-2,1.2-3.4,3.1-2.6,5.2
			c0.3,0.8,0.7,1.1,1.4,0.9C200.5,134.8,202,133,201.2,128.9z"/>
		<path class="st0" d="M218.9,133.8c-0.8,0-1.1-0.6-1-1.6c0.1-2.1-0.4-4.4-1.3-4.6c0,2.7-1.4,8.4-3.6,10.1c-2,1.5-4.3,1.6-5.8,1.5
			c-0.6-0.1-0.9-0.3-0.9-0.8c0.1-0.5,0.4-0.7,1-0.8c0.8-0.1,2.2,0,3.5-0.6c2.3-0.9,3.5-5.1,3.8-8.3c0.2-1.6,0.5-2.8,1.5-2.9
			c1.1-0.1,2.3,0.5,3.1,2.7C220.2,130.6,219.9,133.8,218.9,133.8z M216.4,127.6L216.4,127.6L216.4,127.6z"/>
		<path class="st0" d="M221.5,133.8c0.2-0.5,1.6-4,2.6-7.4c0.4-1.4,0.9-2.2,1.8-2c0.7,0.2,0.8,1,0.4,2.2c-0.7,2.3-2.9,7.3-3.4,8.1
			c-0.5,0.8-0.9,0.9-1.4,0.7C221.2,135.2,221.3,134.6,221.5,133.8z"/>
		<path class="st0" d="M218.9,139.2c0.1-0.6,1.1-0.5,1.7-0.5c2.2,0.2,6.4-0.1,8.3-11.4c0.2-1.2,0.8-2.2,1.8-1.8c1,0.3,0.3,1.9,0,3.3
			c-0.6,2.8-2.9,12.5-9.5,12C219.6,140.6,218.8,140,218.9,139.2z"/>
		<path class="st0" d="M234.3,126.6c0.2-0.9,0.9-1.3,1.4-1.1c0.8,0.3,0.8,1,0.5,1.9c-0.3,0.9-1.3,4.3-2.7,3.8
			C232.5,130.8,233.9,128.3,234.3,126.6z"/>
		<path class="st0" d="M246.5,128.7c0,0.6-0.6,1.4-2.1,1.4c-0.3,0-0.7-0.1-1.2-0.2c-2.7,0.9-4.7,2.7-4.7,4.1c0,1.2,0.8,2,1.7,2.7
			c0.5,0.3,0.7,1.1,0.2,1.5c-0.4,0.3-1.1,0.1-1.8-0.4c-1.4-1-2.2-2.5-2.1-4c0.2-2.5,2.6-4.1,4.7-5c-0.6-0.6-1-1.2-1.2-1.9
			c-0.2-0.6-0.3-1.3,0.3-1.7c0.7-0.4,1.5,0.1,1.9,1.2c0.3,0.9,0.9,1.3,1.3,1.6c0.4-0.1,0.8-0.2,1-0.2
			C245.7,127.7,246.5,128.2,246.5,128.7z"/>
	</g>
</g>
</svg>
