<?xml version="1.0" encoding="utf-8"?>
<!-- Generator: Adobe Illustrator 21.0.2, SVG Export Plug-In . SVG Version: 6.00 Build 0)  -->
<svg version="1.1" id="Layer_1" xmlns="http://www.w3.org/2000/svg" xmlns:xlink="http://www.w3.org/1999/xlink" x="0px" y="0px"
	 viewBox="0 0 1200 229" style="enable-background:new 0 0 1200 229;" xml:space="preserve">
<style type="text/css">
	.st0{clip-path:url(#SVGID_2_);}
	.st1{fill:#F4F4F4;}
</style>
<g>
	<defs>
		<rect id="SVGID_1_" width="1200" height="229"/>
	</defs>
	<clipPath id="SVGID_2_">
		<use xlink:href="#SVGID_1_"  style="overflow:visible;"/>
	</clipPath>
	<g class="st0">
		<path class="st1" d="M1560,229v-12.4c-22.3-48.2-71.1-81.6-127.7-81.6c-13.8,0-27.2,2-39.8,5.7c-20.5-64.9-81.1-111.9-152.8-111.9
			c-55.3,0-104.1,28-132.9,70.7c-10.9-6.5-23.7-10.3-37.4-10.3c-22.2,0-42,9.9-55.4,25.5C986.4,64.1,932.6,29.8,870.9,30
			c-31.2,0.1-60.3,9-85,24.3C731.8,20.5,662.1,0.2,586.1,0.4c-64.5,0.2-124.4,15.2-174,40.7c-22.4-11.5-47.8-18-74.7-17.9
			C280,23.3,229.8,53.3,201,98.2c-0.8,0.2-1.6,0.5-2.3,0.8C173.2,51.8,123.4,19.7,66,19.7C26.4,19.7-9.6,35-36.4,59.9
			C-51,53.8-67,50.4-83.8,50.4c-47.2,0-88.1,26.8-108.4,66.1c-6.5-2.3-13.5-3.6-20.8-3.6c-26.9,0-49.7,17.2-58.2,41.3
			c-39.3,9.5-71.7,36.5-88.8,72.2v2.6H1560z"/>
	</g>
</g>
</svg>
