<?xml version="1.0" encoding="utf-8"?>
<!-- Generator: Adobe Illustrator 21.0.2, SVG Export Plug-In . SVG Version: 6.00 Build 0)  -->
<svg version="1.1" id="Layer_1" xmlns="http://www.w3.org/2000/svg" xmlns:xlink="http://www.w3.org/1999/xlink" x="0px" y="0px"
	 viewBox="0 0 283.7 283.7" style="enable-background:new 0 0 283.7 283.7;" xml:space="preserve">
<style type="text/css">
	.st0{fill:none;stroke:#FFFFFF;stroke-miterlimit:10;}
	.st1{fill-rule:evenodd;clip-rule:evenodd;fill:none;stroke:#FFFFFF;stroke-miterlimit:10;}
</style>
<g>
	<g>
		<path class="st0" d="M49,30.9c-0.2-0.5-0.7-0.7-1.2-0.7c-2.7,0.3-11,2.1-11,12.2c-0.1,12,17.1,45.3,42,53.2c0.1,0,0.2,0,0.3,0.1
			c1.2,0.1,8.8,0.4,11.5-7.9c0.1-0.5,0-1-0.4-1.3L77.4,75.7c-0.3-0.3-0.7-0.4-1.1-0.3l-8.5,2c-0.4,0.1-0.8,0-1.1-0.3
			C64.4,75,55.4,66,51.3,55.5c-0.2-0.4-0.1-0.9,0.2-1.2l5.3-6.7c0.3-0.4,0.3-0.9,0.1-1.3L49,30.9z"/>
		<path class="st0" d="M63.7,119L63.7,119c-30.9,0-56-25.1-56-56v0c0-30.9,25.1-56,56-56h0c30.9,0,56,25.1,56,56v0
			C119.6,93.9,94.6,119,63.7,119z"/>
	</g>
	<g>
		<g>
			<g>
				<rect x="183" y="39.1" class="st0" width="68.5" height="47.7"/>
				<g>
					<path class="st0" d="M183,39.1L212,64.5c3,2.6,7.4,2.6,10.3,0l29.1-25.4"/>
					<g>
						<line class="st0" x1="251.4" y1="86.8" x2="224.3" y2="63.4"/>
						<line class="st0" x1="182.9" y1="86.8" x2="210" y2="63.4"/>
					</g>
				</g>
			</g>
		</g>
		<path class="st0" d="M217.2,119L217.2,119c-30.9,0-56-25.1-56-56v0c0-30.9,25.1-56,56-56h0c30.9,0,56,25.1,56,56v0
			C273.1,93.9,248.1,119,217.2,119z"/>
	</g>
	<g>
		<path class="st1" d="M71.4,207.5v-5.3c0-2.6,1.7-3.2,2.9-3.2c1.2,0,7.4,0,7.4,0v-11.3l-10.2,0c-11.3,0-13.9,8.4-13.9,13.8v5.9
			h-6.5v8v5.2h6.6c0,15,0,33,0,33h13.2c0,0,0-18.2,0-33h9.8l0.5-5.2l0.7-8H71.4z"/>
		<path class="st0" d="M66.5,276.7L66.5,276.7c-30.9,0-56-25.1-56-56v0c0-30.9,25.1-56,56-56h0c30.9,0,56,25.1,56,56v0
			C122.5,251.6,97.4,276.7,66.5,276.7z"/>
	</g>
	<g>
		<g>
			<g>
				<path class="st0" d="M192.4,223.9v30.2H248v-30.2h3.6c1.5,0,2.3-1.8,1.3-3l-32.3-33.6l-33.4,33.6c-1.1,1.1-0.3,2.9,1.2,3
					L192.4,223.9z"/>
				<polygon class="st0" points="196.7,193 196.7,196.6 197.9,196.6 197.9,210 205.8,202.1 205.8,196.6 207.1,196.6 207.1,193 				
					"/>
				<g>
					<rect x="211.7" y="228.9" class="st0" width="17" height="25.2"/>
					<path class="st0" d="M222.7,223.5h-5.1c-0.9,0-1.6-0.7-1.6-1.6v-5.1c0-0.9,0.7-1.6,1.6-1.6h5.1c0.9,0,1.6,0.7,1.6,1.6v5.1
						C224.2,222.8,223.5,223.5,222.7,223.5z"/>
				</g>
			</g>
		</g>
		<path class="st0" d="M220,276.7L220,276.7c-30.9,0-56-25.1-56-56v0c0-30.9,25.1-56,56-56h0c30.9,0,56,25.1,56,56v0
			C276,251.6,250.9,276.7,220,276.7z"/>
	</g>
</g>
</svg>
