<?xml version="1.0" encoding="utf-8"?>
<!-- Generator: Adobe Illustrator 21.0.2, SVG Export Plug-In . SVG Version: 6.00 Build 0)  -->
<svg version="1.1" id="Layer_1" xmlns="http://www.w3.org/2000/svg" xmlns:xlink="http://www.w3.org/1999/xlink" x="0px" y="0px"
	 viewBox="0 0 118.3 118.3" style="enable-background:new 0 0 118.3 118.3;" xml:space="preserve">
<style type="text/css">
	.st0{fill:none;stroke:#FFFFFF;stroke-miterlimit:10;}
	.st1{fill:#D1A6FF;}
</style>
<g>
	<circle class="st0" cx="59.1" cy="59.1" r="55.8"/>
	<path class="st1" d="M100.6,74.9c-0.1-0.8-1-2.3-1.9-3c-0.9-0.8-1.7-1.2-2.3-1.4c-0.6-0.2-1-0.7-1.2-1c-0.1-0.4-1-1.2-1.7-1.7
		c-0.6-0.5-1.6-1.3-2-1.2c-0.4,0.1-0.7,0.7-0.8,1c-0.1,0.4-0.3,0.6-0.4,0.9c-0.1,0.3-0.3,0.3-0.4,0.7c-0.1,0.4-0.5,1.1-0.5,1.1
		s-1.5,0.1-3.4,0.1c-1.9,0-3.9-0.5-6.3-0.5c-2.3,0-3.8,0.4-4.8,0.8c-1,0.4-1.4,0.7-2.3,0.4c-0.9-0.2-2.6-2-3.6-3.3
		c-1-1.3-2.2-2.4-2.9-3.2c-0.7-0.8-1.3-1.3-1.3-1.3s0.1-0.2-0.1-0.4c-0.1-0.2-0.2-0.5-0.4-0.7c-0.2-0.1-0.2-0.4-0.2-0.4
		c0,0,0.2-0.1,0-0.3c-0.2-0.3-0.6-0.7-0.6-0.8c0-0.1,0.3-0.3,0-0.9c-0.2-0.6-0.4-1.6-0.8-2.4c-0.4-0.8-0.8-1.2-1.1-1.5
		c-0.4-0.3-0.5-0.8-0.7-0.9c-0.2-0.1-0.6-0.2-0.9-0.4c-0.2-0.3-0.9-1.1-1.3-1.5c-0.4-0.4-1.5-1-1.5-1s0.1-0.2,0-0.3
		c-0.1-0.1-0.2-0.4,0-0.5c0.1-0.1,0.6-0.7,0.6-1.3c0-0.6-0.3-1.2-0.2-1.3c0.1-0.1,0.6-0.6,0.7-1.2c0.1-0.6-0.1-1.2-0.1-1.4
		c0-0.2,0-1,0.2-1.2c0.2-0.2,0.4-0.7,0.4-1.1c0-0.4,0.1-0.9,0.3-1.1c0.1-0.1,0.2-0.4,0.2-0.5c0,0-0.1-0.4,0-0.7
		c0.1-0.3,0.4-0.9,0.7-1.4c0.3-0.5,0.6-1.4,0.6-1.4s1.4,0.3,2.8,1c1.4,0.7,3.7,1.8,4.7,2.2c1,0.4,2.1,1.1,2.6,1.7
		c0.5,0.7,1.2,1.3,2,2.2c0.8,0.9,3.3,3.4,3.6,4.2c0.4,0.8,0.6,1,0.3,1.6c-0.3,0.6-0.6,0.8-0.6,1.1c0,0.3-0.1,1-0.2,1.3
		c-0.1,0.3-0.2,0.6,0.1,0.7c0.3,0.1,1-0.1,1.1,0.1c0.1,0.2,0.3,0.9,0.8,0.8c0.5-0.1,0.4-0.6,0.4-0.6s0.2,0.2,0.5,0.1
		c0.3-0.1,0.3-0.4,0.3-0.4s0.2,0.2,0.4,0.1c0.3-0.1,0.3-0.5,0.3-0.5s0.2,0.1,0.4-0.1c0.2-0.2,0.3-1.2,0.3-1.5c0-0.3-0.3-1.1-0.4-1.4
		c0-0.3-0.5-0.9-0.7-1.3c-0.2-0.4-0.8-1.5-1.6-2.4c-0.8-0.9-2.5-3.9-3.9-5.2c-1.4-1.3-2.6-2.5-3-2.7c-0.4-0.2-2.8-1.9-4.1-2.5
		c-1.2-0.6-2.8-1.6-3-1.7c0.1-0.1,0.2-0.2,0.2-0.3c0.3,0.1,0.5,0.2,0.8,0.2c0.4,0.1,0.8,0,1.1,0c0,0,0,0,0.1,0
		c-0.1,0.1-0.2,0.2-0.2,0.2s0.1-0.1,0.3-0.2c0.1,0,0.1,0,0.2,0c0,0.1-0.1,0.2-0.1,0.2c-0.1,0.1-0.1,0.2-0.2,0.2
		c-0.2,0.3-0.4,0.4-0.4,0.4s0.2-0.1,0.4-0.4c0.1-0.1,0.3-0.3,0.4-0.5c0.2,0,0.3,0,0.5,0c0.3,0,0.6,0.1,0.8,0.2
		c0.2,0.1,0.4,0.3,0.5,0.5c0.1,0.2,0.1,0.4,0.1,0.6c0,0.3,0.1,0.5,0.1,0.5s0-0.2,0-0.5c0-0.2,0-0.4-0.1-0.6
		c-0.1-0.2-0.2-0.5-0.5-0.7c-0.2-0.2-0.6-0.3-0.9-0.3c-0.1,0-0.2,0-0.3,0c0,0,0,0,0-0.1c0.1,0,0.1-0.1,0.2-0.2c0.1,0,0.3,0,0.4,0
		c0.3,0,0.5,0.1,0.7,0.2c0.1,0.1,0.2,0.1,0.2,0.2c0.1,0.1,0.1,0.1,0.2,0.2c0,0.1,0.1,0.1,0.1,0.2c0,0.1,0,0.1,0,0.2
		c0,0.1,0,0.1,0,0.1s0-0.1,0-0.1c0,0,0-0.1,0-0.2c0-0.1,0-0.2,0-0.2c0,0,0-0.1-0.1-0.1c0,0,0,0,0,0c0-0.1,0.1-0.3,0.1-0.5
		c0-0.1,0.1-0.2,0.1-0.4c0-0.1,0-0.3,0-0.4c0-0.3,0-0.6-0.1-1c0-0.2-0.1-0.4-0.2-0.6c0-0.1,0-0.2,0-0.4c0-0.1-0.1-0.3-0.1-0.5
		c0.1-0.1,0.1-0.2,0.3-0.4c0.1-0.1,0.1-0.2,0.2-0.4c0-0.1,0-0.1,0.1-0.2c0-0.1,0-0.2,0-0.2c0-0.3-0.1-0.7-0.3-1.1
		c-0.1-0.1-0.2-0.2-0.3-0.3c0,0,0.1,0,0.1,0.1c0.2,0.1,0.4,0.2,0.6,0.3c0.2,0.1,0.3,0.2,0.4,0.4c0.1,0.1,0.1,0.3,0.1,0.5
		c0,0.4-0.1,0.7-0.2,1c-0.1,0.3-0.2,0.5-0.3,0.7c-0.1,0.2-0.2,0.3-0.3,0.4c0,0-0.1,0.1-0.1,0.1c0,0,0,0,0,0s0,0,0,0
		c0,0,0.1,0,0.1-0.1c0.1-0.1,0.2-0.2,0.4-0.4c0.1-0.2,0.2-0.4,0.4-0.7c0.1-0.3,0.2-0.6,0.3-1c0-0.2,0-0.4-0.1-0.6
		c-0.1-0.2-0.3-0.4-0.5-0.5c-0.2-0.1-0.4-0.2-0.6-0.3c-0.2-0.1-0.4-0.2-0.6-0.3c-0.4-0.2-0.9-0.4-1.3-0.6c0,0,0,0,0,0c0,0,0,0,0-0.1
		c0-0.1,0-0.2-0.1-0.3c-0.1-0.2-0.1-0.4-0.2-0.7c0-0.1-0.1-0.3-0.2-0.4c-0.1-0.1-0.1-0.3-0.2-0.5c-0.1-0.1-0.1-0.2-0.2-0.3
		c0.2-0.1,0.3-0.3,0.5-0.4c0.3-0.3,0.5-0.4,0.5-0.4s-0.2,0.1-0.5,0.4c-0.1,0.1-0.3,0.2-0.5,0.3c-0.1-0.2-0.3-0.3-0.4-0.5
		c0.2-0.1,0.3-0.1,0.4-0.2c0.2-0.1,0.3-0.2,0.4-0.3c0.1-0.1,0.1-0.1,0.1-0.1s0,0-0.1,0.1c-0.1,0.1-0.2,0.2-0.4,0.3
		c-0.1,0.1-0.3,0.1-0.5,0.2c-0.1-0.1-0.3-0.2-0.4-0.3c-0.1-0.1-0.2-0.1-0.3-0.2c-0.1-0.1-0.2-0.1-0.3-0.2c-0.4-0.2-0.8-0.4-1.3-0.5
		c-0.4-0.1-0.9-0.2-1.3-0.4c-0.2,0-0.4-0.1-0.5-0.1c0-0.1-0.1-0.1-0.1-0.2c-0.3-0.3-0.7-0.7-1.1-0.9c-0.1-0.2-0.2-0.4-0.4-0.6
		c-0.1-0.1-0.2-0.2-0.2-0.3c0.1,0,0.1,0,0.1,0s0,0-0.1,0c-0.4-0.4-0.9-0.6-1.6-0.8c-0.4-0.1-0.8-0.1-1.2-0.1c-0.4,0-0.8,0-1.2,0.1
		c-0.1,0-0.1,0-0.2,0c-0.1,0-0.3,0-0.4,0c-0.5,0-0.9,0-1.4,0c-0.2,0-0.4,0-0.6,0c-0.2,0-0.4,0-0.6,0c-0.4,0-0.8,0-1.1,0
		c-0.4,0-0.7,0.1-1,0.2c-0.1,0-0.2,0.1-0.3,0.1c-0.6,0.1-1.2,0.2-1.6,0.5c-0.3,0.1-0.5,0.3-0.6,0.5c-0.2,0.2-0.3,0.3-0.4,0.5
		c0,0,0,0.1-0.1,0.1c-1.2,1-1.5,1.9-1.5,2.4c0,0.5-0.1,1.1-0.1,1.1S45,27.1,45,27.8c0,0.7,0.2,1.1,0.3,1.5c0.1,0.3,0,0.9-0.2,1.3
		c-0.2,0.4-0.4,0.7-0.3,1c0.1,0.3,0.9,0.2,0.9,0.3c0.1,0,0.1,0.3,0.1,0.4c0,0.1,0,0.4,0.2,0.4c0.3,0.1,0.5,0.1,0.5,0.2
		c0,0.1-0.2,0.2-0.1,0.4c0.2,0.2,0.4,0.2,0.3,0.4c-0.1,0.2-0.2,0.8,0.5,0.8c0.7,0.1,1.4-0.1,1.8-0.3c0.4-0.2,0.8-0.4,1-0.2
		c0.2,0.2,0.7,1,0.7,1.4c0,0.3-0.1,0.7-0.4,1c-0.3,0.3-1.2,1.2-1.5,1.4c-0.3,0.2-0.6,0.3-0.7,0.7c0,0.4,0,0.8-0.3,1.2
		c-0.2,0.4-0.6,1.6-0.7,2.5c-0.1,0.9,0.2,2.1,0.2,2.1s-0.5,1.2-0.8,2c-0.3,0.9-0.6,1.8-0.8,1.9c-0.2,0.1-2.3-0.5-3.2-0.8
		c-0.9-0.3-2.2-1-2.8-1.4c-0.6-0.4-1-0.9-1-1.2c0-0.3-0.1-1.1-0.1-1.5c-0.1-0.4-0.3-1-0.4-1.1c-0.1-0.2-0.2-1-0.6-1
		c-0.4-0.1-0.7,0.6-0.7,0.6s-0.3-0.1-0.6,0c-0.3,0.1-0.7,0.4-0.8,0.6c-0.2,0.2-0.2,0.5-0.2,0.5s-0.3,0.2-0.5,0.3
		c-0.2,0.1-0.2,0.3-0.2,0.4c0,0.2,0,0.3,0,0.3s-0.3,0.1-0.3,0.4c0,0.3,0.1,0.3,0.1,0.3s-0.2,0.3-0.1,0.6c0.1,0.3,0.5,0.4,0.8,0.7
		c0.2,0.3,1.1,1,1.4,1.2c0.3,0.2,1.2,0.8,1.7,1c0.5,0.2,2.1,1.2,3.2,1.8c1.1,0.6,2,1.2,3,1.5c0.9,0.3,1.7,0.5,2,0.7
		c0.3,0.1,0.8,0.3,1.2-0.3c0.4-0.6,0.9-1.3,0.9-1.3s0.4,0.8,0.5,1.5c0.1,0.7,0,1.4,0.1,2c0.1,0.6,0.4,1.5,0.5,2.1
		c0.1,0.6,0.3,0.8,0.2,0.9c-0.1,0.1-0.1,0.4-0.4,0.6c-0.3,0.2-0.4,0.2-0.5,0.4c-0.2,0.2-0.2,0.4-0.5,0.6c-0.3,0.3-3.2,2.4-4.5,3.5
		c-1.3,1.1-4.6,4.7-5.3,5.4c-0.7,0.7-1.5,1.2-1.7,2.5c-0.2,1.2,0.2,1.8,0.2,2.8c0.1,1,0,2.9-0.3,4.6c-0.3,1.8-0.1,4.5-0.1,6.1
		c0,1.6-0.4,5-0.6,5.9c-0.3,0.9-0.3,1.1-0.4,1.2c-0.1,0-0.2-0.2-0.5-0.2c-0.4,0-0.4,0.2-0.4,0.4c0,0.3,0,0.6-0.1,0.6
		c-0.1,0-1,0.1-1.2,0.2c-0.3,0-0.3,0.3,0,0.2c0.3,0,0.7,0,0.7,0c0,0-0.9,0.5-1.2,0.9c-0.3,0.4-0.5,0.7-0.3,0.9c0.2,0.2,0.5,0,0.5,0
		s-0.2,0.3-0.3,0.4c-0.1,0-0.1,0.2-0.3,0.3c-0.1,0.1-0.3,0.2-0.3,0.3c0,0.1,0,0.1-0.7,0.4c-0.6,0.4-1.3,0.5-1.7,0.9
		c-0.4,0.4-0.7,1,0.1,1.5c0.7,0.4,2.1,0.5,3.1,0.4c0.9-0.1,1.6-0.3,2.4-0.7c0.8-0.4,1.1-0.7,1.7-0.8c0.6,0,1.1,0.1,1.8-0.1
		c0.7-0.2,1.9-0.6,2.6-0.9c0.7-0.3,0.7-0.5,0.6-0.9c-0.1-0.4-0.2-0.6-0.2-0.6s-0.3-0.5-0.4-0.7c-0.1-0.2-0.3-0.7-0.4-0.8
		c-0.1,0,0-0.3-0.2-0.4c-0.1-0.1-0.4-0.1-0.4-0.3c0-0.3,0.1-0.4,0-0.5c-0.1-0.1-0.1-0.1-0.1-0.1l-0.1,0c0,0-0.1-1.4,0.1-2.7
		c0.2-1.3,0.4-3.1,0.8-4.4c0.4-1.3,1.4-4.7,1.4-6.6c0-1.9-0.1-3.8-0.1-4.1c0-0.3,0.3-0.7,0.8-1.1c0.5-0.4,2.7-1.8,4.2-2.6
		c1.5-0.8,3.6-1.8,5.1-2.7c1.5-0.9,3.1-1.8,3.1-1.8s0.2,0.3,0.4,0.4c0.2,0.1,0.5,0.5,0.7,0.9c0.2,0.4,0.5,0.5,0.5,0.5
		s1.8,2.1,3.9,3.9c2.1,1.7,4.4,3.4,5.2,4.1c0.8,0.6,2.9,2.5,3.8,2.6c0.9,0.1,2.3-0.4,3-0.8c0.7-0.4,2.2-0.7,3.5-0.9
		c1.3-0.2,4.5-0.8,5.8-1c1.3-0.3,4.2-0.6,5.8-0.6c1.6,0.1,3.2,0,3.2,0s-0.1,0.8,0.1,0.9c0.2,0.1,0.7,0,0.8,0c0.1,0,0.3,0.3,0.5,0.3
		c0.2,0,0.4,0.1,0.6,0.2c0.2,0.2,0.6,0.1,0.7,0.1c0.1,0,0.3,0.1,0.8,0.2c0.5,0.1,0.5,0,0.6-0.1c0.1-0.1-0.1-0.4-0.1-0.4s0.4,0,0.9,0
		c0.5,0,1-0.2,1.3,0c0.3,0.2,1.1,0.7,1.6,0.7C99.9,76,100.6,75.7,100.6,74.9z M33.1,93.2c-0.2-0.1,0.8-1,0.8-1S33.3,93.3,33.1,93.2z
		 M59.7,22.9c0,0.1,0.1,0.2,0.1,0.3c0,0,0,0,0,0.1c0,0-0.1-0.1-0.1-0.1c-0.2-0.2-0.4-0.3-0.6-0.5c-0.1,0-0.1-0.1-0.2-0.1
		c0,0-0.1,0-0.1-0.1c0.2,0.1,0.4,0.2,0.6,0.3C59.5,22.8,59.6,22.8,59.7,22.9z M64.2,26.8c0,0.1,0,0.1,0,0.2
		c-0.1-0.1-0.3-0.1-0.4-0.2c0,0,0,0,0,0c0-0.1,0-0.1-0.1-0.2c0.1,0,0.3-0.1,0.4-0.1C64.2,26.6,64.2,26.7,64.2,26.8z M66.8,34.4
		c0,0-0.1,0-0.1,0c0-0.3-0.1-0.6-0.2-0.8c-0.1-0.2-0.2-0.3-0.4-0.4c-0.1-0.1-0.3-0.2-0.4-0.3c0.1-0.3,0.3-0.7,0.3-1.2
		c0.2,0.1,0.4,0.3,0.6,0.4c0.3,0.2,0.5,0.5,0.6,0.9c0.1,0.3,0.1,0.7,0,1C67,34,66.9,34.2,66.8,34.4z M65.5,32.7
		c-0.1-0.1-0.2-0.1-0.3-0.2c0,0,0,0,0-0.1c0.1-0.4,0.1-0.8,0-1.2c0,0,0-0.1,0-0.1c0.1,0,0.1,0.1,0.2,0.1c0.1,0,0.2,0.1,0.3,0.1
		C65.7,32,65.6,32.4,65.5,32.7z M62.7,26.9c0,0,0.1,0.1,0.1,0.1c-0.1,0-0.2-0.1-0.3-0.1C62.6,26.9,62.6,26.9,62.7,26.9z M63.8,29.3
		C63.8,29.4,63.8,29.4,63.8,29.3C63.8,29.4,63.8,29.4,63.8,29.3C63.8,29.4,63.8,29.4,63.8,29.3z M62.1,26.7
		C62.1,26.7,62.1,26.7,62.1,26.7c-0.1,0-0.1-0.1-0.1-0.1c0.1,0,0.2,0.1,0.3,0.1C62.2,26.7,62.2,26.7,62.1,26.7z M63.1,27.1
		C63.1,27.1,63.1,27.1,63.1,27.1C63.1,27.1,63.1,27.1,63.1,27.1C63.1,27.1,63.1,27.1,63.1,27.1z M64.3,33.2
		C64.3,33.2,64.3,33.2,64.3,33.2C64.3,33.2,64.3,33.2,64.3,33.2C64.3,33.2,64.3,33.2,64.3,33.2z M63.5,28.4
		C63.5,28.4,63.5,28.4,63.5,28.4C63.5,28.4,63.5,28.4,63.5,28.4C63.5,28.4,63.5,28.4,63.5,28.4z M64.9,29.9c0.1,0,0.2,0,0.3,0.1
		c0,0,0,0,0,0.1C65.1,30,65,30,64.9,29.9z M64.4,29.5C64.4,29.5,64.4,29.4,64.4,29.5C64.4,29.5,64.4,29.5,64.4,29.5
		C64.4,29.5,64.4,29.5,64.4,29.5z M63.6,32.9c0.1,0.2,0.1,0.4,0.2,0.6c0,0.2,0.1,0.3,0.1,0.5c-0.1,0-0.1,0-0.2-0.1
		C63.6,33.6,63.6,33.3,63.6,32.9z M66.6,30.9c-0.2-0.2-0.5-0.4-0.7-0.5c0,0,0,0,0,0c0-0.1-0.1-0.1-0.1-0.2c0.4,0.1,0.7,0.2,1,0.4
		c0.3,0.2,0.6,0.4,0.8,0.6c0,0.1,0,0.1,0,0.2c-0.2-0.1-0.3-0.2-0.5-0.3C66.9,31,66.8,30.9,66.6,30.9z M63.8,34.7
		C63.8,34.7,63.8,34.7,63.8,34.7C63.8,34.7,63.8,34.7,63.8,34.7C63.8,34.7,63.8,34.7,63.8,34.7z M64.5,33.9
		C64.5,33.9,64.5,33.9,64.5,33.9C64.5,33.9,64.5,33.9,64.5,33.9C64.5,33.9,64.5,33.9,64.5,33.9C64.5,33.9,64.5,33.9,64.5,33.9
		c0.1-0.1,0.2-0.2,0.2-0.4c0,0,0,0,0,0c0,0.2,0,0.3,0,0.5c0,0.1,0,0.1,0,0.2c-0.2,0-0.3-0.1-0.5-0.1C64.4,34,64.4,34,64.5,33.9z
		 M64.9,34.2c0-0.1,0-0.1,0-0.2c0-0.1,0.1-0.3,0.1-0.4c0-0.1,0-0.2,0.1-0.3c0-0.1,0-0.1,0-0.2c0-0.1,0-0.1,0-0.2c0,0,0,0,0,0
		c0.1,0,0.2,0.1,0.2,0.1c0,0,0,0,0,0c0,0.1-0.1,0.1-0.1,0.2c0,0.1-0.1,0.1-0.1,0.1s0,0,0.1-0.1c0,0,0.1-0.1,0.1-0.1
		c0.1,0.1,0.3,0.2,0.4,0.3c0.1,0.1,0.3,0.2,0.4,0.3c0.1,0.2,0.2,0.4,0.2,0.7c-0.1,0-0.1,0-0.2,0c-0.4,0-0.7,0-1.1-0.1
		C65.1,34.2,65,34.2,64.9,34.2z M67.4,31.9c-0.1-0.1-0.1-0.3-0.2-0.4c0.1,0.1,0.2,0.1,0.3,0.2C67.4,31.8,67.4,31.8,67.4,31.9
		C67.4,31.9,67.4,31.9,67.4,31.9z M67.7,31.2C67.7,31.2,67.7,31.2,67.7,31.2c0.2,0.2,0.3,0.4,0.4,0.6c-0.1-0.2-0.3-0.3-0.4-0.4
		C67.6,31.4,67.7,31.3,67.7,31.2z M66.9,30.2c-0.4-0.2-0.8-0.4-1.3-0.5c-0.1,0-0.2-0.1-0.3-0.1c-0.1-0.1-0.1-0.2-0.2-0.4
		c-0.2-0.3-0.5-0.6-0.8-0.8c0.1,0,0.2,0,0.3,0.1c0.2,0.1,0.4,0.1,0.6,0.2c0.2,0.1,0.4,0.1,0.6,0.2c0.7,0.3,1.4,0.7,1.7,1.2
		c0,0.1,0.1,0.1,0.1,0.2c0,0.1,0,0.1,0.1,0.2c0,0.1,0,0.2,0,0.2C67.4,30.5,67.1,30.4,66.9,30.2z M63.6,26.4
		C63.6,26.3,63.6,26.3,63.6,26.4c-0.2-0.3-0.3-0.4-0.5-0.6c-0.1-0.1-0.2-0.2-0.3-0.2c0.1,0,0.1,0,0.2,0.1c0.1,0.1,0.3,0.1,0.4,0.2
		c0.3,0.1,0.4,0.2,0.6,0.4c0,0,0,0,0,0C63.9,26.3,63.8,26.3,63.6,26.4z M57.2,22C57.2,22,57.2,21.9,57.2,22c0.1,0,0.3,0,0.5,0.1
		C57.6,22,57.4,22,57.2,22z M63.7,35.3c0,0,0-0.1,0-0.2c0,0,0,0,0,0C63.7,35.2,63.7,35.2,63.7,35.3z M65.8,35.1c-0.4,0-0.7,0-1,0
		c-0.2,0-0.5-0.1-0.7-0.2c0,0,0-0.1,0-0.1c0.3,0.1,0.6,0.1,0.9,0.1c0.4,0,0.8,0,1.1,0c0.1,0,0.1,0,0.2,0c-0.1,0.1-0.1,0.2-0.2,0.2
		C66.1,35.1,66,35.1,65.8,35.1z M68.4,33.1c0.1,0.3,0.1,0.7,0.1,1c0,0.1,0,0.3,0,0.4c0,0.1,0,0.2,0,0.3c0,0.2-0.1,0.4-0.1,0.5
		c0,0,0-0.1-0.1-0.1c-0.1-0.1-0.1-0.2-0.2-0.3c-0.2-0.2-0.5-0.3-0.8-0.4c0,0-0.1,0-0.1,0c0.1-0.1,0.2-0.3,0.3-0.5
		c0.2-0.4,0.3-0.8,0.2-1.3c0-0.1-0.1-0.3-0.1-0.4c0,0,0,0,0,0c0-0.1,0-0.1-0.1-0.2c0-0.1,0-0.1-0.1-0.2c0,0,0.1-0.1,0.1-0.2
		c0.1,0.1,0.3,0.2,0.4,0.4c0.1,0.2,0.3,0.4,0.3,0.6c0,0.1,0,0.2,0,0.4c-0.1,0.3-0.2,0.5-0.2,0.7c0,0.1-0.1,0.2-0.1,0.2
		c0,0.1,0,0.1-0.1,0.2c0,0.1,0,0.2,0,0.2s0-0.1,0.1-0.2c0,0,0-0.1,0.1-0.2c0-0.1,0.1-0.1,0.1-0.2C68.1,33.6,68.2,33.3,68.4,33.1
		C68.3,33,68.3,33,68.4,33.1C68.3,33,68.3,33.1,68.4,33.1z M68.5,30.5c0,0.1,0,0.1,0,0.2c0,0.1,0,0.1,0,0.2c0,0.1-0.1,0.2-0.1,0.3
		c-0.1,0.1-0.1,0.2-0.2,0.3c-0.1-0.2-0.2-0.3-0.3-0.5c-0.1-0.1-0.1-0.1-0.2-0.2c0-0.1,0-0.3,0-0.4c0-0.1,0-0.2-0.1-0.2
		c0-0.1-0.1-0.2-0.1-0.2c-0.2-0.3-0.4-0.6-0.7-0.8c-0.3-0.2-0.7-0.4-1-0.6c-0.2-0.1-0.4-0.2-0.6-0.2c-0.1,0-0.2-0.1-0.3-0.1
		c0.4,0.1,0.7,0.1,1,0.2c0.4,0.1,0.9,0.3,1.2,0.4c0.4,0.2,0.7,0.4,0.9,0.7C68.3,29.9,68.4,30.2,68.5,30.5z M66.2,27.7
		c0,0.1,0.1,0.1,0.1,0.2c-0.4-0.2-0.8-0.4-1.2-0.5c-0.2-0.1-0.4-0.2-0.6-0.3c0,0,0,0,0,0c0-0.1,0-0.2,0-0.3c0-0.1,0-0.3,0-0.5
		c0,0,0,0,0.1,0c0.2-0.1,0.4-0.2,0.6-0.3c0.1,0.1,0.2,0.2,0.3,0.3C65.8,26.8,66,27.3,66.2,27.7z M64.7,25.6c0.1,0.1,0.2,0.2,0.3,0.3
		c-0.2,0.1-0.3,0.2-0.5,0.2c0,0,0,0,0,0c0,0,0-0.1,0-0.1c-0.1-0.2-0.3-0.4-0.5-0.6c0.2,0,0.3,0,0.5,0C64.4,25.4,64.6,25.5,64.7,25.6
		z M63.7,25c0.1,0,0.2,0.1,0.3,0.1c0,0,0.1,0,0.1,0c-0.1,0-0.2,0-0.3,0c-0.1,0-0.2,0-0.3,0c-0.1,0-0.1-0.1-0.2-0.1
		c-0.1-0.1-0.3-0.2-0.4-0.2c-0.2-0.1-0.3-0.2-0.5-0.2c0,0,0.1,0,0.1,0C62.9,24.7,63.3,24.9,63.7,25z M60.2,23.4c-0.1,0-0.1,0-0.2,0
		c0,0-0.1,0-0.1,0c0,0,0,0,0,0c0,0,0-0.1,0-0.1c0,0,0-0.1,0-0.1C59.9,23.1,60.1,23.2,60.2,23.4z M59,22c0.1,0.1,0.1,0.2,0.2,0.3
		c-0.3-0.2-0.7-0.3-1.1-0.4c-0.3-0.1-0.6-0.2-0.8-0.2c0,0,0,0,0,0c0.5,0,0.9,0,1.2,0c0,0,0,0,0,0C58.7,21.7,58.9,21.8,59,22z
		 M56.2,21.1c0.4,0,0.8,0,1.1,0.1c0.4,0.1,0.8,0.2,1.1,0.4c-0.3,0-0.8-0.1-1.3-0.2c-0.4-0.1-0.7-0.1-1.2-0.2c-0.1,0-0.1,0-0.2-0.1
		C56,21.1,56.1,21.1,56.2,21.1z M47,22.4C47,22.5,47,22.5,47,22.4c0,0,0.1-0.1,0.3-0.2c0.2-0.1,0.4-0.3,0.6-0.4
		c0.2-0.1,0.5-0.2,0.7-0.2c0,0-0.1,0-0.1,0.1C47.9,21.9,47.4,22.1,47,22.4z M95.7,75.5c-0.1,0.2-0.9-0.3-0.9-0.3
		S95.8,75.3,95.7,75.5z"/>
</g>
</svg>
