<?xml version="1.0" encoding="utf-8"?>
<!-- Generator: Adobe Illustrator 21.0.2, SVG Export Plug-In . SVG Version: 6.00 Build 0)  -->
<svg version="1.1" id="Layer_1" xmlns="http://www.w3.org/2000/svg" xmlns:xlink="http://www.w3.org/1999/xlink" x="0px" y="0px"
	 viewBox="0 0 1920 48.6" style="enable-background:new 0 0 1920 48.6;" xml:space="preserve">
<style type="text/css">
	.st0{fill:#B0D35C;}
	.st1{fill:#533420;}
</style>
<rect y="0" class="st0" width="1920" height="48.6"/>
<g>
	<path class="st1" d="M1520.6,17.3l1.5-0.1c-0.1-0.2-0.5-0.3-1-0.4C1521.1,16.9,1520.8,17.1,1520.6,17.3z"/>
	<path class="st1" d="M1865.4,23.7c2.3,0,2.7-0.4,2.6-0.8c-0.4,0.2-1.1,0.4-2.1,0.6L1865.4,23.7z"/>
	<path class="st1" d="M1868.2,22l-0.5,0.3c0.1,0.2,0.2,0.4,0.3,0.6C1868.4,22.6,1868.6,22.4,1868.2,22z"/>
	<path class="st1" d="M1505.5,16.4c-8,0.2-17.8,0.5-27.2,0.8c-9.4,0.3-18.3,0.5-24.6,0.5v2.4l12.7,1.7l4.2-3
		c8.5,1.5,14.8,1.7,20.3,1.6s10.2-0.7,15.5-0.5c7.4,0,12.9-1.1,14.2-2.6l-15.5,1L1505.5,16.4z"/>
	<path class="st1" d="M557.2,2.6C556.3,2.5,555.9,2.7,557.2,2.6L557.2,2.6z"/>
	<path class="st1" d="M1194.2,6c0.3,0,0.4,0,0.6,0c0.5-0.6,0.9-1.1,1.3-1.5L1194.2,6z"/>
	<path class="st1" d="M1296.5,10.6c0.2,0.1,0.4,0.1,0.6,0.2C1297.1,10.4,1297.2,10,1296.5,10.6z"/>
	<path class="st1" d="M956.5,8.6c0.5-0.1,1-0.2,1.7-0.3C957.3,8.3,956.8,8.4,956.5,8.6z"/>
	<path class="st1" d="M369.1,6.7c0,0,0.3,0,0.4-0.1c-0.4-0.1-0.7-0.2-1.1-0.3L369.1,6.7z"/>
	<path class="st1" d="M372,5.9c-0.1-0.1-0.3-0.2-0.8-0.3C371.4,5.8,371.7,5.8,372,5.9z"/>
	<path class="st1" d="M372,5.9c0.3,0.3-1.6,0.6-2.4,0.7c2.5,0.8,5,0.8,7.5,0.4C377.1,6.3,373.8,6.3,372,5.9z"/>
	<path class="st1" d="M27.4,23.6l1-0.5C27.9,23.2,27.6,23.4,27.4,23.6z"/>
	<path class="st1" d="M81.6,19.4l0.5-1.5C81.6,18.5,81.6,19,81.6,19.4z"/>
	<path class="st1" d="M1196.1,4.5l0.7-0.6C1196.6,4.1,1196.4,4.3,1196.1,4.5z"/>
	<path class="st1" d="M1391,11.8c0,0.5,0.3,0.8,0.5,1.1c0.1,0,0.2,0,0.3,0L1391,11.8z"/>
	<path class="st1" d="M1868,22.9c0-0.2-0.1-0.4-0.3-0.6l-1.8,1.2C1866.8,23.3,1867.5,23.1,1868,22.9z"/>
	<path class="st1" d="M1505.5,16.4l-0.4,1.8l15.5-1c0.1-0.2,0.4-0.3,0.4-0.5C1518.9,16.3,1513,16.3,1505.5,16.4z"/>
	<path class="st1" d="M153.9,13c0.3,0,0.6-0.1,0.9-0.1C154.3,12.8,154.1,12.9,153.9,13z"/>
	<path class="st1" d="M1472.7,12.4l1.4-0.6C1473.5,12,1473,12.2,1472.7,12.4z"/>
	<path class="st1" d="M1909.7,30.5c-11.3-1.6-24-3.6-29.4-5.1c14.2,0.1,3.7-0.6,0.8-1.6l-0.9,0.9c-8.5-0.3-8.7-2.5-12.9-2.9
		c0,0.2,0.2,0.4,0.3,0.6l0.5-0.3c0.4,0.4,0.2,0.6-0.2,0.9c0.1,0.5-0.2,0.8-2.6,0.8l0.4-0.3c-3.5,0.5-9.7,0.5-12.3,0.5l-0.2-1.8
		c-3,1.9-13.7,1.2-24.6,0.1c-2.7-0.3-5.5-0.6-8.1-0.9c-2.7-0.3-5.2-0.7-7.6-1c-4.7-0.6-8.6-1-10.7-0.9c-8.6-1.9-19,1.3-29.6,0.6
		c-16.9,0.1-8.5-2.3-17.1-3.5c-10.6-0.7,2.2,2-2,2.3l-12.8-2c7.4-0.5,3.3-1.4,1.9-2.1c-11,0.1-28.3-2.5-31.6,1.3
		c-14.8-1.3-14.9-2.8-21.2-2.8c2.1,0.6,6.4,1.1,6.4,1.8c-6-1.4-2.8,0.5-0.4,0.8c-9,1.8-47-5.3-48.8-1.3v-0.7c-2,3,1.4,5.8-4.8,7.6
		l-4.2-1.2l-6.3,1.4c-4.3-0.8-2.2-1.7-2.2-2c-5.1,0.8-11.3,0.9-17.8,0.8c-3.2-0.1-6.5-0.2-9.8-0.3c-3.3-0.1-6.5-0.3-9.7-0.3
		c4.5,2.6,8.9,5.3,13.4,7.8c-10.6-1.6-29.7-5.2-31.8-2.5l-6.4-2.6c-21.2-4.8-14.7,2.5-23.2,1l-10.7-2.8l10.6-0.1
		c-10.6-1.3-14.8-2.2-23.3-4l-0.1,0.1c0.6,0.1,1,0.2,1,0.4l-1.5,0.1c-1.3,1.5-6.8,2.6-14.2,2.6c-5.3-0.1-10,0.4-15.5,0.5
		s-11.8-0.1-20.3-1.6l-4.2,3l-12.7-1.7v-2.4c6.2,0,15.2-0.2,24.6-0.5s19.2-0.6,27.2-0.8l0.3-1.1c-4.7,0.1-9.8,0.4-14.4,0.7
		c-4.7,0.3-8.9,0.5-12,0.4c-2.7-0.4-9.2-2.4-6.6-4l-4.4,1.8c-31.6,0.4-31.8,0.5-64.8-2l2.9,1.2c-6.5,0.7-13.1,1.5-14.9-0.5
		c-19.8-0.4-40.3-2-53.2-5.1l-2.8,2.8c-4.2-0.2-10.4-4.5-12.5-0.5l-8.9,1.2c-5.7-0.2-9.2,1.4-15.7-0.3l0,0l0,0
		c-0.4-0.1-0.8-0.2-1.2-0.3c0,0.1,0,0.2,0.1,0.2c-12.9-1.3,0.1,2.5-14.7,0.9c-4.7-2-5.3,3.6-12.5,2.9l-7.2-4.1
		c-13.1-2.4-15.3,1.6-34.3,1.4c-9.1-1.5-13.5-5-7.4-8c-8.3,3.6-3.8,2.4-14.8,4.1c-1.7-1.5-0.5-1.9,1.9-3.2c-9.7-1.9-6,1.3-13.4,1.2
		c-2.2,2.9-4.7,7.4-7.1,7.6l2.8,0.9c-7.8,1.5-16.3,2.1-25.4,0.6l0.4-1.4l-9.7,0.6l-0.6-1.9l-13.8,0.4l1.9,0.5
		c-3.2,0.2-13.9,0.7-19.9-0.4l0.2-1c-17.1-3.4-31.3,0.6-51.4,0.6l2.7-2.1c-6.8-2.2-1.9,3.2-10.1,2.1l-0.4-2.6
		c-7.2,3.3-9.3-0.8-14.2-2.2l2.3,3.4l-9.3-0.9c-10.2-1.3-6.2-4.4-4.7-6.1l-7,2.6l-1.3-3c-5.2,3.4-5.1-0.6-14.1,1.1
		c-0.7-1.1,1.6-1.8-1.5-2.3l-14.8,4l8.9-1.7l-1.1,4.3c-9.3,3.2-12.5-0.7-19.2,0.4l4.6-1.2c-10.8,0.9-11.4-1-17.4-2
		c1.9,0.8,4.7,2.1,0.4,2.6c-3.2,0.2-1.7-1.6-4.7-2.1c-0.8,2.9-8.5,4.3-15.5,2.8c0.1-0.4,0.2-0.8,0.7-1.1c-1.8,0.4-2.7,1.2-5.8,0.4
		l1.9-3.2l-6.1,3c-4-0.9-9.9,1.3-9.3-0.9l2.3-0.6L909,6.1l-0.4-2.6C905.5,7,892.1,1.9,893,6.3c-5.7-2.5-22.6,1.4-19.1-3.6
		c-19.9-0.7-30.8,3.9-55,1.2c-8.6-4.4-32.2-3.3-47.8-4c-15.2,0.7-27.7,1.4-40.3,2c-12.6,0.7-25.3,1.3-40.9,1.8
		c-18.6-6.1-46.7,1.6-66.8-1.9l-5.5,2.3c-13.4-3.8-33.8,0.7-52.6-3c-4.6,1-7,1.3-8.1,1.4c0.9,0.1,2.1,0.6,2.5,2.1
		C554,3.5,543.2,4.8,544,1.8l1.4-0.3c0.8-3-16.3,1.3-22.3-1.3l3.3,3.2L516.5,3l2.7-0.6c-5.5,0.9-10.6,1.5-15.5,1.9
		c-4.8,0.4-9.4,0.7-13.8,0.8c-8.7,0.2-16.6-0.2-24.5-0.6c-15.7-0.8-31-1.6-51.7,1.7c5.5-3.5-8.1,1.9-8.7-1.9
		c-10.5-4.7-19.4,1.3-27.9,2.7c0,0.2-0.1,0.4-0.6,0.7l-15-0.2c8.9-5-10.7,4.2-2.6-0.1c-19.6-1.5-42.1-1.2-65.3-0.5
		c-23.3,0.9-47.3,2-69.9,1.8l2,1.2c-11.5,0.1-25.7,2-34.5,0.2s-18.9,3.8-22.3,4.1c-8.5,2.2-16.4-0.7-15.1-1.2
		c-9.9,1.2-19.1,5.7-33,4.5c-2.5-1.9-12.2-0.4-21.3,1.1s-17.6,3-18,0.7l-0.1,0.4c-4.6-0.5-9.1-0.4-13.6,0s-8.9,1.1-13.4,1.8
		c-9,1.4-18.1,3.1-28.1,2.8c0,0,0.3-0.4,1-0.8c-7.4,3.6-14.7,7.3-22,11H0v2.8v11.2h1920V35.7v-3.8
		C1916.9,31.5,1913.4,31,1909.7,30.5z"/>
	<path class="st1" d="M1591.7,19.9c0.3,0,0.5,0,0.8,0l-3-1.7L1591.7,19.9z"/>
	<path class="st1" d="M1742.9,14.8c2.6,0,4.8-0.2,6.4-0.7C1742.2,14.1,1741.9,14.4,1742.9,14.8z"/>
	<path class="st1" d="M1881.2,23.7l1.1-1.1C1880.1,23,1880.3,23.3,1881.2,23.7z"/>
</g>
</svg>
