<?xml version="1.0" encoding="utf-8"?>
<!-- Generator: Adobe Illustrator 21.0.2, SVG Export Plug-In . SVG Version: 6.00 Build 0)  -->
<svg version="1.1" id="Layer_1" xmlns="http://www.w3.org/2000/svg" xmlns:xlink="http://www.w3.org/1999/xlink" x="0px" y="0px"
	 viewBox="0 0 1920 141.9" style="enable-background:new 0 0 1920 141.9;" xml:space="preserve">
<style type="text/css">
	.st0{fill:#F4F4F4;}
	.st1{fill:#B0D35C;}
</style>
<rect y="0" class="st0" width="1920" height="141.9"/>
<g>
	<path class="st1" d="M0.4,141.9H1920V45.7c-0.4,0.7-0.8,1.4-1.2,2.2c-3.9,7.3-7.8,15.3-11.3,23.6c-3.4,8.3-6.5,16.9-9,25.1
		c0,0,0,0,0,0.1c-0.7-4.1-1.3-8.4-1.8-12.7c-0.7-6.8-1-13.7-1-20.1c0.1-6.4,0.4-12.5,0.9-17.6c0.2-2.6,0.5-4.9,0.8-7
		s0.5-3.9,0.8-5.4c0.5-3,0.8-4.7,0.8-4.7s-0.8,1.6-2.2,4.4c-0.7,1.4-1.5,3.1-2.4,5.1s-2,4.3-3,6.8c-2.1,5-4.2,11.1-6.3,17.8
		c-0.4,1.3-0.8,2.6-1.1,4c-2-8.4-4.3-16.6-6.9-24.3c-2.8-8.2-5.7-15.8-8.6-22.1c-1.4-3.2-2.7-6.1-3.9-8.6c-1.2-2.5-2.3-4.7-3.2-6.5
		c-1.9-3.6-2.9-5.6-2.9-5.6s0.6,2.3,1.6,6.2c0.5,2,1.1,4.4,1.7,7.1s1.3,5.8,1.9,9.2c0.8,4.2,1.5,8.9,2.2,13.8
		c-0.6,0.6-1.1,1.1-1.8,1.8c-0.8,0.8-1.7,1.7-2.6,2.6c-0.9,0.9-1.8,2-2.7,3c-3.9,4.2-7.9,9.6-12.1,15.6c-2.4,3.6-4.7,7.5-6.9,11.5
		c-0.7-2-1.4-4.1-2.2-6c-2.4-6.3-4.8-12.1-7.1-16.9c-1.1-2.4-2.2-4.6-3.2-6.6s-1.8-3.6-2.6-5c-1.5-2.8-2.3-4.3-2.3-4.3
		s0.4,1.8,1,4.9c0.3,1.5,0.7,3.4,1,5.6c0.4,2.2,0.8,4.6,1.1,7.3c0.8,5.3,1.4,11.5,1.8,18.1s0.5,13.6,0.4,20.5
		c-0.1,4.1-0.3,8.1-0.6,12c-0.2,0.5-0.4,1.1-0.5,1.6c-0.6,2.2-1.2,4.3-1.7,6.4c-0.2-2.3-0.4-4.7-0.7-7.1c-0.9-7.4-2.1-15.2-3.7-22.9
		s-3.6-15.4-5.6-22.4c-2.2-7.1-4.3-13.6-6.5-19.1c-1-2.8-2-5.3-3-7.4c-0.9-2.2-1.7-4.1-2.4-5.7c-1.4-3.1-2.2-4.9-2.2-4.9
		s0.3,2,0.9,5.4c0.3,1.7,0.6,3.8,0.9,6.2s0.6,5.1,0.9,8c0.6,5.8,1,12.7,1.2,19.9c0.1,7.2-0.1,14.9-0.6,22.4
		c-0.6,7.6-1.5,15-2.6,21.9c-0.9,5.4-1.9,10.4-2.9,14.8c0.1-3.1,0.2-6.3,0.2-9.6c-0.1-7.2-0.6-14.8-1.5-22.4c-1-7.5-2.5-15-4.2-21.9
		c-1.8-6.9-3.7-13.2-5.8-18.5c-0.9-2.7-1.9-5.1-2.8-7.2c-0.9-2.1-1.7-4-2.4-5.4c-1.4-3-2.2-4.7-2.2-4.7s0.3,1.9,0.9,5.2
		c0.3,1.6,0.6,3.6,0.8,5.9c0.3,2.3,0.6,4.9,0.7,7.7c0.5,5.6,0.6,12.1,0.4,18.9c-0.3,6.9-1,14-2.1,21.1c-0.7,3.9-1.5,7.8-2.4,11.5
		c-0.4-1.1-0.8-2.2-1.3-3.4c-2.4-5.9-5.1-11.6-7.9-16.8c-2.9-5.2-5.7-9.9-8.3-13.7c-1.3-2-2.6-3.7-3.7-5.2s-2.1-2.9-3-3.9
		c-1.7-2.1-2.7-3.3-2.7-3.3s0.5,1.5,1.5,4.2c0.5,1.3,1,2.9,1.6,4.8c0.6,1.8,1.2,3.9,1.8,6.2c1.3,4.5,2.3,9.9,3.2,15.5
		c0.8,5.7,1.4,11.7,1.6,17.6c0.2,7,2.9,18.9-6.8,17.2c-6.6-1.1-8.6-9.4-7.8-14.9c1.4-9.2,4-18.3,7.7-26.9
		c-9.2,10.2-14.5,23.3-22.2,33.5c0.5-9,2.4-18.1,4.9-26.8c1.6-5.9,3.6-11.6,5.7-17c0.5-1.3,1.1-2.6,1.6-3.9c0.6-1.3,1.1-2.5,1.6-3.7
		s1.1-2.3,1.6-3.5c0.5-1,1-2,1.5-3c0.8-1.6,1.6-2.8,2.2-3.5c0.2-0.2,0.4-0.5,0.6-0.7c0.1-0.1,0.4-0.4,0.6-0.5
		c0.4-0.3,0.8-0.4,1.1-0.4c0.3,0,0.4-0.1,0.4-0.1s-0.2-0.1-0.5-0.3s-0.9-0.4-1.6-0.5c-0.8,0-1.4-0.2-2.7,0.3
		c-1.2,0.5-2.8,1.5-4.4,2.9c-0.8,0.7-1.7,1.6-2.6,2.6s-1.9,1.9-2.9,3s-2,2.1-3,3.2c-1,1.1-2,2.3-3,3.5c-3,3.6-6.1,7.6-9,11.8
		c-0.1-3.2-0.3-6.3-0.5-9.3c-0.6-7-1.3-13.5-2.3-19c-0.4-2.8-0.9-5.3-1.4-7.5c-0.4-2.2-0.8-4.2-1.2-5.7c-0.8-3.2-1.2-5-1.2-5
		s-0.1,1.9-0.2,5.2c0,1.6-0.2,3.6-0.4,5.9c-0.2,2.3-0.4,4.8-0.7,7.6c-0.6,5.5-1.7,11.9-3,18.6c-1.1,5-2.4,10.2-3.9,15.4
		c-1-2.2-2.1-4.4-3.2-6.6c-2.4-4.6-5-9-7.7-13.3c1.3-3.8,2.1-6.1,2.1-6.1s-0.9,1-2.5,2.8c-0.3,0.3-0.7,0.7-1,1.1
		c-1.1-1.7-2.2-3.4-3.4-5c-4.5-6.2-8.9-11.7-13.1-16.1c-1-1.1-2-2.2-3-3.2s-1.9-1.9-2.8-2.7c-1.7-1.7-3.3-3.2-4.6-4.4
		c-2.6-2.3-4.2-3.7-4.2-3.7s1.1,1.7,3.1,4.7c1,1.5,2.1,3.3,3.4,5.4c0.6,1.1,1.3,2.2,2,3.4s1.3,2.5,2,3.8c2.9,5.2,5.6,11.6,8.2,18.4
		c1.2,3.3,2.3,6.7,3.3,10.1c-4.6,5.7-9.7,12.7-14.6,20.1c-1.8-5-3.7-9.9-5.7-14.5c-2.8-6.1-5.6-11.7-8.2-16.4
		c-1.3-2.3-2.6-4.4-3.7-6.3c-1.1-1.9-2.1-3.5-3-4.7c-1.7-2.6-2.7-4.1-2.7-4.1s0.5,1.7,1.5,4.8c0.5,1.5,1,3.4,1.5,5.5
		c0.3,1.3,0.7,2.6,1,4.1c-0.9,1-1.9,2.3-3,3.7c-1.2,1.5-2.4,3.1-3.7,5c-2.7,3.8-5.5,8.4-8.4,13.7c-2.8,5.3-5.4,11.2-7.7,17.3
		c-2.2,6.2-4.1,12.6-5.4,18.8c-0.2,1.1-0.4,2.3-0.7,3.4h-1.1c1.3-3.7,2.4-7.8,3.6-12.2c1.4-6,2.6-12.4,3.4-18.9
		c0.6-5.7,0.9-11.4,0.9-16.8c1.7-2.5,3.4-4.9,5.1-7c1.5-2.1,3-3.9,4.4-5.5c1.3-1.6,2.5-3,3.6-4.1c2-2.2,3.2-3.5,3.2-3.5
		s-1.5,0.9-4.2,2.5c-1.4,0.8-3,1.8-4.8,3c-2.2,1.4-4.8,3.2-7.5,5.3c-0.2-3.3-0.5-6.5-0.9-9.3c-0.3-2.4-0.6-4.6-1-6.5
		c-0.3-1.9-0.6-3.6-1-5c-0.6-2.7-1-4.3-1-4.3s-0.2,1.6-0.5,4.5c-0.1,1.4-0.4,3.1-0.7,5.1c-0.3,1.9-0.6,4.1-1.1,6.5
		c-0.9,4.9-2.5,10.5-4.3,16.3c-0.5,0.7-1.1,1.7-1.6,2.4c-0.4,0.3-0.8,0.7-1.1,1c-5.1,4.7-10.4,10.1-15.4,15.9
		c-1.3,1.6-2.6,3.1-3.8,4.7c-2.9-7.3-6-14.3-9.1-20.8c-1.5-3.1-3-6-4.5-8.8c1.3-11.7,2.3-22.8,2.8-31.7c0.4-6.3,0.7-11.5,0.8-15.1
		c0.1-3.7,0.2-5.7,0.2-5.7s-0.6,2-1.7,5.6s-2.6,8.6-4.6,14.6c-1.7,5.1-3.6,11-5.9,17.2c-2.2-3.9-4.1-7.2-5.6-9.7
		c-1.9-3.3-3-5.1-3-5.1s0.6,2.1,1.7,5.8s2.6,8.9,4.4,15.3c0,0.1,0.1,0.3,0.1,0.4c-2.3,6.4-4.9,13-7.5,19.5
		c-1.6,3.9-3.2,7.8-4.8,11.6c-1.9-3.5-3.9-6.9-6-10c-2.8-4.2-5.6-7.9-8.1-11c-1.2-1.6-2.4-2.9-3.5-4.1c-0.5-0.6-1-1.1-1.5-1.6
		c-0.5-4.7-1.1-9-1.7-12.9c-0.4-2.8-0.9-5.3-1.4-7.5c-0.4-2.2-0.8-4.2-1.2-5.7c-0.8-3.2-1.2-5-1.2-5s-0.1,1.9-0.2,5.2
		c0,1.6-0.2,3.6-0.4,5.9c-0.2,2.3-0.4,4.8-0.7,7.6c-0.6,5.5-1.7,11.9-3,18.6c-1.5,6.7-3.3,13.7-5.5,20.4c-2.3,6.8-4.8,13.3-7.5,19.3
		c-1,2.2-2,4.2-3,6.2v0.1c-2.4,4.8-9.6,3-9.6-2.3c0-5.1,0.9-10.6,1.8-14.8c2.1-10,4.7-19.9,7.1-27.2c2.3-7.3,4.1-12.2,4.1-12.2
		s-0.9,1-2.5,2.8s-3.8,4.3-6.4,7.5c-5.3,6.3-12,15.1-18.2,24.5c-0.4,0.7-0.9,1.3-1.3,2c0.1-5.6,0.5-11.2,1.2-16.5
		c0.9-5.5,1.9-10.7,3.2-15c0.3-1.1,0.6-2.1,0.9-3.1s0.6-1.9,0.9-2.8c0.6-1.7,1.1-3.3,1.6-4.5c1-2.5,1.5-3.9,1.5-3.9s-1,1.2-2.8,3.2
		c-0.9,1-2,2.3-3.1,3.9c-0.6,0.8-1.2,1.6-1.9,2.5c-0.6,0.9-1.3,1.8-2,2.8c-2.8,4-5.7,8.9-8.6,14.5c-2.8,5.6-5.4,11.9-7.6,18.5
		c-1,3.1-1.9,6.3-2.7,9.5c0.2-1.4,0.3-2.8,0.5-4.2c0.9-5.2,1.8-10.1,3-14.3c0.5-2.1,1.1-4,1.7-5.6c0.5-1.7,1-3.1,1.5-4.3
		c0.9-2.4,1.4-3.7,1.4-3.7s-1,1.1-2.7,3.1c-0.9,1-1.9,2.2-3,3.7c-1.2,1.5-2.4,3.1-3.7,5c-2.2,3.1-4.5,6.8-6.9,10.9
		c1.8-14.5,3.1-28.6,3.7-39.6c0.4-6.3,0.7-11.5,0.8-15.1c0.1-3.7,0.2-5.7,0.2-5.7s-0.6,2-1.7,5.6s-2.6,8.6-4.6,14.6
		c-3.9,12.1-9.5,27.9-15.8,43.3c-2.1,5.1-4.2,10.1-6.3,15c-0.4-10.2-1.6-20.2-2.9-27.7c-0.7-4.1-1.4-7.4-1.9-9.7
		c-0.5-2.3-0.8-3.7-0.8-3.7s-0.2,1.4-0.6,3.9c-0.4,2.4-1,5.9-1.9,10c-1.7,8.2-4.7,18.9-8.5,28.9c-0.8,2-1.6,4-2.4,5.9
		c0.2-0.7,0.4-1.3,0.6-2c1.5-5,2.5-11,3.3-17.3c0.7-6.4,0.8-13.2,0.4-19.9c-0.5-6.8-1.5-13.4-3-19.5c-1.6-6.1-3.4-11.7-5.4-16.3
		c-0.5-1.2-0.9-2.3-1.4-3.3s-1-2-1.4-2.9c-0.9-1.8-1.7-3.4-2.5-4.6c-1.5-2.5-2.3-4-2.3-4s0.4,1.7,1,4.6c0.3,1.4,0.6,3.2,0.9,5.2
		c0.1,1,0.3,2.1,0.5,3.2c0.1,1.1,0.2,2.3,0.3,3.5c0.5,4.9,0.4,10.6-0.1,16.4c-0.6,5.9-1.7,11.9-3.3,17.7c-1.1,3.8-2.4,7.4-3.9,10.8
		c0-5.3-0.2-10.4-0.5-15.3c-0.5-7-1-13.6-1.6-19.1c-1.1-11-2.1-18.2-2.1-18.2s-1.2,7.4-3.1,18.5c-1,5.5-2.3,12-3.8,18.8
		c-1.6,6.8-3.4,14-5.7,21c-2.3,7-4.8,13.7-7.7,19.7l0,0c-2.1,4.3-8.7,3.2-9-1.6c0-0.3,0-0.7,0-1c0.2-2.1,0.4-4.2,0.7-6.3
		c0.7-4.9,1.7-9.8,2.8-14.3c1.2-4.5,2.4-8.7,3.8-12.3c0.6-1.8,1.2-3.4,1.8-4.8c0.6-1.4,1.1-2.7,1.5-3.7c0.9-2,1.4-3.2,1.4-3.2
		s-1,0.9-2.7,2.5c-0.9,0.8-1.9,1.8-3,3c-1.2,1.2-2.5,2.5-3.8,4c-2.2,2.4-4.6,5.3-7,8.4c0.7-5.1,1.6-10,2.7-14.7
		c1.6-6.4,3.2-12.3,5-17.2c0.4-1.2,0.9-2.4,1.3-3.6c0.4-1.1,0.9-2.2,1.3-3.2c0.8-2,1.5-3.7,2.1-5.1c1.3-2.8,2-4.4,2-4.4
		s-1.2,1.4-3.3,3.8c-1.1,1.2-2.3,2.7-3.6,4.5c-1.4,1.7-3,3.7-4.5,6c-3.3,4.5-6.8,10-10.3,16.2c-3.4,6.2-6.8,13.2-9.7,20.4
		c-2.8,7.2-5.3,14.8-7.2,22c-0.4,1.6-0.7,3.1-1.1,4.6c-1.8-2.9-10.1-18.8-5.2-8.8c1.7,3.4-3.5-6.6-4.9-10c-0.8-1.8-1.3-3.7-2.1-5.5
		v-0.1c1.2-3.4,2.7-6.7,4.5-9.7c2.1-3.2,4.2-6.2,6.4-8.4c0.5-0.6,1-1.1,1.5-1.6s1-0.9,1.5-1.3c0.9-0.9,1.8-1.6,2.5-2.1
		c1.5-1.1,2.3-1.7,2.3-1.7s-1.1,0.2-3,0.5c-1,0.1-2.2,0.4-3.6,0.8c-0.7,0.2-1.4,0.4-2.2,0.6c-0.8,0.3-1.6,0.6-2.4,0.9
		c-3.3,1.2-6.9,3.1-10.8,5.7c-0.4-3.7-0.5-7.4-0.4-10.9c0.2-7.3,1.4-14,2.9-19.6c1.6-5.6,3.5-10.1,4.9-13.2c1.6-3,2.5-4.8,2.5-4.8
		s-1.4,1.4-3.7,4.1c-2.3,2.7-5.4,6.8-8.6,12.2c-3.1,5.5-6.3,12.4-8.5,20.4c-2.1,7.4-3.4,15.7-3.5,24.3c-1-2-1.9-3.9-3-5.9
		c-6.8-13.6-14.5-26.5-17.8-31.9c-0.5-5.3-1.1-10.2-1.9-14.6c-0.3-1.8-0.6-3.5-0.9-5.2c-0.4-1.6-0.8-3.2-1.1-4.6
		c-0.3-1.5-0.7-2.8-1-4.1c-0.3-1.3-0.7-2.4-1-3.4c-1.2-4.1-1.9-6.4-1.9-6.4s0.2,2.5,0.5,6.8c0.1,1.1,0.2,2.2,0.2,3.5
		s0.1,2.7,0.1,4.2s0.1,3,0.1,4.7s-0.1,3.4-0.2,5.2c-0.2,7.2-1.2,15.5-2.8,24.2c-1.5,7.8-3.7,15.7-6.4,23.5
		c-2.6-5.1-5.4-9.9-8.4-14.3c-3.8-5.5-7.6-10.4-11.3-14.3c-0.9-1-1.8-1.9-2.6-2.8c-0.9-0.9-1.7-1.7-2.5-2.4
		c-0.1-0.1-0.1-0.1-0.2-0.2c-0.2-7.5-0.8-14.3-1.3-20.3c-0.7-7.6-1.5-13.8-2.1-18.1s-0.9-6.8-0.9-6.8s-0.2,2.5-0.5,6.9
		c-0.4,4.4-0.9,10.7-1.7,18.2c-1.7,15-4.7,35.4-12,53.6c-1.8,4.5-3.8,8.9-6.1,13c-2.3,4.1-4.7,8-7.3,11.5c-2.6,3.6-5.4,6.9-8.2,9.7
		c0.7-3.8,1.4-7.8,2.3-11.7c1.4-6.1,3.1-12.1,4.9-17.7c1.9-5.6,3.7-10.8,5.6-15.1c0.9-2.2,1.8-4.2,2.6-5.9c0.8-1.8,1.5-3.3,2.1-4.5
		c1.2-2.5,1.9-3.9,1.9-3.9s-1.1,1.2-3.2,3.2c-1,1-2.2,2.3-3.6,3.8s-2.9,3.2-4.5,5.1c-3.3,3.8-6.9,8.4-10.7,13.5
		c-3.7,5.2-7.5,10.9-11.1,16.8c-2.3,3.9-4.4,7.8-6.5,11.8c-0.4-1.7-0.7-3.5-0.9-5.3c-0.3-4.1-0.3-8.2,0.1-12
		c0.5-3.8,1.2-7.4,2.3-10.3c0.2-0.7,0.5-1.5,0.7-2.1c0.3-0.6,0.5-1.3,0.8-1.8c0.5-1.2,0.9-2.2,1.4-3c0.8-1.6,1.3-2.5,1.3-2.5
		s-0.9,0.6-2.5,1.8c-0.9,0.6-1.8,1.3-2.8,2.3c-0.5,0.5-1.1,1-1.7,1.5c-0.6,0.6-1.2,1.2-1.8,1.8c-2.6,2.6-5.2,6-7.8,10.2
		c-1.2,2-2.3,4.2-3.4,6.5c-1-5.2-1.7-10.7-2.2-16.2c-0.5-6.8-0.6-13.6-0.3-19.9c0.4-6.4,1-12.3,1.9-17.4c0.2-1.3,0.4-2.5,0.6-3.6
		s0.5-2.2,0.7-3.3c0.4-2,0.8-3.8,1.2-5.3c0.8-2.9,1.2-4.6,1.2-4.6s-0.9,1.5-2.6,4.1c-0.9,1.3-1.8,3-2.8,4.9c-0.5,1-1.1,2-1.7,3.1
		c-0.5,1.1-1.1,2.3-1.7,3.5c-2.5,4.9-4.9,10.8-7.3,17.4c-0.8,0.6-1.6,1.3-2.4,1.9c-1,0.8-1.9,1.7-3,2.6c-4.3,3.7-8.8,8.5-13.6,13.9
		c-2.7,3.3-5.4,6.9-8,10.7c-0.2-2.6-0.3-5.3-0.4-7.9c0-6.3,0.2-12.5,0.8-18.4c0.7-5.9,1.4-11.3,2.5-16c0.4-2.3,0.9-4.4,1.4-6.3
		c0.5-1.9,0.9-3.5,1.3-4.8c0.8-2.7,1.2-4.2,1.2-4.2s-0.9,1.3-2.6,3.7c-0.8,1.2-1.8,2.7-2.9,4.4s-2.3,3.7-3.5,5.9
		c-2.6,4.4-5.2,9.7-7.8,15.6c-2.6,5.9-5,12.5-7.1,19.3c0,0.1,0,0.1-0.1,0.2c-0.1-0.1-0.1-0.2-0.2-0.3c0.2-1.5,0.4-3.1,0.7-4.6
		c1.4-8.2,3.1-16.4,5.1-23.9c2.1-7.5,4.2-14.6,6.3-20.5c1-3,2.1-5.7,3-8c0.9-2.4,1.8-4.5,2.5-6.1c1.5-3.4,2.3-5.3,2.3-5.3
		s-1.3,1.7-3.6,4.7c-1.2,1.5-2.5,3.3-4,5.5c-1.5,2.1-3.3,4.6-5,7.3c-3.7,5.4-7.6,12-11.6,19.2c-2.7,5.1-5.5,10.6-8.1,16.3
		c-3.4-3.7-6.7-7.1-10-10c-1.4-1.2-2.6-2.4-3.9-3.5c-0.2-0.2-0.5-0.4-0.7-0.5c0.1-1.4,0.2-2.7,0.4-3.9c0.2-2.6,0.5-4.9,0.8-7
		s0.5-3.9,0.8-5.4c0.5-3,0.8-4.7,0.8-4.7s-0.8,1.6-2.2,4.4c-0.7,1.4-1.5,3.1-2.4,5.1s-2,4.3-3,6.8c-0.1,0.2-0.2,0.5-0.3,0.8
		c-0.4-0.3-0.8-0.6-1.2-0.9c-1-0.8-2-1.4-2.9-2c-3.5-2.4-5.5-3.7-5.5-3.7s1.7,1.8,4.6,4.9c0.7,0.8,1.5,1.6,2.4,2.6
		c0.5,0.6,1,1.2,1.5,1.8c-1.7,4.3-3.3,9.1-5,14.4c-0.4,1.3-0.8,2.6-1.1,4c-2-8.4-4.3-16.6-6.9-24.3c-2.8-8.2-5.7-15.8-8.6-22.1
		c-1.4-3.2-2.7-6.1-3.9-8.6c-1.2-2.5-2.3-4.7-3.2-6.5c-1.9-3.6-2.9-5.6-2.9-5.6s0.6,2.3,1.6,6.2c0.5,2,1.1,4.4,1.7,7.1
		s1.3,5.8,1.9,9.2c0.8,4.2,1.5,8.9,2.2,13.8c-0.6,0.6-1.1,1.1-1.8,1.8c-0.8,0.8-1.7,1.7-2.6,2.6c-0.9,0.9-1.8,2-2.7,3
		c-3.9,4.2-7.9,9.6-12.1,15.6c-2.4,3.6-4.7,7.5-6.9,11.5c-0.7-2-1.4-4.1-2.2-6c-2.4-6.3-4.8-12.1-7.1-16.9c-1.1-2.4-2.2-4.6-3.2-6.6
		s-1.8-3.6-2.6-5c-1.5-2.8-2.3-4.3-2.3-4.3s0.4,1.8,1,4.9c0.3,1.5,0.7,3.4,1,5.6c0.4,2.2,0.8,4.6,1.1,7.3c0.8,5.3,1.4,11.5,1.8,18.1
		c0.4,6.6,0.5,13.6,0.4,20.5c-0.1,4.1-0.3,8.1-0.6,12c-0.2,0.5-0.4,1.1-0.5,1.6c-0.6,2.2-1.2,4.3-1.7,6.4c-0.2-2.3-0.4-4.7-0.7-7.1
		c-0.9-7.4-2.1-15.2-3.7-22.9c-1.6-7.7-3.6-15.4-5.6-22.4c-2.2-7.1-4.3-13.6-6.5-19.1c-1-2.8-2-5.3-3-7.4c-0.9-2.2-1.7-4.1-2.4-5.7
		c-1.4-3.1-2.2-4.9-2.2-4.9s0.3,2,0.9,5.4c0.3,1.7,0.6,3.8,0.9,6.2c0.3,2.4,0.6,5.1,0.9,8c0.6,5.8,1,12.7,1.2,19.9
		c0.1,7.2-0.1,14.9-0.6,22.4c-0.6,7.6-1.5,15-2.6,21.9C996,109,995,114,994,118.4c0.1-3.1,0.2-6.3,0.2-9.6
		c-0.1-7.2-0.6-14.8-1.5-22.4c-1-7.5-2.5-15-4.2-21.9c-1.8-6.9-3.7-13.2-5.8-18.5c-0.9-2.7-1.9-5.1-2.8-7.2c-0.9-2.1-1.7-4-2.4-5.4
		c-1.4-3-2.2-4.7-2.2-4.7s0.3,1.9,0.9,5.2c0.3,1.6,0.6,3.6,0.8,5.9c0.3,2.3,0.6,4.9,0.7,7.7c0.5,5.6,0.6,12.1,0.4,18.9
		c-0.3,6.9-1,14-2.1,21.1c-0.3,1.7-0.6,3.3-0.9,4.9c-0.1,3-0.3,6.1-0.7,9.1c-0.7,6.6-10.5,5.9-10.4-0.7v-0.1
		c0.2-5.9,0.8-11.9,1.6-17.6c0.9-5.6,2-11,3.2-15.5c0.6-2.3,1.2-4.4,1.8-6.2s1.1-3.5,1.6-4.8c1-2.6,1.5-4.2,1.5-4.2s-1,1.2-2.7,3.3
		c-0.9,1.1-1.9,2.4-3,3.9s-2.4,3.3-3.7,5.2c-2.7,3.9-5.5,8.6-8.3,13.7c-2.8,5.2-5.5,10.9-7.9,16.8c-0.4,1.1-0.9,2.2-1.3,3.4
		c-0.9-3.7-1.7-7.6-2.4-11.5c-1.1-7-1.8-14.2-2.1-21.1c-0.2-6.8-0.1-13.4,0.4-18.9c0.2-2.8,0.4-5.4,0.7-7.7s0.5-4.3,0.8-5.9
		c0.5-3.3,0.9-5.2,0.9-5.2s-0.8,1.7-2.2,4.7c-0.7,1.5-1.5,3.3-2.4,5.4c-0.9,2.1-1.9,4.5-2.8,7.2c-2,5.3-3.9,11.6-5.8,18.5
		c-1.7,6.9-3.1,14.3-4.2,21.9c-0.9,7.6-1.4,15.2-1.5,22.4c0,3.3,0.1,6.5,0.2,9.6c-1-4.5-2-9.5-2.9-14.8c-1.1-6.9-2-14.3-2.6-21.9
		c-0.5-7.6-0.7-15.2-0.6-22.4c0.2-7.2,0.5-14.1,1.2-19.9c0.3-2.9,0.6-5.6,0.9-8c0.3-2.4,0.6-4.5,0.9-6.2c0.6-3.4,0.9-5.4,0.9-5.4
		s-0.8,1.8-2.2,4.9c-0.7,1.6-1.5,3.5-2.4,5.7s-1.9,4.7-3,7.4c-2.1,5.5-4.3,12-6.5,19.1c-2.1,7.1-4,14.7-5.6,22.4s-2.8,15.6-3.7,22.9
		c-0.3,2.4-0.5,4.8-0.7,7.1c-0.5-2.1-1.1-4.2-1.7-6.4c-0.2-0.5-0.3-1.1-0.5-1.6c-0.3-3.9-0.5-7.9-0.6-12c-0.1-6.9,0-13.9,0.4-20.5
		c0.5-6.6,1.1-12.8,1.8-18.1c0.3-2.7,0.7-5.1,1.1-7.3c0.4-2.2,0.7-4.1,1-5.6c0.6-3.1,1-4.9,1-4.9s-0.8,1.6-2.3,4.3
		c-0.7,1.4-1.6,3.1-2.6,5s-2.1,4.1-3.2,6.6c-2.3,4.9-4.7,10.6-7.1,16.9c-0.7,2-1.4,4-2.2,6c-2.2-4.1-4.5-7.9-6.9-11.5
		c-4.2-6-8.2-11.4-12.1-15.6c-0.9-1.1-1.8-2.1-2.7-3s-1.8-1.8-2.6-2.6c-0.6-0.6-1.2-1.2-1.8-1.8c0.6-4.9,1.3-9.6,2.2-13.8
		c0.6-3.4,1.3-6.5,1.9-9.2c0.6-2.8,1.2-5.2,1.7-7.1c1-3.9,1.6-6.2,1.6-6.2s-1.1,2-2.9,5.6c-1,1.8-2,4-3.2,6.5s-2.6,5.4-3.9,8.6
		c-2.8,6.3-5.7,13.9-8.6,22.1c-2.5,7.6-4.9,15.9-6.9,24.3c-0.4-1.3-0.7-2.7-1.1-4c-1.6-5.3-3.3-10.1-5-14.4c0.5-0.6,1-1.2,1.5-1.8
		c0.8-1,1.7-1.8,2.4-2.6c2.9-3.1,4.6-4.9,4.6-4.9s-2,1.4-5.5,3.7c-0.9,0.6-1.9,1.2-2.9,2c-0.4,0.3-0.8,0.6-1.2,0.9
		c-0.1-0.3-0.2-0.5-0.3-0.8c-1-2.5-2-4.8-3-6.8c-0.9-2-1.7-3.7-2.4-5.1c-1.4-2.8-2.2-4.4-2.2-4.4s0.3,1.7,0.8,4.7
		c0.3,1.5,0.6,3.3,0.8,5.4c0.3,2.1,0.6,4.4,0.8,7c0.1,1.3,0.3,2.6,0.4,3.9c-0.2,0.2-0.4,0.4-0.7,0.5c-1.3,1.1-2.5,2.3-3.9,3.5
		c-3.3,2.8-6.6,6.2-10,10c-2.6-5.7-5.3-11.1-8.1-16.3c-4-7.3-7.9-13.8-11.6-19.2c-1.8-2.7-3.5-5.2-5-7.3s-2.9-4-4-5.5
		c-2.3-3-3.6-4.7-3.6-4.7s0.8,1.9,2.3,5.3c0.8,1.7,1.6,3.7,2.5,6.1c1,2.4,2,5.1,3,8c2.2,5.9,4.3,12.9,6.3,20.5s3.7,15.7,5.1,23.9
		c0.2,1.5,0.5,3.1,0.7,4.6c-0.1,0.1-0.1,0.2-0.2,0.3c0-0.1,0-0.1-0.1-0.2c-2.1-6.8-4.5-13.3-7.1-19.3c-2.7-5.9-5.3-11.2-7.8-15.6
		c-1.2-2.2-2.4-4.2-3.5-5.9s-2-3.2-2.9-4.4c-1.6-2.4-2.6-3.7-2.6-3.7s0.4,1.5,1.2,4.2c0.4,1.3,0.8,3,1.3,4.8c0.5,1.9,1,4,1.4,6.3
		c1,4.6,1.8,10.1,2.5,16c0.6,5.9,0.8,12.2,0.8,18.4c-0.1,2.7-0.2,5.3-0.4,7.9c-2.6-3.8-5.3-7.4-8-10.7c-4.7-5.5-9.3-10.3-13.6-13.9
		c-1.1-0.9-2-1.8-3-2.6c-0.8-0.7-1.6-1.3-2.4-1.9c-2.4-6.6-4.8-12.5-7.3-17.4c-0.6-1.2-1.2-2.4-1.7-3.5c-0.6-1.1-1.2-2.1-1.7-3.1
		c-1-1.9-2-3.6-2.8-4.9c-1.6-2.6-2.6-4.1-2.6-4.1s0.4,1.7,1.2,4.6c0.4,1.4,0.8,3.2,1.2,5.3c0.2,1,0.5,2.1,0.7,3.3s0.4,2.4,0.6,3.6
		c0.9,5.1,1.5,11,1.9,17.4c0.3,6.4,0.2,13.2-0.3,19.9c-0.5,5.5-1.3,11-2.2,16.2c-1.1-2.3-2.2-4.5-3.4-6.5c-2.6-4.1-5.2-7.6-7.8-10.2
		c-0.6-0.7-1.2-1.3-1.8-1.8s-1.2-1-1.7-1.5c-1.1-0.9-2-1.7-2.8-2.3c-1.6-1.1-2.5-1.8-2.5-1.8s0.5,0.9,1.3,2.5c0.5,0.8,0.9,1.8,1.4,3
		c0.2,0.6,0.5,1.2,0.8,1.8c0.2,0.7,0.4,1.4,0.7,2.1c1,2.9,1.7,6.5,2.3,10.3c0.4,3.9,0.4,8,0.1,12c-0.2,1.8-0.5,3.6-0.9,5.3
		c-2-4-4.2-7.9-6.5-11.8c-3.6-6-7.4-11.7-11.1-16.8c-3.8-5.1-7.4-9.7-10.7-13.5c-1.6-1.9-3.1-3.6-4.5-5.1s-2.5-2.8-3.6-3.8
		c-2-2-3.2-3.2-3.2-3.2s0.7,1.4,1.9,3.9c0.6,1.2,1.3,2.8,2.1,4.5c0.8,1.7,1.7,3.7,2.6,5.9c1.9,4.3,3.7,9.5,5.6,15.1
		c1.8,5.6,3.5,11.6,4.9,17.7c0.9,3.9,1.6,7.8,2.3,11.7c-2.8-2.8-5.5-6.1-8.2-9.7c-2.6-3.5-5-7.4-7.3-11.5c-2.2-4.1-4.3-8.5-6.1-13
		c-7.3-18.2-10.3-38.6-12-53.6c-0.8-7.5-1.3-13.8-1.7-18.2C674.2,4,674,1.5,674,1.5s-0.3,2.5-0.9,6.8c-0.6,4.3-1.3,10.5-2.1,18.1
		c-0.6,6-1.1,12.9-1.3,20.3c-0.1,0.1-0.1,0.1-0.2,0.2c-0.8,0.8-1.6,1.6-2.5,2.4c-0.8,0.9-1.7,1.8-2.6,2.8
		c-3.7,3.9-7.5,8.8-11.3,14.3c-3,4.4-5.8,9.3-8.4,14.3c-2.7-7.7-4.9-15.7-6.4-23.5c-1.5-8.6-2.6-17-2.8-24.2
		c-0.1-1.8-0.2-3.5-0.2-5.2s0.1-3.2,0.1-4.7s0.1-2.9,0.1-4.2c0-1.3,0.2-2.5,0.2-3.5c0.3-4.3,0.5-6.8,0.5-6.8s-0.7,2.3-1.9,6.4
		c-0.3,1-0.7,2.2-1,3.4c-0.3,1.3-0.6,2.6-1,4.1c-0.3,1.5-0.7,3-1.1,4.6c-0.3,1.6-0.6,3.4-0.9,5.2c-0.9,4.4-1.5,9.3-1.9,14.6
		c-3.2,5.3-10.9,18.3-17.8,31.9c-1,2-2,3.9-3,5.9c-0.1-8.6-1.4-16.9-3.5-24.3c-2.2-8-5.4-14.9-8.5-20.4c-3.2-5.5-6.4-9.5-8.6-12.2
		c-2.4-2.7-3.7-4.1-3.7-4.1s0.9,1.7,2.5,4.8c1.4,3.1,3.3,7.6,4.9,13.2c1.6,5.6,2.7,12.4,2.9,19.6c0.1,3.6,0,7.2-0.4,10.9
		c-3.9-2.5-7.5-4.5-10.8-5.7c-0.9-0.3-1.6-0.7-2.4-0.9c-0.8-0.2-1.5-0.4-2.2-0.6c-1.4-0.4-2.5-0.7-3.6-0.8c-1.9-0.3-3-0.5-3-0.5
		s0.8,0.6,2.3,1.7c0.7,0.5,1.6,1.2,2.5,2.1c0.5,0.4,1,0.9,1.5,1.3c0.5,0.5,1,1.1,1.5,1.6c2.2,2.2,4.3,5.2,6.4,8.4
		c1.7,3,3.3,6.3,4.5,9.7v0.1c-0.7,1.9-1.2,3.8-2.1,5.5c-1.3,3.4-6.5,13.3-4.9,10c4.9-10-3.4,5.9-5.2,8.8c-0.3-1.5-0.7-3-1.1-4.6
		c-1.9-7.3-4.4-14.8-7.2-22c-2.9-7.2-6.3-14.2-9.7-20.4c-3.6-6.2-7-11.7-10.3-16.2c-1.6-2.3-3.1-4.3-4.5-6c-1.4-1.8-2.6-3.3-3.6-4.5
		c-2.1-2.4-3.3-3.8-3.3-3.8s0.7,1.6,2,4.4c0.7,1.4,1.4,3.1,2.1,5.1c0.4,1,0.8,2.1,1.3,3.2c0.4,1.1,0.8,2.3,1.3,3.6
		c1.8,4.9,3.5,10.9,5,17.2c1.1,4.7,2,9.7,2.7,14.7c-2.5-3.2-4.8-6.1-7-8.4c-1.4-1.5-2.7-2.9-3.8-4c-1.1-1.2-2.2-2.2-3-3
		c-1.7-1.6-2.7-2.5-2.7-2.5s0.5,1.2,1.4,3.2c0.5,1,1,2.2,1.5,3.7c0.6,1.4,1.2,3,1.8,4.8c1.3,3.5,2.6,7.8,3.8,12.3
		c1.1,4.5,2.1,9.4,2.8,14.3c0.3,2.1,0.5,4.2,0.7,6.3c0,0.3,0,0.7,0,1c-0.3,4.8-6.9,5.9-9,1.6l0,0c-2.9-5.9-5.4-12.7-7.7-19.7
		c-2.2-7-4.1-14.2-5.7-21c-1.5-6.8-2.8-13.3-3.8-18.8c-2-11.1-3.1-18.5-3.1-18.5s-0.9,7.2-2.1,18.2c-0.6,5.5-1.1,12-1.6,19.1
		c-0.3,4.9-0.4,10-0.5,15.3c-1.4-3.4-2.7-7-3.9-10.8c-1.6-5.8-2.7-11.8-3.3-17.7c-0.4-5.8-0.5-11.5-0.1-16.4
		c0.1-1.2,0.2-2.4,0.3-3.5c0.2-1.1,0.3-2.2,0.5-3.2c0.3-2,0.6-3.8,0.9-5.2c0.6-2.9,1-4.6,1-4.6s-0.8,1.4-2.3,4
		c-0.8,1.2-1.6,2.8-2.5,4.6c-0.5,0.9-0.9,1.9-1.4,2.9s-0.9,2.1-1.4,3.3c-2,4.6-3.8,10.2-5.4,16.3c-1.5,6.1-2.5,12.8-3,19.5
		c-0.4,6.8-0.2,13.6,0.4,19.9c0.8,6.4,1.9,12.3,3.3,17.3c0.2,0.7,0.4,1.4,0.6,2c-0.8-1.9-1.6-3.9-2.4-5.9c-3.8-10-6.8-20.7-8.5-28.9
		c-0.9-4.1-1.5-7.6-1.9-10c-0.4-2.5-0.6-3.9-0.6-3.9s-0.3,1.3-0.8,3.7c-0.5,2.3-1.2,5.7-1.9,9.7c-1.3,7.5-2.5,17.5-2.9,27.7
		c-2.1-4.9-4.2-9.9-6.3-15C466.6,77.9,460.9,62,457,50c-2-6-3.5-11.1-4.6-14.6c-1.1-3.6-1.7-5.6-1.7-5.6s0.1,2.1,0.2,5.7
		c0.2,3.7,0.4,8.9,0.8,15.1c0.7,10.9,1.9,25.1,3.7,39.6c-2.3-4.1-4.6-7.8-6.9-10.9c-1.3-1.9-2.6-3.6-3.7-5c-1.1-1.5-2.1-2.7-3-3.7
		c-1.7-2-2.7-3.1-2.7-3.1s0.5,1.3,1.4,3.7c0.5,1.2,0.9,2.6,1.5,4.3c0.6,1.7,1.1,3.5,1.7,5.6c1.2,4.1,2.2,9,3,14.3
		c0.2,1.4,0.4,2.8,0.5,4.2c-0.8-3.2-1.7-6.4-2.7-9.5c-2.2-6.6-4.8-12.9-7.6-18.5c-2.9-5.6-5.8-10.5-8.6-14.5c-0.7-1-1.3-1.9-2-2.8
		c-0.7-0.9-1.3-1.7-1.9-2.5c-1.2-1.5-2.2-2.9-3.1-3.9c-1.8-2.1-2.8-3.2-2.8-3.2s0.6,1.4,1.5,3.9c0.5,1.2,1,2.7,1.6,4.5
		c0.3,0.9,0.6,1.8,0.9,2.8s0.6,2,0.9,3.1c1.3,4.3,2.3,9.5,3.2,15c0.7,5.3,1.2,10.9,1.2,16.5c-0.4-0.7-0.9-1.3-1.3-2
		c-6.2-9.4-13-18.2-18.2-24.5c-2.6-3.2-4.9-5.7-6.4-7.5c-1.6-1.8-2.5-2.8-2.5-2.8s1.8,4.8,4.1,12.2c2.3,7.3,5,17.2,7.1,27.2
		c0.9,4.2,1.8,9.7,1.8,14.8c0,5.4-7.2,7.2-9.6,2.3v-0.1c-1-2-2-4.1-3-6.2c-2.7-6-5.2-12.5-7.5-19.3c-2.2-6.8-4-13.8-5.5-20.4
		c-1.4-6.7-2.5-13.1-3-18.6c-0.4-2.8-0.6-5.3-0.7-7.6c-0.2-2.3-0.3-4.3-0.4-5.9c-0.1-3.3-0.2-5.2-0.2-5.2s-0.4,1.8-1.2,5
		c-0.4,1.6-0.8,3.5-1.2,5.7c-0.5,2.2-1,4.7-1.4,7.5C378,49,377.4,53.3,377,58c-0.5,0.5-0.9,1-1.5,1.6c-1.1,1.2-2.3,2.6-3.5,4.1
		c-2.6,3.1-5.3,6.8-8.1,11c-2,3.1-4.1,6.5-6,10c-1.6-3.8-3.2-7.7-4.8-11.6c-2.6-6.5-5.2-13.1-7.5-19.5c0-0.1,0.1-0.3,0.1-0.4
		c1.7-6.4,3.3-11.6,4.4-15.3s1.7-5.8,1.7-5.8s-1.1,1.9-3,5.1c-1.4,2.5-3.4,5.8-5.6,9.7c-2.2-6.2-4.2-12.1-5.9-17.2
		c-2-6-3.5-11.1-4.6-14.6c-1.1-3.6-1.7-5.6-1.7-5.6s0.1,2.1,0.2,5.7c0.2,3.7,0.4,8.9,0.8,15.1c0.6,9,1.5,20,2.8,31.7
		c-1.5,2.8-2.9,5.7-4.5,8.8c-3.1,6.5-6.3,13.5-9.1,20.8c-1.3-1.6-2.5-3.2-3.8-4.7c-5-5.8-10.3-11.2-15.4-15.9
		c-0.4-0.3-0.8-0.7-1.1-1c-0.5-0.7-1.1-1.7-1.6-2.4c-1.9-5.8-3.4-11.4-4.3-16.3c-0.5-2.4-0.9-4.5-1.1-6.5c-0.3-2-0.5-3.7-0.7-5.1
		c-0.3-2.9-0.5-4.5-0.5-4.5s-0.4,1.6-1,4.3c-0.3,1.4-0.6,3-1,5c-0.4,1.9-0.7,4.1-1,6.5c-0.4,2.8-0.7,5.9-0.9,9.3
		c-2.7-2.1-5.3-3.8-7.5-5.3c-1.8-1.2-3.4-2.2-4.8-3c-2.7-1.6-4.2-2.5-4.2-2.5s1.2,1.3,3.2,3.5c1,1.1,2.2,2.5,3.6,4.1
		s2.9,3.4,4.4,5.5c1.7,2.1,3.3,4.5,5.1,7c0,5.4,0.3,11.1,0.9,16.8c0.8,6.4,1.9,12.9,3.4,18.9c1.1,4.3,2.3,8.4,3.6,12.2h-1.1
		c-0.2-1.1-0.4-2.3-0.7-3.4c-1.3-6.2-3.2-12.7-5.4-18.8c-2.3-6.2-4.9-12.1-7.7-17.3c-2.9-5.2-5.7-9.9-8.4-13.7
		c-1.3-1.9-2.6-3.6-3.7-5c-1.1-1.5-2.1-2.7-3-3.7c0.3-1.4,0.7-2.8,1-4.1c0.5-2.1,1.1-4,1.5-5.5c0.9-3,1.5-4.8,1.5-4.8
		s-1,1.5-2.7,4.1c-0.9,1.3-1.9,2.9-3,4.7c-1.2,1.8-2.4,3.9-3.7,6.3c-2.7,4.6-5.5,10.2-8.2,16.4c-2,4.6-3.9,9.5-5.7,14.5
		c-4.9-7.4-10.1-14.3-14.6-20.1c1-3.4,2.1-6.8,3.3-10.1c2.6-6.8,5.3-13.2,8.2-18.4c0.7-1.3,1.4-2.6,2-3.8c0.7-1.2,1.4-2.3,2-3.4
		c1.2-2.1,2.4-4,3.4-5.4c2-3,3.1-4.7,3.1-4.7s-1.5,1.3-4.2,3.7c-1.4,1.1-2.9,2.6-4.6,4.4c-0.9,0.9-1.8,1.8-2.8,2.7
		c-0.9,1-1.9,2.1-3,3.2c-4.2,4.4-8.6,10-13.1,16.1c-1.1,1.6-2.3,3.3-3.4,5c-0.4-0.4-0.7-0.8-1-1.1c-1.6-1.8-2.5-2.8-2.5-2.8
		s0.9,2.3,2.1,6.1c-2.7,4.2-5.3,8.7-7.7,13.3c-1.1,2.2-2.1,4.4-3.2,6.6c-1.5-5.2-2.9-10.4-3.9-15.4c-1.4-6.7-2.5-13.1-3-18.6
		c-0.4-2.8-0.6-5.3-0.7-7.6c-0.2-2.3-0.3-4.3-0.4-5.9c-0.1-3.3-0.2-5.2-0.2-5.2s-0.4,1.8-1.2,5c-0.4,1.6-0.8,3.5-1.2,5.7
		c-0.5,2.2-1,4.7-1.4,7.5c-1,5.5-1.7,12-2.3,19c-0.2,3-0.4,6.1-0.5,9.3c-2.9-4.2-6-8.2-9-11.8c-1-1.2-2-2.4-3-3.5s-2-2.2-3-3.2
		c-0.9-1.1-1.9-2-2.9-3c-0.9-0.9-1.8-1.9-2.6-2.6c-1.6-1.4-3.2-2.4-4.4-2.9c-1.2-0.4-1.9-0.3-2.7-0.3c-0.7,0.1-1.3,0.3-1.6,0.5
		s-0.5,0.3-0.5,0.3s0.1,0,0.4,0.1c0.3,0.1,0.6,0.2,1.1,0.4c0.2,0.1,0.5,0.3,0.6,0.5c0.2,0.2,0.4,0.4,0.6,0.7
		c0.5,0.7,1.3,1.9,2.2,3.5c0.5,1,1,2,1.5,3c0.5,1.1,1.1,2.3,1.6,3.5s1.1,2.4,1.6,3.7s1.1,2.6,1.6,3.9c2.1,5.3,4.1,11.1,5.7,17
		c2.4,8.7,4.4,17.8,4.9,26.8c-7.7-10.2-13-23.3-22.2-33.5c3.7,8.6,6.3,17.7,7.7,26.9c0.9,5.6-1.1,13.8-7.8,14.9
		c-9.7,1.6-7-10.2-6.8-17.2c0.2-5.9,0.8-11.9,1.6-17.6c0.9-5.6,2-11,3.2-15.5c0.6-2.3,1.2-4.4,1.8-6.2s1.1-3.5,1.6-4.8
		c1-2.6,1.5-4.2,1.5-4.2s-1,1.2-2.7,3.3c-0.9,1.1-1.9,2.4-3,3.9s-2.4,3.3-3.7,5.2c-2.7,3.9-5.5,8.6-8.3,13.7
		c-2.8,5.2-5.5,10.9-7.9,16.8c-0.4,1.1-0.9,2.2-1.3,3.4c-0.9-3.7-1.7-7.6-2.4-11.5c-1.1-7-1.8-14.2-2.1-21.1
		c-0.2-6.8-0.1-13.4,0.4-18.9c0.2-2.8,0.4-5.4,0.7-7.7s0.5-4.3,0.8-5.9c0.5-3.3,0.9-5.2,0.9-5.2s-0.8,1.7-2.2,4.7
		c-0.7,1.5-1.5,3.3-2.4,5.4c-0.9,2.1-1.9,4.5-2.8,7.2c-2,5.3-3.9,11.6-5.8,18.5c-1.7,6.9-3.1,14.3-4.2,21.9
		c-0.9,7.6-1.4,15.2-1.5,22.4c0,3.3,0.1,6.5,0.2,9.6c-1-4.5-2-9.5-2.9-14.8c-1.1-6.9-2-14.3-2.6-21.9c-0.5-7.6-0.7-15.2-0.6-22.4
		c0.2-7.2,0.5-14.1,1.2-19.9c0.3-2.9,0.6-5.6,0.9-8s0.6-4.5,0.9-6.2c0.6-3.4,0.9-5.4,0.9-5.4s-0.8,1.8-2.2,4.9
		c-0.7,1.6-1.5,3.5-2.4,5.7s-1.9,4.7-3,7.4c-2.1,5.5-4.3,12-6.5,19.1c-2.1,7.1-4,14.7-5.6,22.4s-2.8,15.6-3.7,22.9
		c-0.3,2.4-0.5,4.8-0.7,7.1c-0.5-2.1-1.1-4.2-1.7-6.4c-0.2-0.5-0.3-1.1-0.5-1.6c-0.3-3.9-0.5-7.9-0.6-12c-0.1-6.9,0-13.9,0.4-20.5
		c0.5-6.6,1.1-12.8,1.8-18.1c0.3-2.7,0.7-5.1,1.1-7.3s0.7-4.1,1-5.6c0.6-3.1,1-4.9,1-4.9s-0.8,1.6-2.3,4.3c-0.7,1.4-1.6,3.1-2.6,5
		s-2.1,4.1-3.2,6.6c-2.3,4.9-4.7,10.6-7.1,16.9c-0.7,2-1.4,4-2.2,6c-2.2-4.1-4.5-7.9-6.9-11.5c-4.2-6-8.2-11.4-12.1-15.6
		c-0.9-1.1-1.8-2.1-2.7-3s-1.8-1.8-2.6-2.6c-0.6-0.6-1.2-1.2-1.8-1.8c0.6-4.9,1.3-9.6,2.2-13.8c0.6-3.4,1.3-6.5,1.9-9.2
		c0.6-2.8,1.2-5.2,1.7-7.1c1-3.9,1.6-6.2,1.6-6.2s0,2.1-1.9,5.7c-1,1.8-2,4-3.2,6.5s-2.6,5.4-3.9,8.6c-2.8,6.3-5.7,13.9-8.6,22.1
		c-2.5,7.6-4.9,15.9-6.9,24.3c-0.4-1.3-0.7-2.7-1.1-4c-2.1-6.7-4.2-12.7-6.3-17.8c-1-2.5-2-4.8-3-6.8c-0.9-2-1.7-3.7-2.4-5.1
		c-1.4-2.8-2.2-4.4-2.2-4.4s0.3,1.7,0.8,4.7c0.3,1.5,0.6,3.3,0.8,5.4c0.3,2.1,0.6,4.4,0.8,7c0.6,5.1,0.8,11.2,0.9,17.6
		c0,6.5-0.3,13.3-1,20.1c-0.5,4.3-1.1,8.5-1.8,12.7c0,0,0,0,0-0.1c-2.5-8.2-5.6-16.8-9-25.1C10.4,63,6.5,55,2.6,47.7
		c-0.9-1.5-1.7-3-2.5-4.5V96c0.1,1,0.2,2.1,0.2,3.1C0.4,102.2,0.4,121.3,0.4,141.9z M1851.5,83.5c1.3-7,3-13.9,5-20.2
		c2.2-6.3,4.4-12.2,6.8-17c0.6-1.2,1.1-2.4,1.7-3.5c0.5-0.9,0.9-1.6,1.3-2.4c0.2,1.7,0.4,3.5,0.6,5.3c0.8,8.5,1.2,17.4,1.1,26.3
		s-0.7,17.7-1.6,25.8c-0.6,5.2-2.3,14.4-5.6,18.1c-2.3,2.6-5.5,2.3-9.6-4.3C1846.4,103.9,1850.1,91.3,1851.5,83.5z M1689.2,92.1
		c0.7-3.2,1.4-6.4,2.1-9.5c1.1,6.1,1.8,12.2,2.1,17.9c0.2,5.9,0.2,11.2-0.1,16c-0.3,0.5-0.5,0.9-0.8,1.4h-7.4
		C1685.9,110.6,1687.3,101.3,1689.2,92.1z M1649,80.6c0.9-5.2,1.8-10.1,3-14.3c0.5-2.1,1.1-4,1.7-5.6c0.3-0.8,0.5-1.6,0.8-2.3
		c0,0.2,0.1,0.3,0.1,0.5c1.2,5.2,2.2,11.3,3,17.8c0.7,6.5,1.2,13.4,1.2,20.1c0,5.6-0.3,11.1-0.8,16.3c-2.5,4.8-4.5,5.6-5.9,4.4
		c-3.4-2.9-4.5-17-4.4-20.4C1647.8,91.5,1648.2,85.9,1649,80.6z M1582.2,86.4c0.8,4.7,1.6,9.4,2.1,14.1c0.2,1.6,0.3,3.1,0.4,4.7
		c0.4,4.4-0.7,8.7-2.8,12.6c0,0,0,0,0,0.1h-5.2C1578.6,108.7,1580.5,97.8,1582.2,86.4z M1542.3,112c0.2-1.1,0.3-2.3,0.5-3.5
		c0.9-7,1.4-14.6,1.7-22.1c0.1-6.6,0-13.1-0.4-19.3c1.2,3.8,2.3,8.3,3.2,13.1c0.8,4.8,1.4,9.9,1.7,14.9c0.2,5,0.1,9.9-0.2,14.4
		c-0.3,2.9-0.6,5.6-1,8.1c-0.1,0.1-0.2,0.2-0.3,0.3C1544.2,117.9,1541.9,115.1,1542.3,112z M1291.2,86.5c0.9-7.7,1.4-15.3,1.5-22.7
		c0.6,6.5,1.3,14.1,1.6,21.6c0.5,10.1,0.6,20.1,0.5,27.5c0,1.8-0.1,3.5-0.1,5c-3.9,0-7.2-2.7-8-6.4c-0.1-0.4-0.2-0.8-0.3-1.2
		C1288.4,102.6,1290.1,94.6,1291.2,86.5z M1250.9,53.3c0.3,0.7,0.7,1.5,1.1,2.2c2.3,4.7,4.4,10.4,6.3,16.4c1.8,6.1,3.1,12.6,3.9,19
		c0.7,6.2,0.8,12.2,0.6,17.8c-0.4,0.6-0.8,1.3-1.2,1.9c-0.3-1.3-0.6-2.7-1-4c-3-10.3-7.7-19.1-11.5-25.5
		C1250.5,71.5,1250.9,62.1,1250.9,53.3z M1239.4,114.9c2.1-4.7,3.9-9.8,5.4-14.9c0,3.4-0.1,6.8-0.6,10.1c-0.4,2.7-0.9,5.3-1.7,7.7
		h-4.5C1238.5,116.9,1238.9,115.9,1239.4,114.9z M1146.6,102c1.9-6.7,4.2-13.3,6.9-19.3c2-4.3,4-8.4,6.1-12c-0.9,3.3-1.7,6.6-2.4,10
		c-1.5,7.5-2.5,15.2-3,22.6c-0.1,1.4-0.1,2.8-0.2,4.2c-0.2,5.7-4.9,10.3-10.6,10.3C1144.2,112.7,1145.2,107.3,1146.6,102z
		 M1091.5,56.1c0.4,0.6,0.8,1.1,1.2,1.7c3.3,4.5,6.5,9.9,9.6,15.7c-3.1,7.7-5.9,15.5-8.2,23c0,0,0,0,0,0.1
		c-0.7-4.1-1.3-8.4-1.8-12.7c-0.7-6.8-1-13.7-1-20.1C1091.3,61.2,1091.4,58.6,1091.5,56.1z M1047.2,83.5c1.3-7,3-13.9,5-20.2
		c2.2-6.3,4.4-12.2,6.8-17c0.6-1.2,1.1-2.4,1.7-3.5c0.5-0.9,0.9-1.6,1.3-2.4c0.2,1.7,0.4,3.5,0.6,5.3c0.8,8.5,1.2,17.4,1.1,26.3
		s-0.7,17.7-1.6,25.8c-0.3,2.8-0.7,5.5-1.1,8.1c-1,6.9-7,12-14,12c-0.5-3.3-1.1-6.8-1.8-10.5c0-1.1,0-2.1,0-3.2
		C1045.4,97.5,1046.1,90.5,1047.2,83.5z M858.7,45.7c0.2-1.8,0.4-3.5,0.6-5.3c0.4,0.8,0.9,1.6,1.3,2.4c0.5,1.1,1.1,2.3,1.7,3.5
		c2.4,4.8,4.6,10.7,6.8,17c2,6.4,3.7,13.3,5,20.2c1.1,7,1.8,14,2,20.6c0,1.1,0,2.2,0,3.2c-0.7,3.7-1.3,7.2-1.8,10.5
		c-7,0-13-5.1-14-12c-0.4-2.6-0.8-5.3-1.1-8.1c-0.9-8.1-1.5-16.9-1.6-25.8C857.6,63.1,858,54.1,858.7,45.7z M828.6,57.8
		c0.4-0.6,0.8-1.2,1.2-1.7c0.1,2.5,0.2,5.1,0.2,7.7c0,6.5-0.3,13.3-1,20.1c-0.5,4.3-1.1,8.5-1.8,12.7c0,0,0,0,0-0.1
		c-2.3-7.5-5.1-15.3-8.2-23C822.1,67.7,825.3,62.3,828.6,57.8z M767.9,82.8c2.6,6,5,12.6,6.9,19.3c1.4,5.3,2.4,10.6,3.2,15.8
		c-5.7,0-10.4-4.6-10.6-10.3c0-1.4-0.1-2.8-0.2-4.2c-0.5-7.4-1.5-15.1-3-22.6c-0.7-3.4-1.5-6.7-2.4-10
		C763.8,74.4,765.9,78.5,767.9,82.8z M681.9,114.9c0.4,1,0.9,2,1.3,2.9h-4.5c-0.7-2.4-1.3-5-1.7-7.7c-0.5-3.3-0.6-6.8-0.6-10.1
		C678.1,105.2,679.8,110.2,681.9,114.9z M659.2,90.9c0.8-6.4,2.1-12.9,3.9-19c1.9-6,4-11.7,6.3-16.4c0.4-0.8,0.7-1.5,1.1-2.2
		c0,8.8,0.5,18.3,1.9,27.9c-3.8,6.4-8.5,15.2-11.5,25.5c-0.4,1.3-0.7,2.6-1,4c-0.4-0.6-0.8-1.3-1.2-1.9
		C658.3,103.1,658.5,97.1,659.2,90.9z M627,85.3c0.3-7.5,0.9-15,1.6-21.6c0.1,7.4,0.5,15.1,1.5,22.7c1.1,8.1,2.8,16.1,4.8,23.7
		c-0.1,0.4-0.2,0.8-0.3,1.2c-0.9,3.8-4.2,6.4-8,6.4c0-1.5-0.1-3.2-0.1-5C626.4,105.4,626.5,95.4,627,85.3z M372.4,95.1
		c0.3-5,0.9-10.1,1.7-14.9c0.9-4.7,2-9.3,3.2-13.1c-0.4,6.2-0.5,12.7-0.4,19.3c0.2,7.5,0.8,15,1.7,22.1c0.2,1.2,0.3,2.3,0.5,3.5
		c0.5,3.1-1.9,5.8-5,5.8c-0.1-0.1-0.2-0.2-0.3-0.3c-0.4-2.5-0.7-5.2-1-8.1C372.3,105,372.2,100.1,372.4,95.1z M336.5,105.2
		c0.1-1.5,0.3-3.1,0.4-4.7c0.5-4.7,1.3-9.5,2.1-14.1c1.7,11.4,3.6,22.3,5.4,31.4h-5.2c0,0,0,0,0-0.1
		C337.2,113.9,336.2,109.6,336.5,105.2z M263.7,76.7c0.8-6.4,1.8-12.6,3-17.8c0-0.2,0.1-0.3,0.1-0.5c0.2,0.7,0.5,1.5,0.8,2.3
		c0.6,1.7,1.1,3.5,1.7,5.6c1.2,4.1,2.2,9,3,14.3s1.2,10.9,1.4,16.5c0,3.4-1,17.5-4.4,20.4c-1.5,1.3-3.4,0.4-5.9-4.4
		c-0.5-5.2-0.8-10.7-0.8-16.3C262.6,90,263,83.2,263.7,76.7z M227.9,100.5c0.3-5.7,1-11.7,2.1-17.9c0.8,3.1,1.5,6.3,2.2,9.5
		c1.9,9.2,3.3,18.4,4.1,25.7h-7.4c-0.3-0.5-0.5-0.9-0.8-1.4C227.7,111.7,227.6,106.4,227.9,100.5z M54.4,45.7
		c0.2-1.8,0.4-3.5,0.6-5.3c0.4,0.8,0.9,1.6,1.3,2.4c0.5,1.1,1.1,2.3,1.7,3.5c2.4,4.8,4.6,10.7,6.8,17c2,6.4,3.7,13.3,5,20.2
		c1.4,7.8,5.2,20.3,0.3,28c-4.2,6.6-7.3,6.8-9.6,4.3c-3.3-3.6-4.9-12.9-5.6-18.1C54,89.6,53.5,80.8,53.3,72
		C53.3,63.1,53.7,54.1,54.4,45.7z"/>
</g>
</svg>
