<?xml version="1.0" encoding="utf-8"?>
<!-- Generator: Adobe Illustrator 21.0.2, SVG Export Plug-In . SVG Version: 6.00 Build 0)  -->
<svg version="1.1" id="Layer_1" xmlns="http://www.w3.org/2000/svg" xmlns:xlink="http://www.w3.org/1999/xlink" x="0px" y="0px"
	 viewBox="0 0 1920 228.6" style="enable-background:new 0 0 1920 228.6;" xml:space="preserve">
<style type="text/css">
	.st0{fill:#1A78C5;}
	.st1{fill:#F4F4F4;}
</style>
<rect y="0" class="st0" width="1920" height="228.6"/>
<g>
	<path class="st1" d="M1920,228.6v-12.4c-22.3-48.2-71.1-81.6-127.7-81.6c-13.8,0-27.2,2-39.8,5.7
		c-20.5-64.9-81.1-111.9-152.8-111.9c-55.3,0-104.1,28-132.9,70.7c-10.9-6.5-23.7-10.3-37.4-10.3c-22.2,0-42,9.9-55.4,25.5
		c-27.6-50.6-81.4-84.9-143.1-84.7c-31.2,0.1-60.3,9-85,24.3C1091.8,20.1,1022.1-0.2,946.1,0c-64.5,0.2-124.4,15.2-174,40.7
		c-22.4-11.5-47.8-18-74.7-17.9C640,22.9,589.8,52.9,561,97.8c-0.8,0.2-1.6,0.5-2.3,0.8C533.2,51.4,483.4,19.3,426,19.3
		c-39.6,0-75.6,15.3-102.4,40.2C309,53.4,293,50,276.2,50c-47.2,0-88.1,26.8-108.4,66.1c-6.5-2.3-13.5-3.6-20.8-3.6
		c-26.9,0-49.7,17.2-58.2,41.3C49.5,163.3,17.1,190.3,0,226v2.6H1920z"/>
</g>
</svg>
