<?xml version="1.0" encoding="utf-8"?>
<!-- Generator: Adobe Illustrator 21.0.2, SVG Export Plug-In . SVG Version: 6.00 Build 0)  -->
<svg version="1.1" id="Layer_1" xmlns="http://www.w3.org/2000/svg" xmlns:xlink="http://www.w3.org/1999/xlink" x="0px" y="0px"
	 viewBox="0 0 79.4 178.5" style="enable-background:new 0 0 79.4 178.5;" xml:space="preserve">
<style type="text/css">
	.st0{fill:#9A4A25;}
	.st1{fill:#8D3D18;}
	.st2{fill:#CED0D1;}
	.st3{fill:#C1C3C4;}
	.st4{fill:#E38626;}
	.st5{fill:#F39728;}
	.st6{fill-rule:evenodd;clip-rule:evenodd;fill:#523422;}
</style>
<g>
	<g>
		<g>
			<rect x="21.5" y="3" transform="matrix(0.9591 -0.283 0.283 0.9591 -15.4593 9.0397)" class="st0" width="4.2" height="110"/>
			
				<rect x="16.8" y="4.3" transform="matrix(0.9591 -0.2829 0.2829 0.9591 -15.9932 7.8729)" class="st1" width="4.8" height="110"/>
			<path class="st2" d="M53.6,167.5c14.3-4.2,22.4-19.2,18.2-33.5L61.5,99l-26,7.7l18,60.9C53.5,167.6,53.5,167.5,53.6,167.5z"/>
			<path class="st3" d="M20.2,149.3c4.2,14.2,19,22.3,33.2,18.3l-18-60.9l-25.6,7.6L20.2,149.3z"/>
			<rect x="1.7" y="1.6" transform="matrix(0.9591 -0.283 0.283 0.9591 -2.059 1.4775)" class="st4" width="4.8" height="12.5"/>
			<rect x="6.3" y="0.3" transform="matrix(0.9591 -0.2831 0.2831 0.9591 -1.5245 2.645)" class="st5" width="4.2" height="12.5"/>
		</g>
	</g>
	<path class="st6" d="M41,157.5c0.5-0.1,1-0.2,1.5-0.3c-0.3-0.5-0.6-1-0.8-1.6c-1.2-3.5,0.7-7.4,4.2-8.5c3.5-1.2,7.2,0.7,8.5,4.1
		c0.3-0.2,0.7-0.4,1.1-0.5c2.5-0.9,5.3,0.5,6.2,3c0,0.1,0.1,0.3,0.1,0.4c0.6-0.5,1.3-0.9,2.1-1.1c0.1,0,0.2-0.1,0.4-0.1
		c-0.4-0.2-0.6-0.6-0.8-1c-0.4-1.1,0.2-2.2,1.3-2.6c1.1-0.4,2.2,0.2,2.6,1.3c0.3,0.8,0,1.6-0.5,2.1c1.9,0.2,3.7,1.1,4.9,2.6
		c0.4-0.2,0.7-0.4,1.2-0.6c2.6-0.9,5.4,0.5,6.3,3.1c0.9,2.6-0.5,5.4-3.1,6.3c-1.3,0.5-2.7,0.3-3.9-0.3c-0.9,1.3-2.1,2.3-3.7,2.9
		c-1.4,0.5-2.8,0.5-4.1,0.2c-0.9,2.8-3.1,5.2-6.2,6.2c-2.4,0.8-4.9,0.6-7-0.3c-1.1,1.4-2.6,2.5-4.4,3.1c-3.3,1.1-6.8,0.3-9.3-1.8
		c-0.2,1.9-1.5,3.6-3.4,4.2c-2.6,0.9-5.4-0.5-6.3-3.1c-0.9-2.6,0.5-5.4,3.1-6.3c0.3-0.1,0.6-0.2,0.9-0.2c-0.2-1,0.4-1.9,1.4-2.3
		c0.3-0.1,0.6-0.1,0.9-0.1c0.1-2.6,1.3-5,3.3-6.7c-0.1-0.2-0.2-0.3-0.3-0.5c-0.4-1.1,0.2-2.2,1.3-2.6C39.5,156,40.6,156.5,41,157.5z
		"/>
</g>
</svg>
