<?xml version="1.0" encoding="utf-8"?>
<!-- Generator: Adobe Illustrator 21.0.2, SVG Export Plug-In . SVG Version: 6.00 Build 0)  -->
<svg version="1.1" id="Layer_1" xmlns="http://www.w3.org/2000/svg" xmlns:xlink="http://www.w3.org/1999/xlink" x="0px" y="0px"
	 viewBox="0 0 102.1 34.1" style="enable-background:new 0 0 102.1 34.1;" xml:space="preserve">
<style type="text/css">
	.st0{fill:#FFFFFF;}
</style>
<g>
	<g>
		<path class="st0" d="M25.2,9.5V7.2c1.6-0.1,3-0.2,4.2-0.2c1.2,0,2.3,0.1,3.1,0.2C33.3,7.4,34,7.7,34.8,8c0.7,0.3,1.3,0.8,1.8,1.3
			c1,1.1,1.5,2.7,1.5,4.6v15h-2.8v-15c0-3-2-4.4-6-4.4C28.2,9.4,26.8,9.4,25.2,9.5z"/>
		<path class="st0" d="M40.8,21.6V7.4h2.8v11.4l-2.2,2.8C41.4,21.6,40.8,21.6,40.8,21.6z"/>
		<path class="st0" d="M45,29.7l-0.1-2.1l6.5-1L46.3,7.4l2.8,1.3l2.2,9.1c0.3,1.3,1,4.1,2,8.3c3.5-1.3,5.4-4.4,5.9-9.3L60,7.4
			l2.8,0.1L62,16.7c-0.1,1.4-0.3,2.6-0.6,3.7c-0.3,1-0.6,1.9-1,2.5c-0.3,0.6-0.8,1.3-1.3,2c-0.6,0.7-1.2,1.3-1.9,1.8s-1.6,1-2.7,1.4
			c-1.1,0.4-2.2,0.7-3.5,0.9L45,29.7z"/>
		<path class="st0" d="M64.1,28.8v-2.1h10.5V13.8c0-1.7-0.4-2.9-1.2-3.5c-0.8-0.6-2-0.9-3.6-0.9c-1.7,0-3.4,0.1-4.9,0.2l-0.8,0.1
			V7.3C65.8,7.1,67.9,7,70.3,7s4.2,0.5,5.3,1.6c1.1,1,1.7,2.8,1.7,5.3v12.8h2.4v2.1C79.7,28.8,64.1,28.8,64.1,28.8z"/>
		<path class="st0" d="M86.1,7.4h2.8c0.1,0.2,0.2,0.5,0.3,0.9c0.1,0.4,0.3,1.1,0.5,2.3s0.3,2.2,0.3,3.3v20.2h-2.8V13.9
			C87.3,11.7,86.9,9.5,86.1,7.4z"/>
		<path class="st0" d="M91.5,29l0.4-2.5c0.5,0.1,1.2,0.2,2.3,0.2c0.8,0,1.6-0.3,2.5-1c1-0.8,1.8-1.8,2.2-3.2
			c0.3-0.8,0.4-1.6,0.4-2.5v-7c0-1.3-0.3-2.3-0.9-2.9c-0.5-0.5-1.4-0.8-2.5-0.8c-0.6,0-1.3,0.1-2,0.3V7.4c0.9-0.2,1.9-0.4,3-0.4
			c3.5,0,5.2,1.9,5.2,5.7v16.1h-2.2l-0.3-3.6h-0.1c-0.1,0.1-0.2,0.4-0.4,0.7c-0.2,0.3-0.4,0.6-0.6,0.9s-0.5,0.5-0.8,0.8
			s-0.7,0.6-1,0.8c-0.3,0.2-0.8,0.4-1.2,0.6c-0.5,0.1-1,0.2-1.5,0.2C92.8,29.2,92.1,29.1,91.5,29z"/>
	</g>
	<g>
		<g id="XMLID_13_">
			<polygon id="XMLID_23_" class="st0" points="21.5,13.5 20.8,14.3 12.1,8 12.8,7.1 			"/>
			<polygon id="XMLID_22_" class="st0" points="12.8,7.1 13.5,8 4.7,14.3 4,13.4 			"/>
			<path id="XMLID_16_" class="st0" d="M19.3,19.6v-5.3L12.8,10l-6.5,4.3v4.9l-3.8,3.1v6.6H11v-5.1h3.8v5.1H23v-6.6L19.3,19.6z
				 M9.2,25.8H4.8v-2h4.3L9.2,25.8L9.2,25.8z M11.9,18H7.5v-3.1h4.4V18z M13.3,14.9h4.4V18h-4.4C13.3,18,13.3,14.9,13.3,14.9z
				 M21.1,25.8h-4.3v-2h4.3C21.1,23.8,21.1,25.8,21.1,25.8z"/>
			<path id="XMLID_15_" class="st0" d="M20.4,17.5v1.4c0,0,4.3,3.4,4.5,3.3c0.1-0.1,0.7-1,0.7-1L20.4,17.5z"/>
			<path id="XMLID_14_" class="st0" d="M5.1,17.5v1.4c0,0-4.3,3.4-4.5,3.3c-0.1-0.1-0.7-1-0.7-1L5.1,17.5z"/>
		</g>
		<g>
			<g>
				<g>
					<path class="st0" d="M13,6.7c0,0-0.3-1.6,0.2-2.7s2.3-1.6,2.5-1.9c0,0,0.1,2.4-0.4,3.1c-0.4,0.6-1.3,1.6-1.9,1.6
						c0,0,1.1-1.7,1.1-2.5C14.5,4.2,13.5,6.5,13,6.7z"/>
				</g>
				<path class="st0" d="M12.3,6.8c0,0-6.5-1.1-5.3-6.8c0,0,0.7,0.4,2.2,1s3.6,1.6,3.5,5.6c0,0.4-1.9-3.8-3.6-4.4
					C9,2.2,12.4,6.4,12.3,6.8z"/>
			</g>
		</g>
	</g>
</g>
</svg>
