<?xml version="1.0" encoding="utf-8"?>
<!-- Generator: Adobe Illustrator 21.0.2, SVG Export Plug-In . SVG Version: 6.00 Build 0)  -->
<svg version="1.1" id="Layer_1" xmlns="http://www.w3.org/2000/svg" xmlns:xlink="http://www.w3.org/1999/xlink" x="0px" y="0px"
	 viewBox="0 0 130 130" style="enable-background:new 0 0 130 130;" xml:space="preserve">
<style type="text/css">
	.st0{fill:#FFFFFF;}
	.st1{fill:#208588;}
</style>
<g>
	<circle class="st0" cx="65" cy="65" r="65"/>
	<g>
		<g>
			<path class="st1" d="M111.7,63.6L87.6,39.4c-0.8-0.8-2.1-0.8-2.8,0l-5.2,5.2c-0.8,0.8-0.8,2,0,2.8L97,65L79.5,82.5
				c-0.8,0.8-0.8,2,0,2.8l5.2,5.2c0.4,0.4,0.9,0.6,1.4,0.6c0.5,0,1-0.2,1.4-0.6l24.1-24.1C112.5,65.6,112.5,64.4,111.7,63.6z"/>
			<path class="st1" d="M50.5,82.5L33,65l17.5-17.5c0.4-0.4,0.6-0.9,0.6-1.4c0-0.5-0.2-1-0.6-1.4l-5.2-5.2c-0.4-0.4-0.9-0.6-1.4-0.6
				c-0.5,0-1,0.2-1.4,0.6L18.3,63.6c-0.8,0.8-0.8,2,0,2.8l24.1,24.1c0.4,0.4,0.9,0.6,1.4,0.6s1-0.2,1.4-0.6l5.2-5.2
				C51.3,84.5,51.3,83.3,50.5,82.5z"/>
			<path class="st1" d="M78.7,31.3c-0.3-0.5-0.7-0.8-1.2-1l-4.2-1.3c-1.1-0.3-2.2,0.3-2.5,1.4L51.1,97.1c-0.2,0.5-0.1,1.1,0.2,1.5
				c0.3,0.5,0.7,0.8,1.2,1l4.2,1.3c0.2,0.1,0.4,0.1,0.6,0.1c0.9,0,1.7-0.6,1.9-1.4l19.7-66.7C79,32.3,79,31.8,78.7,31.3z"/>
		</g>
	</g>
</g>
</svg>
