<?xml version="1.0" encoding="utf-8"?>
<!-- Generator: Adobe Illustrator 21.0.2, SVG Export Plug-In . SVG Version: 6.00 Build 0)  -->
<svg version="1.1" id="Layer_1" xmlns="http://www.w3.org/2000/svg" xmlns:xlink="http://www.w3.org/1999/xlink" x="0px" y="0px"
	 viewBox="0 0 111 85" style="enable-background:new 0 0 111 85;" xml:space="preserve">
<style type="text/css">
	.st0{fill:#34969B;}
</style>
<g>
	<path class="st0" d="M46.8,31.8c0,8.9,0,17.7,0,26.6c0,2.9-1.6,4.5-4.4,4.5c-1.9,0-3.8,0-5.8,0c-2.5,0-4.1-1.6-4.2-4.1
		c0-2.9,0-5.7,0-8.6c0-0.9,0-1.9,0-2.8c-0.1-1.6-1-2.6-2.6-2.6c-4,0-7.9,0-11.9,0c-1.7,0-2.6,1-2.6,2.7c0,2.8,0,5.5,0,8.3
		c0,7.9-0.1,15.7,0,23.6c0,3-1.5,5.2-4.9,4.9c-1.7-0.1-3.5,0-5.3,0c-2.6,0-4.2-1.6-4.2-4.3c0-13.5,0-27,0-40.5c0-4.3,0-8.6,0-13
		c0-2.8,1.5-4.4,4.3-4.4c1.9,0,3.9,0,5.8,0c2.6,0,4.2,1.6,4.2,4.2c0,1.6,0,3.1,0,4.7c0,2.1,0.9,3,3,3c3.7,0,7.3,0,11,0
		c2.2,0,3.1-0.9,3.1-3.1c0-8.5,0-17.1,0-25.6c0-1,0.1-2,0.7-2.9c0.7-1,1.7-1.6,2.9-1.6c2.3,0,4.5-0.1,6.8,0c2.4,0.1,3.9,1.7,3.9,4.2
		c0,8.3,0,16.5,0,24.8C46.8,30.5,46.8,31.2,46.8,31.8z"/>
	<path class="st0" d="M68.5,53.1c0,8.8,0,17.7,0,26.5c0,3.1-1.5,4.5-4.5,4.5c-1.9,0-3.8,0-5.8,0c-2.4,0-4-1.6-4-4
		c0-18,0-36.1,0-54.1c0-2.3,1.6-3.9,3.9-4c2.1,0,4.2,0,6.3,0c2.5,0,4,1.6,4,4.1C68.5,35.2,68.5,44.2,68.5,53.1z"/>
	<path class="st0" d="M92.8,22.1c4.3,0,8.6,0,12.9,0c2.9,0,4.4,1.4,4.4,4.4c0,2,0,4,0,5.9c0,2.4-1.6,4-4,4c-1,0-2.1,0-3.1,0
		c-2,0-3,1.1-3,3c0,6.3,0,12.7,0,19c0,3-1.5,4.5-4.5,4.5c-1.9,0-3.9,0-5.8,0c-2.3,0-4-1.6-4-4c0-6.4,0-12.9,0-19.3
		c0-2.2-1-3.2-3.2-3.2c-1,0-2.1,0-3.1,0c-2.1,0-3.8-1.6-3.8-3.8c0-2.2,0-4.4,0-6.6c0-2.3,1.6-3.9,4-3.9
		C83.9,22.1,88.3,22.1,92.8,22.1C92.8,22.1,92.8,22.1,92.8,22.1z"/>
	<path class="st0" d="M39.5,84.2c-1,0-2.1,0-3.1,0c-2.2,0-3.9-1.6-3.9-3.8c-0.1-2.2-0.1-4.4,0-6.5c0.1-2.3,1.7-3.9,4-3.9
		c2.1,0,4.2,0,6.3,0c2.3,0,3.9,1.6,4,3.9c0.1,2.1,0.1,4.3,0,6.4c-0.1,2.3-1.7,3.9-4.1,3.9C41.6,84.2,40.6,84.2,39.5,84.2z"/>
	<path class="st0" d="M92.7,84.2c-1.1,0-2.2,0-3.3,0c-2.2-0.1-3.8-1.6-3.8-3.7c-0.1-2.3-0.1-4.5,0-6.8c0.1-2.1,1.7-3.7,3.7-3.7
		c2.2,0,4.5,0,6.7,0c2.1,0,3.8,1.7,3.8,3.8c0,2.2,0,4.5,0,6.7c0,2.1-1.6,3.7-3.7,3.8C95,84.2,93.8,84.2,92.7,84.2
		C92.7,84.2,92.7,84.2,92.7,84.2z"/>
	<path class="st0" d="M61.3,0.9c1.1,0,2.3,0,3.4,0c2.1,0.1,3.7,1.7,3.7,3.8c0,2.2,0,4.5,0,6.7c0,2.1-1.7,3.8-3.8,3.8
		c-2.2,0-4.5,0-6.7,0c-2,0-3.7-1.6-3.7-3.6c-0.1-2.3-0.1-4.7,0-7c0.1-2,1.7-3.6,3.7-3.6C59,0.8,60.2,0.9,61.3,0.9z"/>
</g>
</svg>
