<?xml version="1.0" encoding="utf-8"?>
<!-- Generator: Adobe Illustrator 21.0.2, SVG Export Plug-In . SVG Version: 6.00 Build 0)  -->
<svg version="1.1" id="Layer_1" xmlns="http://www.w3.org/2000/svg" xmlns:xlink="http://www.w3.org/1999/xlink" x="0px" y="0px"
	 viewBox="0 0 130 130" style="enable-background:new 0 0 130 130;" xml:space="preserve">
<style type="text/css">
	.st0{fill:#FFFFFF;}
	.st1{fill:#208588;}
</style>
<g>
	<circle class="st0" cx="65" cy="65" r="65"/>
	<g>
		<g>
			<path class="st1" d="M75.3,75.5c-0.9,0-1.6,0.5-2,1.3v-0.1c0-1.7-1.2-3-2.6-3c-1,0-1.9,0.6-2.3,1.6c-0.4-0.9-1.3-1.6-2.3-1.6
				c-0.8,0-1.5,0.4-2,1.1v-9.4c0-1.7-1.2-3-2.6-3s-2.6,1.4-2.6,3v18.4l-1.2-2.6c-0.5-1-1.4-1.6-2.3-1.6c-0.4,0-0.9,0.1-1.3,0.4
				c-1.3,0.8-1.8,2.6-1,4.1c0,0,6.2,13,7.1,14.4c0.9,1.3,2,2.3,3.6,2.3h9.2c2.7,0,4.9-2.6,4.9-5.8V78.2
				C77.6,76.7,76.5,75.5,75.3,75.5z"/>
			<path class="st1" d="M82.9,29.2H47.1c-2.2,0-4,1.8-4,4v58.8c0,2.2,1.8,4,4,4h6.6c0,0,1.3,0,0.8-1.1c-0.8-1.7-2-4.3-2.9-6.1
				c-0.4-0.9-1.5-0.8-1.5-0.8h-2.6c-0.5,0-1-0.4-1-1V38.2c0-0.5,0.4-1,1-1h35c0.5,0,1,0.4,1,1v48.9c0,0.5-0.4,1-1,1h-1
				c0,0-1.2,0-1.2,1.5c0,1.2,0,4.9,0,4.9c0,1.5,1.4,1.5,1.4,1.5h1.2c2.2,0,4-1.8,4-4V33.2C86.9,31,85.1,29.2,82.9,29.2z M69.4,34.8
				h-8.8c-0.4,0-0.8-0.3-0.8-0.8c0-0.4,0.3-0.8,0.8-0.8h8.8c0.4,0,0.8,0.3,0.8,0.8C70.2,34.5,69.8,34.8,69.4,34.8z"/>
		</g>
	</g>
</g>
</svg>
