<?xml version="1.0" encoding="utf-8"?>
<!-- Generator: Adobe Illustrator 21.0.2, SVG Export Plug-In . SVG Version: 6.00 Build 0)  -->
<svg version="1.1" id="Layer_1" xmlns="http://www.w3.org/2000/svg" xmlns:xlink="http://www.w3.org/1999/xlink" x="0px" y="0px"
	 viewBox="0 0 118.3 118.3" style="enable-background:new 0 0 118.3 118.3;" xml:space="preserve">
<style type="text/css">
	.st0{fill:none;stroke:#FFFFFF;stroke-miterlimit:10;}
	.st1{fill-rule:evenodd;clip-rule:evenodd;fill:#D1A6FF;}
	.st2{fill-rule:evenodd;clip-rule:evenodd;fill:#FFFFFF;}
</style>
<g>
	<circle class="st0" cx="59.1" cy="59.1" r="55.8"/>
	<g>
		<path class="st1" d="M86.3,44.5c-4.3-1.6-14.9-2.8-27.1-2.8c-12.3,0-22.8,1.2-27.1,2.8h-1.9c-0.6,0-1,0.5-1,1l0,0c0,0.6,0.5,1,1,1
			h58c0.6,0,1-0.5,1-1l0,0c0-0.6-0.5-1-1-1H86.3z"/>
		<path class="st1" d="M52.7,34.2h12.9c1.6,0,3,0.6,4,1.7c1,1,1.7,2.5,1.7,4v4.7v1h-1H48h-1v-1v-4.7c0-1.6,0.6-3,1.7-4
			C49.7,34.8,51.2,34.2,52.7,34.2L52.7,34.2z M65.6,36.1H52.7c-1,0-2,0.4-2.7,1.1c-0.7,0.7-1.1,1.6-1.1,2.7v3.8h20.4v-3.8
			c0-1-0.4-2-1.1-2.7C67.6,36.5,66.6,36.1,65.6,36.1z"/>
		<path class="st1" d="M19.6,53.2L19.6,53.2c0-1.3,0.5-2.5,1.4-3.3c0.9-0.9,2-1.4,3.3-1.4h9.2h1v1v7.5v1h-1h-9.2
			c-1.3,0-2.5-0.5-3.3-1.4C20.1,55.6,19.6,54.5,19.6,53.2L19.6,53.2z M21.5,53.2L21.5,53.2c0,0.8,0.3,1.5,0.8,2
			c0.5,0.5,1.2,0.8,2,0.8h8.2v-5.6h-8.2c-0.8,0-1.5,0.3-2,0.8C21.8,51.7,21.5,52.4,21.5,53.2z"/>
		<path class="st1" d="M96.8,53.2L96.8,53.2c0-0.8-0.3-1.5-0.8-2c-0.5-0.5-1.2-0.8-2-0.8h-8.2V56H94c0.8,0,1.5-0.3,2-0.8
			C96.4,54.6,96.8,53.9,96.8,53.2L96.8,53.2z M98.7,53.2L98.7,53.2c0,1.3-0.5,2.5-1.4,3.3c-0.9,0.9-2,1.4-3.3,1.4h-9.2h-1v-1v-7.5
			v-1h1H94c1.3,0,2.5,0.5,3.3,1.4C98.1,50.7,98.7,51.9,98.7,53.2z"/>
		<path class="st2" d="M30.9,47.6h56.4v31.7c0,2.7-2.2,4.8-4.8,4.8H35.1c-2.3,0-4.1-1.9-4.1-4.1V47.6z"/>
	</g>
</g>
</svg>
