<?xml version="1.0" encoding="utf-8"?>
<!-- Generator: Adobe Illustrator 21.0.2, SVG Export Plug-In . SVG Version: 6.00 Build 0)  -->
<svg version="1.1" id="Layer_1" xmlns="http://www.w3.org/2000/svg" xmlns:xlink="http://www.w3.org/1999/xlink" x="0px" y="0px"
	 viewBox="0 0 118.3 118.3" style="enable-background:new 0 0 118.3 118.3;" xml:space="preserve">
<style type="text/css">
	.st0{fill:none;stroke:#FFFFFF;stroke-miterlimit:10;}
	.st1{fill:#FFFFFF;}
</style>
<g>
	<circle class="st0" cx="59.1" cy="59.1" r="55.8"/>
	<g>
		<g>
			<path class="st1" d="M66.1,74.3c2.7-4.7,4.8-3.5,4.5-5.7c-0.3-2.1-4.8-1.9-6-4.2c-1.2-2.3,2.1-5.8,1.3-6.1
				c-0.1-0.1-0.3-0.2-0.5-0.3l-4.4,7.8c0.5,1.2,0.5,2.6-0.2,3.8c-0.7,1.2-1.8,1.8-3.1,2l-6.8,12l-4.5-2.7l7.2-11.8
				c-0.5-1.1-0.5-2.5,0.2-3.7c0.7-1.2,1.9-1.9,3.2-2l4.7-7.6c-1-0.6-2-1.2-2.8-1.6c-2.2-1.2-5.3-1.7-7.4,0.3
				c-2.1,2-3.1,8.1-5.4,10.8c-2.3,2.7-9.1,3.8-13.3,10.8c-4.2,7.1,0.3,13.4,8.5,18.2s16.5,6,21.3-2.2C67.4,83.8,63.3,78.9,66.1,74.3
				z"/>
			<path class="st1" d="M80.2,31.6l-2.9-1.7c0,0,0,0,0,0L61.6,55.8c1.4,0.8,2.9,1.7,3.7,2.2L80.2,31.6z"/>
			<path class="st1" d="M53.4,69.1l-7.2,11.8l4.5,2.7l6.8-12c-0.8,0.1-1.7-0.1-2.5-0.5C54.3,70.5,53.8,69.9,53.4,69.1z"/>
			<path class="st1" d="M59.2,64c0.7,0.4,1.3,1.1,1.6,1.8l4.4-7.8c-0.8-0.5-2.3-1.4-3.7-2.2l-4.7,7.6C57.7,63.4,58.5,63.5,59.2,64z"
				/>
			<path class="st1" d="M80.3,31.5l-0.1,0.2l0,0c0.4-0.6,1.3-1.2,1.8-1.1c0-0.1,0.1-0.3,0.2-0.5L82,30l0.4-0.6l0.2,0.1
				c0.3-0.5,0.6-1.1,1.1-1.8l-0.2-0.1l0.4-0.6l0.2,0.1c0.4-0.6,0.8-1.2,1.2-1.8l-0.3-0.1l0.4-0.6l0.3,0.2c0.5-0.7,1-1.2,1.3-1.3
				c-0.7-0.4-1.3-1.4-1.3-2c-0.4,0.1-1.6-0.6-1.8-1c-0.6,0.3-1.8,0.2-2.4-0.2c0,0.4-0.2,1-0.6,1.8l0.4,0.2l-0.4,0.6l-0.3-0.2
				c-0.3,0.6-0.6,1.2-1,1.9l0.2,0.1l-0.4,0.6l-0.2-0.1c-0.4,0.7-0.8,1.3-1.1,1.8l0.2,0.1l-0.4,0.6l-0.2-0.1
				c-0.1,0.2-0.2,0.3-0.3,0.4c0.4,0.3,0.3,1.4-0.1,2.1l0.1-0.2L80.3,31.5z"/>
			<polygon class="st1" points="80.2,31.6 80.3,31.5 77.4,29.8 77.4,29.9 77.4,29.9 			"/>
			<path class="st1" d="M86.1,25.8l-0.3-0.2c-0.1,0.2-0.1,0.5,0,0.7l0.6,0.2c0.4-0.2,0.8-0.8,0.8-1.4l-0.5-0.4
				c-0.2,0-0.5,0.2-0.6,0.4l0.3,0.2L86.1,25.8z"/>
			<path class="st1" d="M85.7,25.6c0.1-0.2,0.2-0.3,0.3-0.5l-0.5-0.3c-0.1,0.2-0.3,0.3-0.4,0.5L85.7,25.6z"/>
			<path class="st1" d="M84.8,25.2l0.3,0.1c0.1-0.2,0.3-0.4,0.4-0.5l-0.3-0.2L84.8,25.2z"/>
			<path class="st1" d="M85.7,25.6l0.3,0.2l0.2-0.4L86,25.2C85.9,25.3,85.8,25.5,85.7,25.6z"/>
			<path class="st1" d="M84.7,28.2L84.3,28c-0.1,0.2-0.1,0.5,0,0.7l0.6,0.2c0.4-0.2,0.8-0.8,0.8-1.4l-0.5-0.4
				c-0.2,0-0.5,0.2-0.6,0.4l0.3,0.2L84.7,28.2z"/>
			<path class="st1" d="M84.3,28c0.1-0.2,0.2-0.3,0.3-0.5L84,27.1c-0.1,0.2-0.2,0.4-0.4,0.6L84.3,28z"/>
			<path class="st1" d="M83.4,27.6l0.2,0.1c0.1-0.2,0.2-0.4,0.4-0.6L83.8,27L83.4,27.6z"/>
			<path class="st1" d="M84.3,28l0.3,0.2l0.2-0.4l-0.3-0.2C84.5,27.7,84.4,27.9,84.3,28z"/>
			<path class="st1" d="M83.2,30.6l-0.3-0.2c-0.1,0.2-0.1,0.5,0,0.7l0.6,0.2c0.4-0.2,0.8-0.8,0.8-1.4l-0.5-0.4
				c-0.2,0-0.5,0.2-0.6,0.4l0.3,0.2L83.2,30.6z"/>
			<path class="st1" d="M82.9,30.4c0.1-0.2,0.2-0.3,0.3-0.5l-0.6-0.5c-0.1,0.2-0.2,0.4-0.3,0.6L82.9,30.4z"/>
			<path class="st1" d="M82,30l0.2,0.1c0.1-0.2,0.2-0.4,0.3-0.6l-0.2-0.1L82,30z"/>
			<path class="st1" d="M82.9,30.4l0.3,0.2l0.2-0.4L83.2,30C83.1,30.1,83,30.3,82.9,30.4z"/>
			<path class="st1" d="M79.9,21.6l0.3,0.2c0.1-0.2,0.1-0.5,0-0.7l-0.6-0.2c-0.4,0.2-0.8,0.8-0.8,1.4l0.5,0.4c0.2,0,0.5-0.2,0.6-0.4
				L79.6,22L79.9,21.6z"/>
			<path class="st1" d="M80.2,21.8c-0.1,0.2-0.2,0.3-0.3,0.5l0.5,0.4c0.1-0.2,0.2-0.4,0.3-0.6L80.2,21.8z"/>
			<path class="st1" d="M81.1,22.2L80.7,22c-0.1,0.2-0.2,0.4-0.3,0.6l0.3,0.2L81.1,22.2z"/>
			<path class="st1" d="M80.2,21.8l-0.3-0.2L79.6,22l0.3,0.2C80,22.1,80.1,21.9,80.2,21.8z"/>
			<path class="st1" d="M78.5,24l0.3,0.2c0.1-0.2,0.1-0.5,0-0.7l-0.6-0.2c-0.4,0.2-0.8,0.8-0.8,1.4l0.5,0.4c0.2,0,0.5-0.2,0.6-0.4
				l-0.3-0.2L78.5,24z"/>
			<path class="st1" d="M78.8,24.2c-0.1,0.2-0.2,0.3-0.3,0.5l0.6,0.5c0.1-0.2,0.2-0.4,0.3-0.6L78.8,24.2z"/>
			<path class="st1" d="M79.7,24.6l-0.2-0.1c-0.1,0.2-0.2,0.4-0.3,0.6l0.2,0.1L79.7,24.6z"/>
			<path class="st1" d="M78.8,24.2L78.5,24l-0.2,0.4l0.3,0.2C78.6,24.5,78.7,24.3,78.8,24.2z"/>
			<path class="st1" d="M77,26.4l0.3,0.2c0.1-0.2,0.1-0.5,0-0.7l-0.6-0.2c-0.4,0.2-0.8,0.8-0.8,1.4l0.5,0.4c0.2,0,0.5-0.2,0.6-0.4
				l-0.3-0.2L77,26.4z"/>
			<path class="st1" d="M77.4,26.6c-0.1,0.2-0.2,0.3-0.3,0.5l0.6,0.4c0.1-0.2,0.2-0.4,0.4-0.6L77.4,26.6z"/>
			<path class="st1" d="M78.3,27l-0.2-0.1c-0.1,0.2-0.3,0.4-0.4,0.6l0.2,0.1L78.3,27z"/>
			<path class="st1" d="M77.4,26.6L77,26.4l-0.2,0.4l0.3,0.2C77.2,26.9,77.3,26.7,77.4,26.6z"/>
		</g>
	</g>
</g>
</svg>
