<?xml version="1.0" encoding="utf-8"?>
<!-- Generator: Adobe Illustrator 21.0.2, SVG Export Plug-In . SVG Version: 6.00 Build 0)  -->
<svg version="1.1" id="Layer_1" xmlns="http://www.w3.org/2000/svg" xmlns:xlink="http://www.w3.org/1999/xlink" x="0px" y="0px"
	 viewBox="0 0 246.7 433.9" style="enable-background:new 0 0 246.7 433.9;" xml:space="preserve">
<style type="text/css">
	.st0{fill:#FCD2B1;}
	.st1{fill:#493127;}
	.st2{fill:#304C18;}
	.st3{fill:#362319;}
	.st4{fill:#F7DAC6;}
	.st5{fill:#2C3F1A;}
	.st6{fill:#FFFFFF;}
	.st7{fill:#D17C5D;}
	.st8{fill:#E6A085;}
	.st9{fill:none;}
	.st10{fill:#A77235;}
	.st11{fill:#260D05;}
	.st12{fill:#AEC695;}
</style>
<g>
	<g id="XMLID_3_">
		<g>
			<g>
				<path class="st0" d="M169.6,334.5c1.2,7.4,1.1,14.5,1,21.7h-0.3c-4,12.5-7.3,25.1-18.8,31.5c-7.3,4-16.1,4.4-24.4,3.8
					c-5.5-0.3-11-1-16.1-3.2c-10.7-4.5-25.5-14.8-31.8-24.6c-6-9.3-6.5-18.5-10.6-27.9l-0.4,0c0.1-4,0.4-7.9,0.6-11.8
					c1.1-17.9,3.4-36.7-3.5-53.3c6.6,6.5,14.7,12.1,24.7,16.3c13.1,5.5,28.2,6.6,41.4,1.5c13.3-5.2,24.5-14.8,33.4-26.5
					C163.6,286.2,165.6,310.6,169.6,334.5z"/>
			</g>
			<g>
				<ellipse class="st1" cx="169.1" cy="177.3" rx="0.6" ry="0.6"/>
			</g>
			<g>
				<path class="st2" d="M154.9,127.7c3-0.9,6-1.8,9.1-2c3.9-0.2,7.7,0.6,11.5,1.4c2.6,0.6,5.1,1.1,7.6,2c2.3,0.8,4.5,1.9,6.7,3
					c0.8,0.4,1.6,0.7,2.4,1.1c5.1,2.2,10.4,3.9,15.9,5.1c1.2,0.3,2.5,0.6,3.1,1.6c0.3,0.5,0.4,1,0.5,1.6c0.4,2.3,0.6,5-1.1,6.6
					c-0.8,0.8-1.9,1.1-2.8,1.7c-3.3,1.9-4.6,5.9-5.6,9.5c-0.7,2.5-1.4,5-2.1,7.5c-1.4,4.8-2.7,9.6-5.2,13.9c-0.6,1-1.2,1.9-1.8,2.8
					c-2,2.7-4.5,5-7.1,7c-3.1,2.4-6.4,4.6-10.1,6.1c-6.6,2.7-14,2.9-20.9,1c-6.8-1.9-13-5.9-17.9-11c-5.7-6.1-9.6-13.8-11.1-22
					l-0.1,0c-1.1-3.9-0.9-7.8-0.8-11.9c0-0.6,0-1.1,0.3-1.6c0.3-0.7,0.9-1.1,1.4-1.7c1.3-1.7,0.5-4.3-1.1-5.8
					c-1.6-1.4-3.8-1.9-6-2.1c-5.1-0.5-10.4,0.3-15.2,2.3c-0.7,0.3-1.5,0.7-2,1.3c-1.3,1.5-0.9,3.7-0.4,5.6c0.3,1.1,0.7,2.3,1.5,2.9
					l0,0.1c1.6,1.2,1.2,3.9,0.6,5.9c-2,6.8-4.5,13.9-8.3,20.1c-3.8,6.2-9,11.7-15.6,14.7c-2.7,1.2-5.6,2.1-8.5,2.9
					c-2.8,0.8-5.5,1.5-8.4,1.5c-2.4,0-4.8-0.6-7.1-1.2c-3-0.8-6-1.6-8.7-3c-4.5-2.3-8-6-11.4-9.7c-2.2-2.3-4.3-4.7-5.9-7.5
					c-0.6-1.1-1.1-2.2-1.5-3.3c-0.7-2-1.3-4.1-1.8-6.1c-1.2-4.7-2.5-9.5-3.7-14.2c-0.3-1-0.6-2-1.3-2.6c-0.5-0.4-1.2-0.5-1.9-0.7
					c-3.7-1.2-6.3-5-6-8.9c0.1-0.8,0.2-1.6,0.6-2.3c1.2-2.1,4-2.6,6.4-3c4.8-0.8,9.5-2.3,14.2-3.8c1.8-0.6,3.7-1.2,5.6-1.8
					c1-0.3,1.9-0.6,2.9-0.9c7.5-2.3,15.4-4.1,23.2-3c4,0.6,7.8,1.9,11.7,3.2c6.5,2.2,12.9,4.5,19.4,6.7l0.4,0.3
					c3-2,6.7-2.5,10.2-2.8c7.4-0.5,14.8,0.1,22,1.7l0,0.1C138.7,132.7,146.4,130.3,154.9,127.7z M163.8,194.9
					c9.4,0,17.1-2.9,22.9-9.4c5-5.6,8.9-12.7,10.2-20.9c1.4-8.7-1-21.1-6.8-26.8c-5.7-5.7-17.6-6.7-26.3-6.7
					c-11.6,0-24.4,5-29.9,14.3c-2.8,4.7-3,10.8-3,16.7C130.9,179.5,146.3,194.9,163.8,194.9z M96.9,161.7c0.4-7.4-2.1-15.1-6.4-20.6
					c-6.1-7.8-16.4-11.4-27.6-11.3c-5.4,0-8.9,0.4-12.9,1.6c-4.4,1.3-8.4,3.1-11.6,6.2c-5.9,5.9-8.9,15.3-7.6,24.1
					c0.8,5.5,1.7,10,4.4,14.5c1.8,3,5.5,7.9,8.1,10.3c6,5.5,11.5,7.7,20.3,7.7c10.6,0,18.4-4.2,24.5-11.7
					C92.5,177,96.3,170.7,96.9,161.7z"/>
			</g>
			<g>
				<path class="st3" d="M179.6,39.1c20.7,21.8,31.2,51.5,35.5,81.2c10.7,73.7,8.5,150,20,224.3c3.2,20.3,14.3,50.1-3.6,66.3
					c-5.3,4.8-11.8,8-18.3,11.1c-14.8,7-22.6-1.8-29.1-14.6c-5.6-11-11.2-22.5-12.8-34.9c-0.7-5.5-0.7-10.9-0.7-16.3
					c0.1-7.1,0.2-14.3-1-21.7c-4-23.9-6-48.3-4.7-72.6c12.7-16.6,20.8-37.5,24.4-56.2c1.6-8.4,1.3-17.4,5.8-25l-0.3-0.2
					c2.4-4.3,3.8-9.1,5.2-13.9c0.7-2.5,1.4-5,2.1-7.5c1-3.6,2.3-7.6,5.6-9.5c0.9-0.6,2-0.9,2.8-1.7c1.7-1.6,1.4-4.3,1.1-6.6
					c-0.1-0.5-0.2-1.1-0.5-1.6c-0.6-1-2-1.4-3.1-1.6c-5.4-1.2-10.8-2.9-15.9-5.1l0.2-0.6c2.3-15.9-4.5-32.8-11.1-47.4
					c-2.7-6-5.4-12-8.1-18c-4.3-9.6-9.5-20.1-17.5-26.9l-0.1-0.3c4.1-1.3,8-4.5,10-8.2c0.1-0.1,0.1-0.2,0.2-0.3l0.2,0.1
					C171.3,31.4,175.9,35.2,179.6,39.1z"/>
			</g>
			<g>
				<path class="st3" d="M131.7,114.8c12-4.4,25.3-4.8,38-5.2c10.6-0.3,14.4,11.4,18.5,19.6c-2.4,0.8-5.1-0.7-6.9-2.6
					c-1.8-1.8-3.3-4.1-5.7-5.2c-2.3-1.1-5-0.9-7.5-0.6c-8.4,0.8-16.8,1.6-25.2,2.4c-2.8,0.3-6.7,1.5-9.1-0.2
					c-0.7-0.5-3.7-8.1-2.3-8.2L131.7,114.8z"/>
			</g>
			<g>
				<path class="st4" d="M156.4,154.3c5.9,0.3,11.6-0.8,16.2-5.5l-0.2-0.4c-2.3-1.8-4.6-3.6-6.9-5.4c-1.8-1.4-3.9-2.8-6.2-3.5
					c-0.7-0.2-1.4-0.4-2.1-0.5c-1.8-0.2-3.1,0.1-4.9,0.5c-2.9,0.6-5.9,1.3-8.3,3.1c-2.4,1.7-4.1,4.8-6.7,6.3l-0.4,0.1
					c2.6,2.6,7.6,3.4,11,4.2C150.7,153.7,153.5,154.2,156.4,154.3z M163.4,132c8.3,0,19.7,1,25.2,6.5c5.5,5.5,7.9,17.5,6.5,25.9
					c-1.3,7.8-5,14.7-9.8,20.1c-5.6,6.3-12.9,9.1-21.9,9.1c-16.8,0-31.5-14.9-31.5-31.7c0-5.7,0.2-11.6,2.9-16.1
					C140.1,136.8,152.3,132,163.4,132z M169.7,177.3c0-0.4-0.3-0.6-0.6-0.6c-0.4,0-0.6,0.3-0.6,0.6c0,0.4,0.3,0.6,0.6,0.6
					C169.4,178,169.7,177.7,169.7,177.3z"/>
			</g>
			<g>
				<path class="st5" d="M159.2,139.9c2.7,1,4.6,3.6,4.6,6.6c0,3.9-3.1,7-7,7c-0.1,0-0.2,0-0.4,0c-3.7-0.2-6.7-3.3-6.7-7
					c0-3.9,3.1-7,7-7C157.6,139.5,158.4,139.7,159.2,139.9z M158.8,147.3c0-1.1-0.9-2-2-2s-2,0.9-2,2s0.9,2,2,2
					S158.8,148.4,158.8,147.3z"/>
			</g>
			<g>
				<circle cx="156.8" cy="147.3" r="2"/>
			</g>
			<g>
				<path class="st6" d="M159.3,139.5c2.2,0.8,4.4,2.2,6.2,3.5c2.3,1.8,4.6,3.6,6.9,5.4l0.2,0.4c-4.6,4.6-10.3,5.8-16.2,5.5l0-0.8
					c0.1,0,0.2,0,0.4,0c3.9,0,7-3.1,7-7c0-3-1.9-5.6-4.6-6.6L159.3,139.5z"/>
			</g>
			<g>
				<path class="st6" d="M157.2,139c0.7,0.1,1.4,0.3,2.1,0.5l-0.1,0.4c-0.8-0.3-1.6-0.4-2.4-0.4c-3.9,0-7,3.1-7,7c0,3.8,3,6.8,6.7,7
					l0,0.8c-2.8-0.2-5.7-0.6-8.5-1.2c-3.4-0.7-8.4-1.6-11-4.2l0.4-0.1c2.6-1.5,4.3-4.6,6.7-6.3c2.4-1.7,5.4-2.5,8.3-3.1
					C154.1,139.1,155.4,138.7,157.2,139z"/>
			</g>
			<g>
				<path class="st0" d="M155.6,40.2c8.1,6.8,13.2,17.3,17.5,26.9c2.7,6,5.4,12,8.1,18c6.6,14.7,13.4,31.5,11.1,47.4l-0.2,0.6
					c-0.8-0.3-1.6-0.7-2.4-1.1c-2.2-1-4.4-2.1-6.7-3c-2.5-0.9-5-1.4-7.6-2c-3.8-0.8-7.6-1.7-11.5-1.4c-3.1,0.2-6.1,1.1-9.1,2
					c-8.4,2.6-16.2,5-24.3,8.3l0-0.1c-7.2-1.6-14.6-2.2-22-1.7c-3.6,0.2-7.3,0.8-10.2,2.8l-0.4-0.3c-6.5-2.2-12.9-4.5-19.4-6.7
					c-3.8-1.3-7.7-2.6-11.7-3.2c-7.8-1.1-15.7,0.6-23.2,3c-1,0.3-1.9,0.6-2.9,0.9l-0.4-1.2c0.5-0.2,1-0.5,1.3-0.9l0.1,0
					c5.5-3.1,11.2-5.7,17.4-6.9c11.4-2.1,22.7,2.9,34.1,4.7c0.4,0.1,0.9-0.4,1.3-0.6c0.7-0.3,0.9-0.6,1.1-1.3
					c0.3-1.6,0.7-3.2,0.4-4.8c-1.3-7.9-15.9-8.3-21.7-8.6c-10.2-0.6-20.2-1.1-28.4,5.9c-2.3,1.9-4.4,4.2-5.9,6.8l-1.2-0.6
					c4.9-9.3,12-18.8,18-26.1c20.6-25.2,43.2-51.7,74.4-60.8c2.8-0.8,5.6-1.5,8.5-1.1c5.2,0.6,9.6,4.5,14.8,4.9
					c0.3-0.1,0.6-0.2,0.9-0.3L155.6,40.2z M181.3,126.6c1.8,1.8,4.4,3.4,6.9,2.6c-4.1-8.2-7.9-19.9-18.5-19.6
					c-12.7,0.4-26,0.9-38,5.2l-0.1,0.1c-1.4,0,1.6,7.7,2.3,8.2c2.4,1.7,6.3,0.4,9.1,0.2c8.4-0.8,16.8-1.6,25.2-2.4
					c2.5-0.2,5.2-0.5,7.5,0.6C177.9,122.6,179.5,124.8,181.3,126.6z"/>
			</g>
			<g>
				<path class="st7" d="M147.7,237.6l0,0.4c-13.5,0.7-27.6-3-41.2-1.7c-9.2,0.9-17,3.4-26.1,3.1c5.6-3.8,11.3-7.4,16.9-11.1
					c2.9-1.9,6.4-3.4,9.8-2.5c2.2,0.6,4.1,2.1,6.3,2.2c2.3,0.1,4.4-1.3,6.6-2.1c4.8-1.8,9.5-0.4,13.8,1.9
					C138.7,230.2,143.7,233.9,147.7,237.6z"/>
			</g>
			<g>
				<path class="st0" d="M148.1,238l-0.1-0.1c-0.1,0-0.2,0-0.4,0l0-0.4c-4-3.7-9-7.4-13.8-9.9c-4.3-2.3-9-3.7-13.8-1.9
					c-2.2,0.8-4.3,2.2-6.6,2.1c-2.2-0.1-4.1-1.6-6.3-2.2c-3.4-0.9-6.9,0.6-9.8,2.5c-5.6,3.8-11.3,7.4-16.9,11.1
					c-0.4,0-0.8,0-1.2-0.1l0,0.4c9.5,8.2,19.2,13.5,32,13.7C124.4,253.5,141.2,250.7,148.1,238z M192.9,183.4
					c0.7-0.9,1.3-1.9,1.8-2.8l0.3,0.2c-4.5,7.6-4.2,16.6-5.8,25c-3.5,18.7-11.7,39.6-24.4,56.2c-8.9,11.7-20.1,21.3-33.4,26.5
					c-13.2,5.1-28.3,4-41.4-1.5c-10-4.2-18.1-9.7-24.7-16.3c-24.5-24.2-28.9-62.2-37.1-96.3l0.5-0.2c0.4,1.1,0.9,2.2,1.5,3.3
					c1.5,2.8,3.7,5.1,5.9,7.5c3.4,3.7,6.9,7.5,11.4,9.7c2.7,1.4,5.7,2.2,8.7,3c2.3,0.6,4.7,1.2,7.1,1.2c2.9,0,5.7-0.7,8.4-1.5
					c2.9-0.8,5.8-1.6,8.5-2.9c6.6-3,11.8-8.5,15.6-14.7c3.7-6.2,6.2-13.3,8.3-20.1c0.6-2,1-4.6-0.6-5.9l0-0.1
					c-0.9-0.7-1.2-1.9-1.5-2.9c-0.5-1.9-0.9-4.2,0.4-5.6c0.5-0.6,1.3-1,2-1.3c4.8-2,10-2.8,15.2-2.3c2.1,0.2,4.4,0.7,6,2.1
					c1.6,1.4,2.3,4,1.1,5.8c-0.4,0.6-1.1,1-1.4,1.7c-0.2,0.5-0.3,1.1-0.3,1.6c-0.1,4.1-0.4,8,0.8,11.9l0.1,0
					c1.5,8.2,5.4,15.9,11.1,22c4.9,5.2,11.1,9.1,17.9,11c6.8,1.9,14.3,1.7,20.9-1c3.7-1.5,7-3.7,10.1-6.1
					C188.4,188.3,190.9,186.1,192.9,183.4z M113.5,274.7c0-0.7-0.6-1.3-1.3-1.3c-0.7,0-1.3,0.6-1.3,1.3c0,0.7,0.6,1.3,1.3,1.3
					C112.9,276,113.5,275.4,113.5,274.7z"/>
			</g>
			<g>
				<circle class="st1" cx="112.2" cy="274.7" r="1.3"/>
			</g>
			<g>
				<path class="st3" d="M41.7,128.6c-0.4,0.4-0.8,0.7-1.3,0.9c-0.6,0.2-1.3,0.3-1.9,0.1c0.1-2,0.7-3.9,1.7-5.7
					c1.4-2.6,3.6-4.9,5.9-6.8c8.1-7,18.1-6.5,28.4-5.9c5.9,0.3,20.4,0.7,21.7,8.6c0.3,1.6-0.1,3.2-0.4,4.8c-0.2,0.7-0.4,1-1.1,1.3
					c-0.4,0.2-0.9,0.7-1.3,0.6c-11.4-1.8-22.7-6.8-34.1-4.7C53,122.9,47.3,125.5,41.7,128.6L41.7,128.6z"/>
			</g>
			<g>
				<path class="st4" d="M63.1,131.1c10.7,0,20.5,3.4,26.3,10.8c4.1,5.2,6.5,12.6,6.1,19.7c-0.5,8.6-4.1,14.6-8.4,19.9
					c-5.8,7.2-13.2,11.2-23.3,11.2c-8.4,0-13.7-2.2-19.3-7.4c-2.5-2.3-6-7-7.7-9.9c-2.6-4.2-3.4-8.6-4.2-13.9
					c-1.2-8.4,1.7-17.5,7.3-23.1c3-3,6.8-4.7,11-5.9C54.7,131.4,58,131.1,63.1,131.1z M89.7,149.3l0-0.5c-4.3-4.4-10.6-7-16.9-7.4
					c-0.1,0-0.2,0-0.2,0c-0.2,0-0.3,0-0.5,0c0,0,0,0-0.1,0c-2,0-3.9,0.1-5.8,0.5c-1.4,0.3-2.7,0.7-3.9,1.4c-3.4,2-5.2,6.1-8.4,8.4
					l0.7,0.1c4,0.9,7.6,3.1,11.5,4c2.3,0.6,4.7,0.5,7.1,0.1c1.6-0.3,3.1-0.6,4.6-1.1C82.4,153.7,85.5,151.1,89.7,149.3z"/>
			</g>
			<g>
				<path class="st8" d="M80.4,239.4c9.2,0.3,16.9-2.2,26.1-3.1c13.6-1.3,27.7,2.4,41.2,1.7c0.1,0,0.2,0,0.4,0l0.1,0.1
					c-6.9,12.7-23.7,15.5-37,15.3c-12.8-0.1-22.5-5.5-32-13.7l0-0.4C79.6,239.4,80,239.4,80.4,239.4z"/>
			</g>
			<g>
				<path class="st6" d="M72.9,141.4c6.3,0.4,12.6,3,16.9,7.4l0,0.5c-4.2,1.8-7.4,4.4-11.8,5.6c-1.5,0.4-3.1,0.8-4.6,1.1l-0.1-0.6
					c3.4-0.5,5.9-3.4,5.9-6.9C79.2,144.8,76.4,141.8,72.9,141.4z"/>
			</g>
			<g>
				<path class="st5" d="M72.9,141.4c3.5,0.4,6.3,3.4,6.3,7c0,3.5-2.6,6.4-5.9,6.9c-0.4,0.1-0.7,0.1-1.1,0.1c-3.9,0-7-3.1-7-7
					c0-3.9,3.1-7,7-7c0.2,0,0.4,0,0.6,0C72.7,141.4,72.8,141.4,72.9,141.4z M74.7,148.8c0-1.1-0.9-2-2-2c-1.1,0-2,0.9-2,2s0.9,2,2,2
					C73.8,150.8,74.7,149.9,74.7,148.8z"/>
			</g>
			<g>
				<circle cx="72.7" cy="148.8" r="2"/>
			</g>
			<g>
				<path class="st6" d="M72.2,155.4c0.4,0,0.7,0,1.1-0.1l0.1,0.6c-2.4,0.4-4.8,0.5-7.1-0.1c-4-1-7.5-3.2-11.5-4l-0.7-0.1
					c3.3-2.3,5-6.3,8.4-8.4c1.2-0.7,2.6-1.1,3.9-1.4c1.9-0.4,3.8-0.6,5.8-0.5c-3.8,0-7,3.2-7,7C65.1,152.3,68.3,155.4,72.2,155.4z"
					/>
			</g>
			<g>
				<path class="st0" d="M38.5,129.6c0.6,0.2,1.3,0.1,1.9-0.1l0.4,1.2c-1.9,0.6-3.7,1.2-5.6,1.8L35,132c1-2.8,2.3-5.8,3.9-8.7
					l1.2,0.6C39.2,125.7,38.5,127.6,38.5,129.6z"/>
			</g>
			<g>
				<path class="st3" d="M147.7,13.2c8.1,3.6,16.3,9.6,17.5,18.4l0.3,0.1c-2.1,3.7-5.9,6.9-10,8.2c-0.3,0.1-0.6,0.2-0.9,0.3
					c-5.2-0.4-9.6-4.3-14.8-4.9c-2.8-0.4-5.7,0.3-8.5,1.1c-31.3,9.1-53.8,35.6-74.4,60.8c-6,7.4-13.1,16.8-18,26.1
					c-1.6,3-2.9,5.9-3.9,8.7l0.2,0.6c-4.7,1.5-9.4,3-14.2,3.8c-2.4,0.4-5.2,0.9-6.4,3c-0.4,0.7-0.6,1.5-0.6,2.3
					c-0.3,3.8,2.3,7.7,6,8.9c0.7,0.2,1.4,0.3,1.9,0.7c0.8,0.6,1.1,1.6,1.3,2.6c1.2,4.7,2.5,9.5,3.7,14.2c0.5,2.1,1.1,4.1,1.8,6.1
					l-0.5,0.2c8.2,34.1,12.6,72,37.1,96.3c6.9,16.6,4.6,35.3,3.5,53.3c-0.2,3.9-0.5,7.8-0.6,11.8c-0.4,10.4,0.1,21,4.3,30.5
					c4.1,9.3,12.8,17,13,27.7c0.1,4-1.1,7.9-2.8,11.5c-1.8,3.7-4.1,7.2-7.2,10.1c-17.5,16.1-49.7,15.7-70.3,7
					c1-20.6,4.9-41,6.3-61.6c1.2-19.3-2.2-39.2-3.9-58.4l0.3,0c0.9-50.1-0.7-100.2,2-150.2c1.7-31.6,7.1-63.1,19.3-92.4
					c8.3-20,28.1-40,49.3-48.4C100.6,2.8,126.1,3.4,147.7,13.2z"/>
			</g>
		</g>
		<g>
			<g>
				<path class="st6" d="M163.4,194.4c-17.2,0-32.3-15.2-32.3-32.5c0-6,0.2-11.8,3-16.5c5.8-9.8,18.9-14.2,29.3-14.2
					c12.6,0,21.2,2.3,25.7,6.7c5.9,5.9,8.1,18.4,6.7,26.5l0,0c-1.2,7.4-4.7,14.5-10,20.5C180.4,191.3,173,194.4,163.4,194.4z
					 M163.4,132.7c-10,0-22.6,4.2-28,13.4c-2.5,4.3-2.8,9.9-2.8,15.7c0,16.5,14.4,31,30.8,31c9.1,0,16.1-2.9,21.4-8.8
					c5.1-5.8,8.4-12.6,9.6-19.8l0,0c1.3-7.8-0.8-19.7-6.3-25.2C184,134.9,175.5,132.7,163.4,132.7z M195.2,164.4L195.2,164.4
					L195.2,164.4z"/>
			</g>
			<g>
				<path d="M63.5,194.5c-8.7,0-14.2-2.1-20.4-7.8c-2.5-2.3-6.2-7.2-8.1-10.4c-2.9-4.6-3.7-9.5-4.4-14.6c-1.2-8.9,1.8-18.5,7.7-24.4
					c3.5-3.5,8.1-5.2,11.7-6.3c3.9-1.2,7.3-1.6,13-1.6c12.1,0,21.9,4,27.8,11.4c4.4,5.7,6.8,13.4,6.4,20.8v0
					c-0.5,9.5-4.8,15.9-8.9,21C81.7,190.6,73.7,194.5,63.5,194.5z M63.2,130c-0.1,0-0.1,0-0.2,0c-5.7,0-9.1,0.4-12.9,1.6
					c-3.5,1.1-8,2.7-11.5,6.1c-5.8,5.8-8.8,15.2-7.6,23.9c0.7,5,1.5,9.8,4.3,14.4c2,3.2,5.6,8,8.1,10.3c6.1,5.6,11.6,7.7,20.1,7.7
					c10,0,17.9-3.8,24.3-11.6c4.1-5,8.3-11.3,8.8-20.7v0c0.4-7.2-1.9-14.9-6.3-20.4C84.6,134,75,130,63.2,130z"/>
			</g>
			<g>
				<path d="M35,132.2C35,132.2,35,132.2,35,132.2c-0.2-0.1-0.3-0.2-0.2-0.3c1-2.7,2.3-5.6,3.9-8.8c4-7.7,10.1-16.5,18-26.2
					c18.8-22.9,42.1-51.5,74.6-60.9c2.7-0.8,5.6-1.5,8.6-1.1c2.5,0.3,4.9,1.4,7.2,2.5c2.4,1.1,4.9,2.3,7.6,2.5
					c0.1,0,0.2,0.1,0.2,0.3c0,0.1-0.1,0.2-0.3,0.2c-2.7-0.2-5.3-1.4-7.7-2.5c-2.2-1-4.6-2.1-7-2.4c-2.8-0.4-5.7,0.3-8.4,1.1
					C99.1,46,75.8,74.4,57.1,97.3c-7.9,9.7-14,18.4-18,26.1c-1.6,3.1-2.9,6-3.9,8.7C35.2,132.2,35.1,132.2,35,132.2z"/>
			</g>
			<g>
				<path d="M192.3,132.8C192.3,132.8,192.3,132.8,192.3,132.8c-0.2,0-0.3-0.1-0.2-0.3c2.3-15.9-4.5-32.8-11.1-47.3l-8.1-18
					c-4.3-9.4-9.5-20.1-17.5-26.8c-0.1-0.1-0.1-0.2,0-0.3c0.1-0.1,0.2-0.1,0.3,0c8.1,6.8,13.3,17.5,17.6,27l8.1,18
					c6.6,14.6,13.4,31.5,11.1,47.6C192.6,132.7,192.5,132.8,192.3,132.8z"/>
			</g>
			<g>
				<path d="M113.3,292c-7.7,0-15.7-1.6-23.3-4.8c-9.7-4.1-17.8-9.4-24.8-16.3c-20.5-20.3-27-50.2-33.3-79.2
					c-1.2-5.7-2.5-11.5-3.9-17.2c0-0.1,0-0.3,0.2-0.3c0.1,0,0.3,0.1,0.3,0.2c1.4,5.7,2.6,11.5,3.9,17.2c6.3,28.9,12.8,58.8,33.2,79
					c7,6.9,15,12.2,24.6,16.2c13.8,5.8,28.8,6.3,41.2,1.5c12.5-4.9,23.7-13.7,33.3-26.4c11.6-15.2,20.5-35.7,24.3-56.1
					c0.4-2.4,0.7-4.8,1-7.1c0.8-6.1,1.6-12.4,4.8-18c0.1-0.1,0.2-0.2,0.3-0.1c0.1,0.1,0.2,0.2,0.1,0.3c-3.2,5.4-4,11.7-4.7,17.8
					c-0.3,2.4-0.6,4.8-1,7.2c-3.8,20.5-12.7,41-24.4,56.3c-9.7,12.7-21,21.7-33.5,26.6C125.9,290.9,119.7,292,113.3,292z"/>
			</g>
			<g>
				<path d="M82,239.8c-0.5,0-1.1,0-1.6,0c-0.4,0-0.8,0-1.2-0.1l-0.9-0.1c-0.2,0-0.4-0.2-0.3-0.4c0-0.2,0.2-0.3,0.4-0.3l0.9,0.1
					c0.4,0,0.8,0,1.2,0.1c5.6,0.2,10.7-0.7,16-1.6c3.2-0.6,6.5-1.1,10-1.5c7.3-0.7,14.8,0,22.1,0.7c6.3,0.6,12.8,1.2,19.1,0.9l0.4,0
					c0.2,0,0.4,0.1,0.4,0.4c0,0.2-0.1,0.4-0.4,0.4l-0.4,0c-6.3,0.3-12.9-0.3-19.2-0.9c-7.2-0.7-14.7-1.4-22-0.7
					c-3.5,0.3-6.8,0.9-10,1.5C91.7,239,87.1,239.8,82,239.8z"/>
			</g>
			<g>
				<path d="M80.4,239.6c-0.1,0-0.2-0.1-0.2-0.2c0,0,0,0,0-0.1v-0.1l0.1-0.1c2.9-2,5.9-3.9,8.8-5.8c2.7-1.7,5.4-3.5,8.1-5.4
					c3.7-2.5,7.1-3.4,10-2.6c0.9,0.2,1.8,0.6,2.6,1c1.2,0.6,2.4,1.1,3.7,1.2c1.6,0.1,3.1-0.6,4.7-1.3c0.6-0.3,1.2-0.5,1.8-0.8
					c5.4-2,10.6,0.1,14,1.9c4.6,2.4,9.6,6,13.9,9.9c0.1,0.1,0.1,0.2,0,0.3c-0.1,0.1-0.2,0.1-0.3,0c-4.2-3.9-9.2-7.5-13.8-9.8
					c-5.3-2.8-9.6-3.4-13.6-1.9c-0.6,0.2-1.2,0.5-1.8,0.8c-1.6,0.7-3.2,1.4-4.9,1.3c-1.4-0.1-2.6-0.7-3.8-1.2
					c-0.8-0.4-1.7-0.8-2.5-1c-2.8-0.7-6,0.1-9.6,2.5c-2.7,1.8-5.5,3.6-8.1,5.4c-2.8,1.9-5.8,3.8-8.6,5.7v0.1L80.4,239.6z"/>
			</g>
			<g>
				<path d="M112.2,253.6c-0.3,0-0.7,0-1,0c-11.6-0.1-21.2-4.2-32.2-13.7c-0.1-0.1-0.1-0.2,0-0.3c0.1-0.1,0.2-0.1,0.3,0
					c10.9,9.4,20.4,13.5,31.9,13.6c12.9,0.2,29.8-2.4,36.7-15.2c0.2-0.3,0.3-0.6,0.5-0.9c0.1-0.1,0.2-0.2,0.3-0.1
					c0.1,0.1,0.2,0.2,0.1,0.3c-0.2,0.3-0.3,0.6-0.5,0.9C141.5,250.8,125.1,253.6,112.2,253.6z"/>
			</g>
			<g>
				<path d="M186.8,129.7c-2.5,0-4.7-1.9-5.6-2.9c-0.5-0.5-0.9-1-1.4-1.5c-1.3-1.4-2.5-2.8-4.2-3.6c-2.3-1.1-5-0.8-7.4-0.6l-1.1,0.1
					c-8,0.8-16,1.5-24,2.3c-0.7,0.1-1.4,0.2-2.1,0.3c-2.5,0.4-5.3,0.9-7.2-0.5c-0.7-0.5-3.1-6.6-2.7-8.2c0.1-0.3,0.3-0.4,0.4-0.4
					c0-0.1,0.1-0.1,0.1-0.1c12.2-4.5,26-4.9,38.1-5.2c0.1,0,0.3,0,0.4,0c9,0,13.1,8.7,16.6,16.4c0.6,1.2,1.1,2.3,1.6,3.4l0.1,0.3
					l-0.3,0.1C187.7,129.6,187.2,129.7,186.8,129.7z M171.3,120.4c1.5,0,3,0.2,4.4,0.8c1.8,0.8,3.1,2.3,4.4,3.7
					c0.4,0.5,0.9,1,1.4,1.5c1,1,3.6,3.3,6.3,2.6c-0.5-1-1-2-1.5-3.1c-3.6-7.7-7.6-16.4-16.6-16.1c-12.1,0.4-25.7,0.8-37.9,5.2
					c0,0.1-0.1,0.2-0.2,0.2c0,0,0,0-0.1,0.1c-0.4,1.3,2.1,7.3,2.5,7.6c1.7,1.3,4.4,0.8,6.8,0.4c0.8-0.1,1.5-0.2,2.1-0.3
					c8-0.8,16-1.5,24-2.3l1.1-0.1C169.1,120.5,170.2,120.4,171.3,120.4z"/>
			</g>
			<g>
				<path d="M39.3,130c-0.3,0-0.6,0-0.9-0.1l-0.2-0.1l0-0.2c0.1-1.9,0.6-3.9,1.7-5.8c1.3-2.3,3.2-4.5,5.9-6.9
					c8.2-7.1,18.1-6.5,28.5-6l1,0.1c6.4,0.3,19.6,1,20.9,8.8c0.3,1.7-0.1,3.4-0.4,4.9c-0.2,0.8-0.5,1.2-1.2,1.5
					c-0.1,0.1-0.3,0.1-0.4,0.2c-0.3,0.2-0.7,0.4-1,0.4c-3.5-0.6-7.1-1.4-10.6-2.3c-7.7-1.9-15.6-3.8-23.4-2.4
					c-5.4,1-10.7,3.1-17.3,6.8c0,0-0.1,0-0.1,0c-0.3,0.4-0.8,0.7-1.3,0.8C40.1,129.9,39.7,130,39.3,130z M38.7,129.4
					c0.5,0.1,1.1,0.1,1.6-0.1c0.5-0.2,0.9-0.5,1.2-0.8c0.1-0.1,0.1-0.1,0.1-0.1c0.1-0.1,0.2-0.1,0.3-0.1c6.5-3.7,11.8-5.7,17.2-6.7
					c7.9-1.4,15.9,0.5,23.6,2.4c3.5,0.8,7,1.7,10.5,2.3c0.2,0,0.4-0.1,0.7-0.3c0.2-0.1,0.3-0.2,0.5-0.3c0.6-0.3,0.8-0.5,0.9-1.2
					c0.3-1.5,0.6-3.1,0.4-4.7c-1.2-7.3-14.2-8-20.5-8.3l-1-0.1c-10.4-0.6-20.1-1.1-28.2,5.8c-2.7,2.3-4.6,4.5-5.8,6.7
					C39.4,125.8,38.8,127.6,38.7,129.4z"/>
			</g>
			<g>
				<path d="M137.3,149.1c-0.1,0-0.2,0-0.2-0.1c-0.1-0.1,0-0.3,0.1-0.3c1.4-0.8,2.6-2.1,3.7-3.4c0.9-1,1.9-2.1,3-2.9
					c2.4-1.7,5.3-2.5,8.4-3.1l0.6-0.1c1.5-0.3,2.8-0.6,4.4-0.4c0.7,0.1,1.4,0.3,2.2,0.5c1.9,0.7,4,1.9,6.2,3.6
					c1.1,0.9,2.3,1.8,3.4,2.6c1.2,0.9,2.3,1.8,3.5,2.7c0.1,0.1,0.1,0.2,0,0.3c-0.1,0.1-0.2,0.1-0.3,0c-1.2-0.9-2.4-1.8-3.5-2.7
					c-1.1-0.9-2.3-1.8-3.4-2.6c-2.2-1.7-4.2-2.9-6.1-3.5c-0.7-0.2-1.4-0.4-2.1-0.5c-1.6-0.2-2.8,0-4.3,0.4l-0.6,0.1
					c-3,0.6-5.9,1.3-8.2,3c-1,0.8-2,1.8-2.9,2.8c-1.1,1.3-2.3,2.6-3.8,3.5C137.4,149.1,137.4,149.1,137.3,149.1z"/>
			</g>
			<g>
				<path d="M158.1,154.6c-0.6,0-1.2,0-1.8,0c-2.5-0.1-5.2-0.5-8.5-1.2c-0.3-0.1-0.6-0.1-0.9-0.2c-3.3-0.7-7.8-1.6-10.2-4
					c-0.1-0.1-0.1-0.3,0-0.3c0.1-0.1,0.3-0.1,0.3,0c2.3,2.3,6.7,3.2,9.9,3.9c0.3,0.1,0.6,0.1,0.9,0.2c3.3,0.7,6,1.1,8.4,1.2
					c6.9,0.4,12-1.3,16.1-5.4c0.1-0.1,0.3-0.1,0.3,0c0.1,0.1,0.1,0.3,0,0.3C169,152.8,164.2,154.6,158.1,154.6z"/>
			</g>
			<g>
				<path d="M89.8,149c-0.1,0-0.1,0-0.2-0.1c-4.1-4.2-10.3-6.9-16.7-7.3c-0.1,0-0.2-0.1-0.2-0.3c0-0.1,0.1-0.2,0.3-0.2
					c6.5,0.4,12.8,3.2,17,7.4c0.1,0.1,0.1,0.3,0,0.3C89.9,149,89.8,149,89.8,149z"/>
			</g>
			<g>
				<path d="M54,152c-0.1,0-0.2,0-0.2-0.1c-0.1-0.1-0.1-0.3,0.1-0.3c1.5-1.1,2.7-2.5,3.9-4c1.3-1.6,2.7-3.3,4.5-4.4
					c1.1-0.6,2.4-1.1,4-1.5c1.8-0.4,3.8-0.6,5.8-0.5c0.2,0,0.4,0,0.6,0c0.1,0,0.2,0.1,0.2,0.3c0,0.1-0.1,0.2-0.3,0.2
					c-0.2,0-0.4,0-0.6,0c-2,0-3.9,0.1-5.7,0.5c-1.6,0.3-2.8,0.8-3.9,1.4c-1.8,1-3.1,2.7-4.4,4.3c-1.2,1.5-2.4,3-4,4.1
					C54.1,151.9,54,152,54,152z"/>
			</g>
			<g>
				<path d="M69.8,156.5c-1.3,0-2.5-0.1-3.6-0.4c-1.9-0.5-3.7-1.2-5.5-2c-1.9-0.8-3.9-1.6-6-2.1c-0.1,0-0.2-0.2-0.2-0.3
					c0-0.1,0.2-0.2,0.3-0.2c2.1,0.5,4.2,1.3,6.1,2.1c1.8,0.7,3.6,1.5,5.4,1.9c2,0.5,4.3,0.5,7,0.1c1.7-0.3,3.3-0.7,4.6-1.1
					c2.6-0.7,4.7-1.9,7-3.2c1.5-0.8,3.1-1.7,4.8-2.4c0.1-0.1,0.3,0,0.3,0.1c0.1,0.1,0,0.3-0.1,0.3c-1.7,0.7-3.2,1.6-4.7,2.4
					c-2.3,1.3-4.4,2.5-7.1,3.2c-1.3,0.4-3,0.8-4.7,1.1C72.1,156.4,70.9,156.5,69.8,156.5z"/>
			</g>
			<g>
				<path d="M72.2,155.7c-4,0-7.3-3.3-7.3-7.3c0-4,3.2-7.2,7.2-7.3h0.1c0.2,0,0.4,0,0.5,0c0.1,0,0.2,0,0.2,0
					c3.7,0.4,6.5,3.5,6.5,7.2c0,3.6-2.6,6.7-6.2,7.2C72.9,155.7,72.5,155.7,72.2,155.7z M72.1,141.6c-3.7,0-6.7,3.1-6.7,6.8
					c0,3.7,3,6.8,6.8,6.8c0.3,0,0.7,0,1-0.1c3.3-0.5,5.7-3.4,5.7-6.7c0-3.5-2.6-6.4-6-6.7l0,0c-0.1,0-0.1,0-0.2,0
					C72.5,141.6,72.3,141.6,72.1,141.6L72.1,141.6z"/>
			</g>
			<g>
				<path d="M156.7,153.8c-0.1,0-0.3,0-0.4,0c-3.9-0.2-6.9-3.4-6.9-7.3c0-4,3.3-7.3,7.3-7.3c0.9,0,1.7,0.1,2.5,0.4l0,0
					c2.9,1,4.8,3.8,4.8,6.8C164,150.6,160.8,153.8,156.7,153.8z M156.7,139.8c-3.7,0-6.8,3-6.8,6.8c0,3.6,2.8,6.6,6.4,6.8
					c0.1,0,0.2,0,0.4,0c3.7,0,6.8-3,6.8-6.8c0-2.8-1.8-5.4-4.4-6.4C158.3,139.9,157.5,139.8,156.7,139.8z"/>
			</g>
			<g>
				<path d="M51.7,147.6C51.7,147.6,51.7,147.6,51.7,147.6c-0.2,0-0.3-0.2-0.2-0.3c1.3-4.8,4.9-9,9.6-10.9c1.9-0.8,3.9-1.1,5.6-1.4
					c7.5-1.1,13.2-0.1,17.1,3.1c0.1,0.1,0.1,0.2,0,0.3c-0.1,0.1-0.2,0.1-0.3,0c-3.7-3.1-9.3-4.1-16.7-3c-1.7,0.3-3.6,0.6-5.5,1.3
					c-4.5,1.8-8.1,5.8-9.3,10.5C51.9,147.5,51.8,147.6,51.7,147.6z"/>
			</g>
			<g>
				<path d="M175.6,145.8c-0.1,0-0.2-0.1-0.2-0.2c-0.2-3.5-3.2-6.1-5.7-7.7c-4.1-2.6-8.9-4.2-13.7-4.5c-0.1,0-0.2-0.1-0.2-0.3
					c0-0.1,0.1-0.2,0.3-0.2c5,0.3,9.8,1.9,14,4.6c2.6,1.6,5.7,4.4,5.9,8.1C175.9,145.7,175.8,145.8,175.6,145.8
					C175.6,145.8,175.6,145.8,175.6,145.8z"/>
			</g>
			<g>
				<path d="M97.7,207c-0.1,0-0.1,0-0.2-0.1c-2-1.9-4.1-3.9-5.3-6.3c-2.2-4.6,0.5-8.8,3.1-12.8c1-1.5,1.9-2.9,2.5-4.2
					c0.3-0.6,0.6-1.3,0.7-2.1c0.1-0.6,0.1-1.3,0.1-1.9c0-0.2,0-0.4,0-0.6c0-0.5,0-1-0.1-1.5c-0.1-1.2-0.2-2.4,0.2-3.5
					c0-0.1,0.2-0.2,0.3-0.2c0.1,0,0.2,0.2,0.2,0.3c-0.3,1.1-0.2,2.2-0.2,3.3c0,0.5,0.1,1,0.1,1.5c0,0.2,0,0.4,0,0.6
					c0,0.7,0,1.3-0.1,2c-0.1,0.8-0.5,1.6-0.8,2.2c-0.7,1.4-1.6,2.8-2.6,4.3c-2.6,3.9-5.2,7.9-3.1,12.3c1.2,2.4,3.2,4.4,5.2,6.2
					c0.1,0.1,0.1,0.2,0,0.3C97.9,206.9,97.8,207,97.7,207z"/>
			</g>
			<g>
				<path d="M132.1,204.2c-0.1,0-0.2,0-0.2-0.1c-0.1-0.1,0-0.3,0.1-0.3c6-4.1,3.3-10.4,0.3-15.4c-1.2-2.1-1.6-4.2-1.9-6.2
					c-0.3-1.6-0.5-3.3-1.3-4.9c-0.3-0.7-0.4-1.3-0.5-1.8c-0.1-0.7-0.3-1.3-0.6-2c-0.1-0.1,0-0.3,0.1-0.3c0.1-0.1,0.3,0,0.3,0.1
					c0.4,0.8,0.6,1.5,0.7,2.2c0.1,0.6,0.2,1.1,0.5,1.7c0.7,1.7,1,3.4,1.3,5c0.4,2.1,0.7,4.1,1.9,6.1c3.1,5.2,5.8,11.7-0.5,16
					C132.2,204.2,132.2,204.2,132.1,204.2z"/>
			</g>
			<g>
				<path d="M101.1,205.3c-0.3,0-0.6-0.2-0.9-0.6c-1-1.5-0.9-3.8,0.3-5.2c0.3-0.3,0.5-0.5,0.8-0.6c0.3-0.2,0.7-0.2,1-0.3
					c1.6-0.1,3.2,0.5,4.4,1.5c1.1,1.1,1.8,2.7,1.8,4.3c0,0.1-0.1,0.2-0.3,0.2c-0.1,0-0.2-0.1-0.2-0.3c0-1.4-0.6-2.9-1.6-3.9
					c-1-1-2.5-1.5-4-1.4c-0.3,0-0.6,0.1-0.8,0.2c-0.2,0.1-0.4,0.3-0.6,0.5c-1.1,1.3-1.2,3.2-0.3,4.6c0.1,0.2,0.3,0.4,0.5,0.4
					c0.1,0,0.3,0,0.3,0.2c0,0.1,0,0.3-0.2,0.3C101.3,205.3,101.2,205.3,101.1,205.3z"/>
			</g>
			<g>
				<path d="M120.9,203.9c-0.1,0-0.1,0-0.2-0.1c-0.1-0.1-0.1-0.3,0-0.3c1.3-1.1,2.5-2.3,3.8-3.4c0.5-0.4,0.9-0.8,1.5-1.1
					c0.7-0.3,1.4-0.3,2,0c0.7,0.4,1,3,0.7,3.5c-0.1,0.1-0.2,0.2-0.3,0.1c-0.1-0.1-0.2-0.2-0.1-0.3c0.2-0.5-0.2-2.7-0.5-2.9
					c-0.4-0.2-1-0.2-1.5,0c-0.5,0.2-1,0.6-1.4,1c-1.3,1.1-2.6,2.3-3.8,3.4C121,203.9,120.9,203.9,120.9,203.9z"/>
			</g>
			<g>
				<path d="M65.9,161.8c-0.1,0-0.2-0.1-0.2-0.2c0-0.1,0.1-0.2,0.2-0.3c2.9-0.1,5.8-0.8,8.7-1.5l0.1,0c2.4-0.6,5-1.3,6.8-3.1
					c0.1-0.1,0.3-0.1,0.3,0c0.1,0.1,0.1,0.3,0,0.3c-1.9,1.9-4.8,2.7-7.1,3.3l-0.1,0C71.8,160.9,68.9,161.7,65.9,161.8
					C65.9,161.8,65.9,161.8,65.9,161.8z"/>
			</g>
			<g>
				<path d="M162.5,161.3C162.5,161.3,162.5,161.3,162.5,161.3c-3.9-0.6-7.6-1.7-11-3.4l-0.1,0c-0.5-0.3-1.1-0.5-1.7-0.5
					c-0.1,0-0.2-0.1-0.3-0.2c0-0.1,0.1-0.2,0.2-0.3c0.7,0,1.3,0.3,1.9,0.6l0.1,0c3.4,1.7,7.1,2.8,10.8,3.3c0.1,0,0.2,0.1,0.2,0.3
					C162.7,161.2,162.6,161.3,162.5,161.3z"/>
			</g>
			<g>
				<path d="M129.3,261.8c-0.1,0-0.1,0-0.2-0.1c-1.1-1-2.3-1.9-3.6-2.4c-1.9-0.7-4.1-0.6-6.2-0.5c-0.6,0-1.1,0.1-1.7,0.1
					c-1,0-2,0-3,0c-2.3,0-4.6,0.1-6.9,0.2c-2.4,0.1-5.4,0.5-7.6,2.5c-0.1,0.1-0.3,0.1-0.3,0c-0.1-0.1-0.1-0.3,0-0.3
					c2.3-2.1,5.4-2.5,7.9-2.7c2.3-0.1,4.6-0.2,6.9-0.2c1,0,2,0,3,0c0.5,0,1.1,0,1.6-0.1c2.2-0.1,4.4-0.2,6.4,0.5
					c1.3,0.5,2.6,1.5,3.7,2.5c0.1,0.1,0.1,0.2,0,0.3C129.4,261.8,129.3,261.8,129.3,261.8z"/>
			</g>
			<g>
				<path d="M98.3,137.2c-0.1,0-0.2,0-0.2-0.1c-0.1-0.1,0-0.3,0.1-0.3c3.1-2.1,7-2.6,10.3-2.8c7.4-0.5,14.8,0.1,22,1.7
					c0.1,0,0.2,0.2,0.2,0.3c0,0.1-0.2,0.2-0.3,0.2c-7.2-1.6-14.5-2.2-21.9-1.7c-3.3,0.2-7.1,0.7-10.1,2.8
					C98.4,137.2,98.4,137.2,98.3,137.2z"/>
			</g>
			<g>
				<path d="M125.6,164.8c-0.1,0-0.2-0.1-0.2-0.2c-1-3.5-0.9-6.9-0.8-10.5c0-0.5,0-1,0-1.5c0-0.6,0-1.2,0.3-1.7
					c0.2-0.4,0.5-0.8,0.9-1.1c0.2-0.2,0.4-0.4,0.5-0.6c1.2-1.6,0.4-4.1-1-5.4c-1.7-1.5-4.1-1.9-5.8-2c-5.1-0.5-10.3,0.3-15,2.3
					c-0.7,0.3-1.4,0.6-1.9,1.2c-1.2,1.3-0.8,3.5-0.3,5.4c0.3,1,0.6,2.2,1.4,2.8c0.1,0.1,0.2,0.2,0.4,0.2c0.1,0.1,0.2,0.2,0.1,0.3
					c-0.1,0.1-0.2,0.2-0.3,0.1c-0.2-0.1-0.3-0.2-0.4-0.3c-0.9-0.7-1.3-2-1.6-3.1c-0.5-2-0.9-4.3,0.4-5.9c0.6-0.7,1.4-1,2.1-1.3
					c4.8-2,10.1-2.8,15.3-2.4c1.8,0.2,4.3,0.6,6.1,2.1c1.6,1.4,2.5,4.2,1.1,6.1c-0.2,0.2-0.4,0.5-0.6,0.7c-0.3,0.3-0.6,0.6-0.8,1
					c-0.2,0.5-0.2,1-0.2,1.5c0,0.5,0,1,0,1.5c-0.1,3.6-0.2,6.9,0.8,10.4C125.9,164.6,125.8,164.8,125.6,164.8
					C125.7,164.8,125.7,164.8,125.6,164.8z"/>
			</g>
			<g>
				<path d="M63.4,199.1c-0.1,0-0.1,0-0.2,0c-2.5,0-5.1-0.7-7.1-1.2c-2.8-0.7-5.9-1.5-8.7-3c-4.6-2.3-8.2-6.3-11.4-9.8
					c-2.1-2.3-4.3-4.7-5.9-7.5c-0.6-1-1-2.1-1.5-3.3c-0.8-2-1.3-4.1-1.8-6.2c-1.2-4.7-2.5-9.5-3.7-14.2c-0.2-0.8-0.5-1.9-1.2-2.4
					c-0.4-0.3-0.9-0.4-1.4-0.6c-0.1,0-0.3-0.1-0.4-0.1c-3.8-1.2-6.5-5.2-6.2-9.1c0.1-0.9,0.3-1.7,0.7-2.4c1.3-2.2,4.1-2.7,6.6-3.1
					c5-0.9,9.9-2.4,14.2-3.8c0.7-0.2,1.5-0.5,2.2-0.7c1.1-0.4,2.2-0.7,3.4-1.1c1-0.3,1.9-0.6,2.9-0.9c6.5-2,15-4.2,23.3-3
					c4,0.6,7.9,1.9,11.7,3.2l19.4,6.7c0.1,0,0.2,0.2,0.2,0.3s-0.2,0.2-0.3,0.2l-19.4-6.7c-3.7-1.3-7.6-2.6-11.6-3.2
					c-8.2-1.2-16.7,1-23.1,3c-1,0.3-1.9,0.6-2.9,0.9c-1.1,0.4-2.2,0.7-3.4,1.1c-0.7,0.2-1.5,0.5-2.2,0.7c-4.3,1.4-9.2,3-14.2,3.8
					c-2.4,0.4-5.1,0.9-6.3,2.9c-0.3,0.6-0.5,1.3-0.6,2.2c-0.3,3.7,2.3,7.5,5.8,8.6c0.1,0,0.3,0.1,0.4,0.1c0.5,0.2,1.1,0.3,1.6,0.7
					c0.9,0.7,1.2,1.8,1.4,2.7c1.2,4.7,2.5,9.5,3.7,14.2c0.5,2,1.1,4.1,1.8,6.1c0.5,1.2,0.9,2.3,1.5,3.3c1.5,2.8,3.7,5.1,5.8,7.4
					c3.4,3.6,6.8,7.4,11.3,9.7c2.8,1.4,5.9,2.2,8.6,2.9c2,0.5,4.6,1.2,7,1.2c0,0,0.1,0,0.1,0c2.8,0,5.5-0.8,8.2-1.5
					c2.8-0.8,5.8-1.6,8.5-2.8c6-2.7,11.4-7.8,15.5-14.7c3.8-6.4,6.3-13.7,8.2-20.1c0.6-1.9,1-4.5-0.5-5.6c-0.1-0.1-0.2-0.1-0.3-0.2
					c-0.1-0.1-0.1-0.2-0.1-0.3c0.1-0.1,0.2-0.1,0.3-0.1c0.1,0.1,0.2,0.2,0.3,0.2c1.7,1.3,1.3,4.1,0.7,6.2
					c-1.9,6.4-4.4,13.8-8.3,20.2c-4.2,6.9-9.6,12.1-15.7,14.8c-2.8,1.3-5.7,2.1-8.5,2.9C69,198.3,66.2,199.1,63.4,199.1z"/>
			</g>
			<g>
				<path d="M163.9,199c-3,0-6.1-0.4-9.1-1.3c-6.7-1.8-12.9-5.7-18-11.1c-5.7-6.1-9.7-13.9-11.2-22.1l0-0.1c0-0.2-0.1-0.4-0.1-0.6
					c0-0.1,0.1-0.3,0.2-0.3c0.1,0,0.3,0.1,0.3,0.2c0,0.2,0.1,0.4,0.1,0.6l0,0.1c1.5,8.1,5.4,15.9,11.1,21.8
					c5,5.3,11.2,9.1,17.8,10.9c7,1.9,14.4,1.6,20.7-1c3.2-1.3,6.4-3.2,10-6.1c3.1-2.5,5.4-4.7,7.1-7c0.6-0.8,1.2-1.8,1.8-2.8
					c2.4-4.3,3.9-9.4,5.1-13.8l0.2-0.6c0.6-2.3,1.3-4.6,1.9-6.9c1.1-3.9,2.4-7.8,5.7-9.7c0.3-0.2,0.7-0.3,1-0.5
					c0.7-0.3,1.3-0.6,1.8-1.1c1.5-1.5,1.4-3.9,1-6.4c-0.1-0.5-0.2-1-0.4-1.5c-0.5-0.9-1.7-1.2-3-1.5c-5.4-1.2-10.8-2.9-15.9-5.1
					c-0.8-0.4-1.7-0.7-2.4-1.1c-0.6-0.3-1.1-0.5-1.7-0.8c-1.6-0.8-3.3-1.6-5-2.2c-2.4-0.9-5-1.4-7.5-2c-3.8-0.8-7.6-1.7-11.5-1.4
					c-3,0.2-5.8,1-9,2l-0.2,0.1c-8.2,2.6-16,5-24.1,8.2l-0.1,0.1c-0.1,0-0.3,0-0.3-0.1c0-0.1,0-0.3,0.1-0.3l0.1-0.1
					c8.1-3.3,15.9-5.7,24.2-8.3l0.2-0.1c3.2-1,6.1-1.8,9.1-2c3.9-0.2,7.8,0.6,11.6,1.4c2.5,0.6,5.1,1.1,7.6,2c1.7,0.6,3.4,1.4,5,2.2
					c0.6,0.3,1.1,0.5,1.7,0.8c0.8,0.4,1.6,0.7,2.4,1.1c5.1,2.2,10.4,3.9,15.8,5c1.1,0.2,2.6,0.6,3.3,1.8c0.3,0.5,0.4,1.1,0.5,1.7
					c0.4,2.6,0.5,5.2-1.2,6.8c-0.6,0.5-1.3,0.9-1.9,1.2c-0.3,0.2-0.6,0.3-0.9,0.5c-3.1,1.8-4.4,5.6-5.5,9.4
					c-0.7,2.3-1.3,4.6-1.9,6.9l-0.2,0.6c-1.3,4.5-2.7,9.6-5.2,14c-0.6,1.1-1.2,2-1.9,2.9c-1.7,2.3-4,4.6-7.2,7.1
					c-3.7,2.9-6.9,4.8-10.2,6.2C172.1,198.3,168,199,163.9,199z"/>
			</g>
			<g>
				<path class="st6" d="M63.7,193.6c-8.3,0-13.9-2.1-19.8-7.6c-2.7-2.5-6.2-7.4-7.9-10.1c-2.8-4.5-3.6-9.3-4.3-14.1
					c-1.2-8.7,1.8-18,7.5-23.7c3.4-3.4,7.9-5.1,11.3-6.1c4.2-1.3,7.8-1.5,12.5-1.6c0.1,0,0.1,0,0.2,0c11.6,0,21,3.9,26.6,11.1
					c4.3,5.5,6.6,13.1,6.2,20.2c-0.5,9.2-4.6,15.5-8.6,20.4C81.3,189.8,73.5,193.6,63.7,193.6z M63.3,131.8c-0.1,0-0.1,0-0.2,0
					c-5.5,0-8.5,0.4-12.1,1.5c-3.3,1-7.5,2.6-10.7,5.7c-5.4,5.4-8.2,14.3-7.1,22.5c0.8,5.8,1.7,9.7,4.1,13.6c1.9,3,5.3,7.6,7.6,9.7
					c5.7,5.2,10.8,7.2,18.8,7.2c9.3,0,16.8-3.6,22.8-10.9c3.8-4.7,7.8-10.7,8.3-19.5l0,0c0.4-6.8-1.8-14-5.9-19.2
					C83.5,135.6,74.4,131.8,63.3,131.8z"/>
			</g>
			<g>
				<path d="M163.8,195.1c-17.6,0-33.1-15.5-33.1-33.1c0-6.2,0.2-12.1,3-16.8c5.9-10,19.4-14.4,30.1-14.4c8.9,0,20.8,1.2,26.4,6.8
					c6,6,8.3,18.7,6.9,27l0,0c-1.3,7.6-4.8,14.8-10.3,21C181.1,192,173.6,195.1,163.8,195.1z M163.8,131.3
					c-10.6,0-23.9,4.4-29.7,14.2c-2.7,4.6-2.9,10.4-2.9,16.6c0,17.4,15.2,32.6,32.6,32.6c9.7,0,17.1-3.1,22.7-9.3
					c5.4-6.1,8.9-13.2,10.2-20.7c1.4-8.2-0.8-20.7-6.7-26.6C185.5,133.6,176.4,131.3,163.8,131.3z M196.9,164.6L196.9,164.6
					L196.9,164.6z"/>
			</g>
			<g>
				<path d="M154.6,40.4c-0.1,0-0.2-0.1-0.2-0.2c0-0.1,0-0.3,0.2-0.3c0.3-0.1,0.6-0.1,0.9-0.3c4-1.3,7.9-4.4,9.9-8.1
					c0-0.1,0.1-0.1,0.1-0.2l0.1-0.1c0-0.1,0.2-0.2,0.3-0.2c0.1,0,0.2,0.2,0.2,0.3c0,0,0,0.1,0,0.1l-0.1,0.1c0,0.1-0.1,0.2-0.1,0.2
					c-2.1,3.7-6.1,7-10.1,8.3C155.2,40.3,154.9,40.3,154.6,40.4C154.6,40.4,154.6,40.4,154.6,40.4z"/>
			</g>
			<g>
				<path d="M36.1,428.8c-11,0-22-2.1-31-5.9c-0.1-0.1-0.2-0.2-0.1-0.3c0.1-0.1,0.2-0.2,0.3-0.1c21.1,8.9,53,8.7,70-7
					c2.8-2.6,5.2-6,7.1-10c1.9-4,2.9-7.9,2.8-11.4c-0.1-6.9-3.9-12.7-7.6-18.3c-2-3-4-6.1-5.4-9.3c-4.5-10-4.7-21.1-4.3-30.7
					c0.1-3.3,0.3-6.6,0.5-9.7l0.1-2.1c0.1-2.1,0.3-4.3,0.4-6.4c1.1-15.8,2.2-32.2-3.9-46.8l-0.1-0.2c-0.1-0.1,0-0.3,0.1-0.3
					c0.1,0,0.3,0,0.3,0.1l0.1,0.2c6.1,14.7,5,31.1,3.9,47c-0.1,2.1-0.3,4.3-0.4,6.4l-0.1,2.1c-0.2,3.2-0.4,6.5-0.5,9.7
					c-0.4,9.5-0.1,20.5,4.3,30.4c1.4,3.2,3.4,6.3,5.4,9.3c3.7,5.6,7.5,11.5,7.7,18.5c0.1,3.6-0.9,7.5-2.9,11.6
					c-1.9,4.1-4.4,7.5-7.3,10.1C65.8,424.8,51,428.8,36.1,428.8z"/>
			</g>
			<g>
				<path d="M8,302.8C8,302.8,8,302.8,8,302.8c-0.1,0-0.2-0.1-0.2-0.3c0.3-18.7,0.3-37.7,0.3-56.1c0-30.9,0-62.8,1.6-94.2
					c1.9-35.4,8.2-65.7,19.3-92.5C37.7,39,57.6,19.5,78.5,11.3c10.8-4.3,22.9-6.4,34.8-6.1c11.9,0.3,23.9,3,34.5,7.8
					c7.4,3.3,16.4,9.3,17.6,18.6c0,0.1-0.1,0.3-0.2,0.3c-0.1,0-0.3-0.1-0.3-0.2c-1.2-9.1-10.1-15-17.4-18.2
					c-21.4-9.6-47.1-10.3-68.9-1.7C57.9,19.9,38.1,39.3,29.5,60c-11.1,26.8-17.4,57-19.3,92.3c-1.7,31.3-1.6,63.3-1.6,94.1
					c0,18.4,0,37.4-0.3,56.1C8.2,302.7,8.1,302.8,8,302.8z"/>
			</g>
			<g>
				<path d="M203.6,424.7c-9.4,0-15-8.1-19.7-17.2c-5.9-11.6-11.2-22.9-12.8-35c-0.7-5.4-0.7-10.8-0.7-16.3l0-1.4
					c0.1-6.6,0.1-13.4-1.1-20.2c-4.3-25.7-5.9-50.1-4.7-72.6c0-0.1,0.1-0.2,0.3-0.2c0.1,0,0.2,0.1,0.2,0.2
					c-1.2,22.5,0.4,46.9,4.7,72.5c1.2,6.9,1.1,13.7,1.1,20.3l0,1.4c0,5.5,0,10.9,0.7,16.3c1.5,12,6.7,22.9,12.7,34.8
					c6,11.8,13.6,21.7,28.8,14.5c6.6-3.1,13-6.3,18.2-11.1c14.5-13.1,9.9-34.7,5.9-53.8c-0.9-4.3-1.8-8.4-2.4-12.2
					c-6-38.3-8.3-77.8-10.5-115.9c-2.1-35.7-4.3-72.7-9.5-108.4c-4.9-33.8-17.1-61.8-35.5-81c-3.4-3.6-8-7.7-13.5-7.5c0,0,0,0,0,0
					c-0.1,0-0.2-0.1-0.2-0.2c0-0.1,0.1-0.2,0.2-0.3c5.7-0.1,10.4,4.1,13.8,7.7c18.4,19.3,30.7,47.5,35.6,81.3
					c5.2,35.7,7.4,72.7,9.5,108.4c2.3,38.1,4.6,77.6,10.5,115.9c0.6,3.8,1.5,7.9,2.4,12.2c4.1,19.2,8.6,41-6.1,54.3
					c-5.3,4.8-11.7,8-18.4,11.1C209.7,423.9,206.4,424.7,203.6,424.7z"/>
			</g>
			<g>
				<path d="M132.8,391.9c-2,0-3.9-0.1-5.6-0.2c-5-0.3-10.9-0.9-16.2-3.2c-10.7-4.5-25.5-14.7-31.9-24.7c-3.7-5.7-5.3-11.4-6.9-16.9
					c-1-3.6-2.1-7.3-3.7-11c-0.1-0.1,0-0.3,0.1-0.3c0.1-0.1,0.3,0,0.3,0.1c1.6,3.7,2.7,7.5,3.8,11.1c1.6,5.5,3.2,11.2,6.8,16.8
					c6.1,9.5,20.9,19.9,31.7,24.5c5.2,2.2,11,2.8,16,3.1c7.3,0.5,16.6,0.4,24.3-3.8c10.6-5.9,14.1-16.9,17.8-28.6
					c0.3-0.9,0.6-1.8,0.9-2.7c0-0.1,0.2-0.2,0.3-0.2c0.1,0,0.2,0.2,0.2,0.3c-0.3,0.9-0.6,1.8-0.9,2.7c-3.7,11.8-7.3,22.9-18.1,28.9
					C145.8,391.1,138.9,391.9,132.8,391.9z"/>
			</g>
			<g>
				<path d="M5.2,422.8C5.2,422.8,5.2,422.8,5.2,422.8c-0.1,0-0.3-0.1-0.2-0.3c0.6-10.9,1.9-21.9,3.2-32.5c1.2-9.5,2.4-19.4,3-29.1
					c0.9-14.2-0.7-28.8-2.3-42.9c-0.6-5.1-1.1-10.4-1.6-15.5l-0.1-1c0-0.1,0.1-0.3,0.2-0.3c0.1,0,0.3,0.1,0.3,0.2l0.1,1
					c0.4,5.1,1,10.4,1.6,15.5c1.6,14.1,3.2,28.8,2.3,43c-0.6,9.8-1.9,19.6-3,29.2c-1.3,10.6-2.7,21.6-3.2,32.4
					C5.5,422.7,5.3,422.8,5.2,422.8z"/>
			</g>
		</g>
	</g>
	<g>
		<g>
			<g>
				<path class="st9" d="M29.3,162.9c0.5,0,1,0.1,1.4,0.2c-0.1-0.4-0.1-0.9-0.2-1.4c-0.6-4.4-0.2-8.9,1.1-13.1
					c-0.3,0-0.5,0.1-0.8,0.1c-2.8,0-4.2-2.3-4.1-4.5c-0.3,0-0.6-0.1-0.9-0.2c-0.8,0.7-1.9,1.2-3,1.2c-0.1,0-0.3,0-0.4,0
					c-0.6,0-1.1-0.1-1.7-0.4c-0.7,0.7-1.6,1.1-2.9,1.1c-5.5,0-5.5-8.5,0-8.5c0.6,0,1.2,0.1,1.7,0.3c0.8-0.7,1.8-1.1,2.8-1.1
					c0.1,0,0.3,0,0.4,0c0.6,0,1.2,0.1,1.7,0.4c0.6-0.5,1.4-0.8,2.5-0.8c2.5,0,3.8,1.9,3.8,3.9c1.8,0,3,0.9,3.6,2.2
					c0.4-0.7,0.9-1.4,1.3-2c0,0,0,0-0.1,0c-4,0-5.1-4.5-3.2-7c-3.9,1.2-7.7,2.3-11.7,3c-2.4,0.4-5.2,0.9-6.4,3
					c-0.4,0.7-0.6,1.5-0.6,2.3c-0.3,3.8,2.3,7.7,6,8.9c0.1,0,0.2,0.1,0.3,0.1c-0.5-2.4,0.9-5.2,4-5.2c3.8,0,5,4.1,3.5,6.6
					c3.5,1.4,2.9,7.6-1.6,7.6c-0.6,0-1.1-0.1-1.5-0.3c0.5,1.8,0.9,3.6,1.4,5.3C26.5,163.8,27.6,162.9,29.3,162.9z"/>
			</g>
		</g>
		<g>
			<g>
				<path class="st9" d="M140.1,189.9c0.1,0.1,0.1,0.1,0.2,0.2c0.1-0.2,0.1-0.4,0.2-0.6C140.5,189.6,140.3,189.7,140.1,189.9z"/>
			</g>
		</g>
		<g>
			<g>
				<path class="st9" d="M78.9,132.8c0.2,0.1,0.5,0.2,0.7,0.3c0.3-0.8,0.8-1.5,1.5-2c-0.6-0.2-1.2-0.4-1.8-0.6
					C79.4,131.3,79.2,132.1,78.9,132.8z"/>
			</g>
		</g>
		<g>
			<g>
				<path class="st9" d="M60.5,129.9c0.4,0,0.7,0,1.1,0c-0.2-1.1,0-2.3,0.6-3.3c-0.7,0-1.3,0-2,0C60.7,127.6,60.8,128.8,60.5,129.9z
					"/>
			</g>
		</g>
		<g>
			<g>
				<path class="st9" d="M27.5,171c0.1,0.3,0.2,0.6,0.3,0.9c0-0.3,0.1-0.5,0.1-0.8C27.7,171.2,27.6,171.1,27.5,171z"/>
			</g>
		</g>
		<g>
			<g>
				<path class="st9" d="M96.2,165.5c-0.2,0.9-0.3,1.8-0.6,2.7c0.2,0,0.4-0.1,0.7-0.1c2,0,3.2,1.2,3.7,2.7c0.6-1.5,1.2-3.1,1.7-4.6
					c-0.6,0.4-1.4,0.7-2.4,0.7C97.9,166.9,96.9,166.4,96.2,165.5z"/>
			</g>
		</g>
		<g>
			<g>
				<path class="st9" d="M28.4,174.1c0.1,0.3,0.2,0.6,0.4,0.9c0-0.2,0.1-0.3,0.2-0.5C28.8,174.4,28.6,174.3,28.4,174.1z"/>
			</g>
		</g>
		<g>
			<g>
				<path class="st9" d="M97.4,158.8c-0.3-0.1-0.5-0.2-0.8-0.3c0,0.3,0,0.5,0,0.8C96.9,159.1,97.1,159,97.4,158.8z"/>
			</g>
		</g>
		<g>
			<g>
				<path class="st9" d="M180.7,133.1c1,0.3,2.1,0.6,3,1c0.1-1.5,0.8-2.9,2.1-3.6c-1-0.5-2-0.9-3.1-1.3c-0.9-0.3-1.9-0.6-2.8-0.9
					C181.2,129.5,181.4,131.5,180.7,133.1z"/>
			</g>
		</g>
		<g>
			<g>
				<path class="st9" d="M96.7,146.3c-0.3,0.1-0.7,0.1-1.1,0.1c-0.9,0-1.7-0.3-2.3-0.7c0.9,1.7,1.6,3.6,2.2,5.5
					c0.5-1.4,1.7-2.4,3.6-2.4c1,0,1.9,0.3,2.5,0.9c-0.2-0.8-0.3-1.6-0.2-2.4c-0.5,0.2-1,0.3-1.5,0.3
					C98.4,147.6,97.4,147.1,96.7,146.3z"/>
			</g>
		</g>
		<g>
			<g>
				<path class="st9" d="M160.9,194.8c-0.9-0.1-1.9-0.2-2.8-0.4c0.7,1.2,0.7,2.7,0.2,4c1,0.2,2,0.3,3,0.3
					C160.6,197.6,160.5,196.1,160.9,194.8z"/>
			</g>
		</g>
		<g>
			<g>
				<path class="st9" d="M190.6,138.7c0-0.2,0.1-0.5,0.2-0.7c0,0,0,0,0,0c-0.2,0.1-0.5,0.1-0.7,0.1
					C190.3,138.3,190.5,138.5,190.6,138.7z"/>
			</g>
		</g>
		<g>
			<g>
				<path class="st9" d="M123.6,142.4c-0.1,0-0.2,0.1-0.3,0.1c0.1,0,0.2,0.1,0.3,0.1C123.6,142.6,123.6,142.5,123.6,142.4z"/>
			</g>
		</g>
		<g>
			<g>
				<path class="st9" d="M147.7,190.6c0,0.1,0,0.2,0.1,0.4c0.1-0.1,0.2-0.1,0.3-0.1C148,190.7,147.9,190.7,147.7,190.6z"/>
			</g>
		</g>
		<g>
			<g>
				<path class="st9" d="M118.9,141.6c0.1,0,0.2,0,0.3,0c-0.1-0.1-0.1-0.1-0.2-0.2C119,141.5,118.9,141.5,118.9,141.6z"/>
			</g>
		</g>
		<g>
			<g>
				<path class="st9" d="M87.3,138C87.3,138,87.3,138,87.3,138C87.3,138,87.3,138,87.3,138C87.3,138,87.3,138,87.3,138z"/>
			</g>
		</g>
		<g>
			<g>
				<path class="st9" d="M141.1,188.6c0.5-0.6,1.2-1,2.1-1.1c-0.6-0.4-1.1-0.9-1.6-1.4C141.7,187,141.5,187.9,141.1,188.6z"/>
			</g>
		</g>
		<g>
			<g>
				<path class="st9" d="M128.5,160.3c0.9,0,1.6,0.2,2.2,0.6c0-5.5,0.4-11.1,3-15.5c2.1-3.5,5.3-6.5,9-8.7c-1.7-0.7-2.5-2.5-2.4-4.3
					c-1.7,0.6-3.4,1.2-5.1,1.8c4,1,3.7,7.8-1.1,7.8c-1.1,0-1.9-0.4-2.6-0.9c0.8,2.5-0.5,5.7-3.9,5.7c-0.3,0-0.5,0-0.8-0.1
					c0.1,0.5,0,0.9,0,1.4c4.4,0.7,4.2,7.9-0.7,7.9c-0.6,0-1.1-0.1-1.6-0.3c-0.1,2.2,0,4.4,0.3,6.6
					C125.5,161.1,126.7,160.3,128.5,160.3z"/>
			</g>
		</g>
		<g>
			<g>
				<path class="st9" d="M132.6,172.8c-0.3-0.7-0.5-1.5-0.7-2.3c-0.6,1.2-1.7,2.1-3.4,2.1c-0.2,0-0.4,0-0.6,0
					c0.1,0.2,0.2,0.4,0.3,0.7c0.7-0.6,1.5-0.9,2.6-0.9C131.5,172.4,132.1,172.6,132.6,172.8z"/>
			</g>
		</g>
		<g>
			<g>
				<path class="st9" d="M42.2,130.3c-0.2,0.1-0.4,0.1-0.6,0.2c0.2,0,0.4,0.1,0.6,0.2C42.2,130.5,42.2,130.4,42.2,130.3z"/>
			</g>
		</g>
		<g>
			<g>
				<path class="st9" d="M37.6,131.8c-0.2,0.1-0.3,0.1-0.5,0.2c0.1,0,0.2,0.1,0.3,0.1C37.4,132,37.5,131.9,37.6,131.8z"/>
			</g>
		</g>
		<g>
			<g>
				<path class="st9" d="M61.9,194.3c-0.7,0-1.3-0.1-2-0.1c0.2,1.5-0.3,3.2-1.6,4.1c1.1,0.2,2.1,0.4,3.2,0.5
					C60.3,197.7,60.4,195.3,61.9,194.3z"/>
			</g>
		</g>
		<g>
			<g>
				<path class="st9" d="M147.8,129.9c-0.1,0-0.2,0.1-0.2,0.1c0,0,0,0,0,0.1C147.7,130,147.7,130,147.8,129.9z"/>
			</g>
		</g>
		<g>
			<g>
				<path class="st9" d="M186.3,185.6c-0.3,0.4-0.7,0.7-1,1.1c1.1,0.4,1.8,1.3,2.2,2.3c0.7-0.6,1.4-1.2,2.1-1.9c-0.1,0-0.1,0-0.2,0
					C188,187.1,187,186.5,186.3,185.6z"/>
			</g>
		</g>
		<g>
			<g>
				<path class="st9" d="M161.7,131.2c0.6,0,1.2,0,1.8,0c1.3,0,2.6,0,4,0.1c0-0.1,0-0.2-0.1-0.3c-0.3,0.1-0.6,0.1-0.9,0.1
					c-3.1,0-3.6-4.1-1.4-5.3c-0.5,0-1,0-1.5,0c-0.7,0-1.3,0.1-2,0.2C162.7,127.5,162.7,129.7,161.7,131.2z"/>
			</g>
		</g>
		<g>
			<g>
				<path class="st9" d="M152,132.7c1.2-0.3,2.4-0.6,3.6-0.8c-1.1-1-1.5-2.5-1.3-4c-1.8,0.6-3.6,1.1-5.3,1.7c0.1,0,0.2,0,0.3,0
					C151.2,129.5,152.1,131.2,152,132.7z"/>
			</g>
		</g>
		<g>
			<g>
				<path class="st9" d="M77.4,191.2c-0.6,0.3-1.2,0.6-1.8,0.8c0.7,1.2,0.8,2.8,0.3,4.1c1.4-0.4,2.7-0.9,4-1.5
					c0.1,0,0.1-0.1,0.2-0.1C78.5,194.1,77.6,192.7,77.4,191.2z"/>
			</g>
		</g>
		<g>
			<g>
				<path class="st9" d="M68,194c-1,0.1-2,0.2-3.1,0.3c1.5,1,1.6,3.3,0.4,4.5c1.5-0.2,2.9-0.5,4.3-0.9C68.4,197,67.9,195.5,68,194z"
					/>
			</g>
		</g>
		<g>
			<g>
				<path class="st9" d="M86.4,184.2c-1,1.1-2,2.1-3.1,3c1.5,0.9,2,2.8,1.6,4.4c1.9-1.4,3.7-3,5.3-4.7
					C88.2,186.9,86.9,185.7,86.4,184.2z"/>
			</g>
		</g>
		<g>
			<g>
				<path class="st9" d="M207.9,146.2c-5,0-5.1-7.7-0.2-7.9c-4.7-1-9.2-2.4-13.7-4.2c0,0.3,0,0.5-0.1,0.8c0.5,0.1,0.9,0.2,1.3,0.5
					c2,0.2,3.2,1.6,3.5,3.3c3.3,1.6,2.7,7.6-1.7,7.6c-1,0-1.9-0.3-2.5-0.9c1,2.4,1.7,5.1,2.1,7.8c0.2,0,0.3-0.1,0.5-0.1
					c-0.2-1.7,0.5-3.6,2.1-4.4c-0.2-1.5,0.7-3.2,2.7-3.2c2.4,0,3.2,2.5,2.4,4.2c0.5,0.6,0.8,1.3,0.9,2.1c0.6-0.8,1.4-1.5,2.3-2
					c0.9-0.6,2-0.9,2.8-1.7c1.2-1.2,1.4-2.9,1.3-4.7C211.2,144.9,209.9,146.2,207.9,146.2z"/>
			</g>
		</g>
		<g>
			<g>
				<path class="st9" d="M195.7,178.5c0.1-0.2,0.2-0.4,0.2-0.5c-0.2,0.1-0.4,0.1-0.6,0.2C195.5,178.2,195.6,178.4,195.7,178.5z"/>
			</g>
		</g>
		<g>
			<g>
				<path class="st9" d="M197.7,160.9c-0.2,0-0.5,0-0.7-0.1c0,1.1-0.1,2.1-0.3,3.1c2.9,1.2,3.2,5.5,0.9,7.4c0.2,0.3,0.4,0.6,0.5,0.9
					c0.6-1.8,1.1-3.7,1.7-5.5c0.7-2.5,1.4-5,2.1-7.5c0.3-1,0.6-1.9,0.9-2.9c-0.4,0.1-0.8,0.2-1.2,0.3
					C201.7,158.8,200.4,160.9,197.7,160.9z"/>
			</g>
		</g>
		<g>
			<g>
				<path class="st9" d="M177.9,195.5c0,0,0.1,0,0.1-0.1c0,0-0.1-0.1-0.1-0.1C177.9,195.4,177.9,195.4,177.9,195.5z"/>
			</g>
		</g>
		<g>
			<g>
				<path class="st9" d="M176.2,127.4c-0.3-0.1-0.7-0.1-1-0.2c-0.2,0-0.4-0.1-0.7-0.1c0.2,0.2,0.4,0.5,0.6,0.8
					C175.4,127.7,175.8,127.5,176.2,127.4z"/>
			</g>
		</g>
		<g>
			<g>
				<path class="st9" d="M169,126.7c0.3-0.2,0.6-0.4,0.9-0.5c-0.5-0.1-1-0.2-1.5-0.2C168.7,126.2,168.9,126.4,169,126.7z"/>
			</g>
		</g>
		<g>
			<g>
				<path class="st9" d="M43.7,187.2c-0.2-0.2-0.4-0.4-0.6-0.6c-0.4-0.4-0.9-0.8-1.3-1.3c-0.2,1.4-1,2.7-2.5,3.3
					c0.4,0.4,0.7,0.7,1.1,1.1C40.8,188.3,42,187.3,43.7,187.2z"/>
			</g>
		</g>
		<g>
			<g>
				<path class="st9" d="M94.3,181.8c0-0.1,0.1-0.1,0.1-0.2C94.3,181.7,94.3,181.7,94.3,181.8C94.3,181.7,94.3,181.8,94.3,181.8z"/>
			</g>
		</g>
		<g>
			<g>
				<path class="st9" d="M96.6,177.9c0.4-0.7,0.7-1.4,1.1-2.1c-0.4,0.1-0.9,0.2-1.4,0.2C96.5,176.7,96.6,177.3,96.6,177.9z"/>
			</g>
		</g>
		<g>
			<g>
				<path d="M64.9,194.3c-0.5,0-1.1,0-1.6,0c-0.5,0-1,0-1.5,0c-1.5,1-1.6,3.4-0.3,4.6c0.5,0,1,0.1,1.5,0.1c0.8,0,1.5,0,2.3-0.1
					C66.5,197.6,66.4,195.2,64.9,194.3z"/>
			</g>
		</g>
		<g>
			<g>
				<path d="M29,174.5c0.6-1.4,1.8-2.5,3.8-2.5c0,0,0.1,0,0.1,0c-0.2-0.6-0.4-1.1-0.6-1.7c-0.7,0.7-1.7,1.2-2.9,1.2
					c-0.5,0-1-0.1-1.5-0.2c-0.1,0.2-0.1,0.5-0.1,0.8c0.2,0.7,0.4,1.4,0.7,2.1C28.6,174.3,28.8,174.4,29,174.5z"/>
			</g>
		</g>
		<g>
			<g>
				<path d="M28.4,174.1c-0.3-0.7-0.5-1.4-0.7-2.1C27.7,172.7,27.9,173.5,28.4,174.1z"/>
			</g>
		</g>
		<g>
			<g>
				<path d="M37.3,132.2c0,0,0-0.1,0.1-0.1c-0.1,0-0.2-0.1-0.3-0.1c-0.1,0-0.2,0.1-0.3,0.1C37,132.1,37.1,132.1,37.3,132.2z"/>
			</g>
		</g>
		<g>
			<g>
				<path d="M86.6,137.4c0.2,0.2,0.4,0.4,0.6,0.6c0,0,0,0,0,0c0.3-0.7,0.8-1.2,1.4-1.6c0.3-1,0.1-2.1-0.5-2.8
					c-0.3-0.1-0.6-0.2-0.9-0.3C87.8,134.6,87.5,136.3,86.6,137.4z"/>
			</g>
		</g>
		<g>
			<g>
				<path d="M111.9,138.4c-0.2,0.5-0.3,1-0.3,1.5c-0.1,0.6,0.3,1.3,0.7,1.8c0.3,0,0.6-0.1,1-0.1
					C112.3,140.8,111.9,139.6,111.9,138.4z"/>
			</g>
		</g>
		<g>
			<g>
				<path d="M119,135.5c0.1-0.1,0.2-0.2,0.3-0.3c-0.6-0.7-1.5-1-2.5-0.9C117.7,134.4,118.5,134.9,119,135.5z"/>
			</g>
		</g>
		<g>
			<g>
				<path d="M148.3,133.9c1.2-0.5,2.4-0.9,3.7-1.2c0.2-1.5-0.7-3.2-2.7-3.2c-0.1,0-0.2,0-0.3,0c-0.4,0.1-0.8,0.2-1.2,0.4
					c-0.1,0-0.1,0.1-0.2,0.1C148.4,131.1,148.6,132.6,148.3,133.9z"/>
			</g>
		</g>
		<g>
			<g>
				<path d="M147.8,129.9c0.4-0.1,0.8-0.2,1.2-0.4C148.5,129.6,148.1,129.7,147.8,129.9z"/>
			</g>
		</g>
		<g>
			<g>
				<path d="M166.7,131.1c0.3,0,0.6,0,0.9-0.1c-0.3-1.6,0.2-3.3,1.5-4.2c-0.2-0.3-0.4-0.5-0.6-0.7c-1.1-0.1-2.1-0.2-3.2-0.2
					C163.1,127,163.6,131.1,166.7,131.1z"/>
			</g>
		</g>
		<g>
			<g>
				<path d="M190.8,138C190.8,138,190.8,138,190.8,138C190.8,138,190.8,138,190.8,138C190.8,138,190.8,138,190.8,138z"/>
			</g>
		</g>
		<g>
			<g>
				<path d="M194.7,135.3c0.2,0,0.3,0,0.5,0c-0.3-0.2-0.8-0.4-1.3-0.5c0,0.2-0.1,0.4-0.2,0.6C194,135.4,194.3,135.3,194.7,135.3z"/>
			</g>
		</g>
		<g>
			<g>
				<path d="M204.3,149.6c0.8-1.7,0-4.2-2.4-4.2c-2,0-2.9,1.7-2.7,3.2c0.5-0.3,1.2-0.5,2-0.5C202.5,148.2,203.6,148.8,204.3,149.6z"
					/>
			</g>
		</g>
		<g>
			<g>
				<path class="st10" d="M27.5,152.2c-0.7,1.1-1.8,1.9-3.5,1.9c-0.4,0-0.8,0-1.1-0.1c0,0,0,0,0,0c0.5,1.9,1,3.7,1.5,5.6
					c0.4,0.2,0.9,0.3,1.5,0.3C30.5,159.8,31,153.6,27.5,152.2z"/>
			</g>
		</g>
		<g>
			<g>
				<path class="st10" d="M30.9,140.2C30.9,140.2,30.9,140.2,30.9,140.2c0-2-1.3-3.9-3.8-3.9c-1,0-1.9,0.3-2.5,0.8
					c0.5,0.2,0.9,0.5,1.3,0.9c0.8,0.8,1.2,1.9,1.2,3c0,0.6-0.1,1.1-0.4,1.6c-0.2,0.5-0.5,1-0.9,1.4c0,0,0,0,0,0
					c0.3,0.1,0.6,0.1,0.9,0.2C26.8,142.2,28.2,140.2,30.9,140.2z"/>
			</g>
		</g>
		<g>
			<g>
				<path class="st10" d="M44.6,133.4c0.6-0.3,1.3-0.6,2-0.8c-0.7-0.9-1-2.2-0.9-3.3c-0.8,0.2-1.5,0.4-2.3,0.7
					c-0.4,0.1-0.8,0.3-1.2,0.4c0,0.1,0,0.2,0,0.4C43.5,131.1,44.3,132.1,44.6,133.4z"/>
			</g>
		</g>
		<g>
			<g>
				<path class="st10" d="M74.4,128.8c0.3,0.8,0.4,1.7,0.2,2.5c1.5,0.4,2.9,0.9,4.3,1.5c0.4-0.7,0.5-1.5,0.4-2.3
					c-0.3-0.1-0.7-0.2-1-0.3C77,129.7,75.7,129.2,74.4,128.8z"/>
			</g>
		</g>
		<g>
			<g>
				<path class="st10" d="M83.3,187.2c-1.8,1.6-3.8,2.9-5.9,3.9c0.2,1.5,1.1,2.9,2.8,3.3c1.7-0.8,3.3-1.7,4.8-2.8
					C85.3,190.1,84.7,188.2,83.3,187.2z"/>
			</g>
		</g>
		<g>
			<g>
				<path class="st10" d="M96.3,168.1c-0.2,0-0.5,0-0.7,0.1c-0.5,2-1.2,3.8-2,5.5c1.4,0.3,2.3,1.3,2.7,2.4c0.5,0,1-0.1,1.4-0.2
					c0.8-1.6,1.6-3.3,2.3-5C99.5,169.4,98.3,168.1,96.3,168.1z"/>
			</g>
		</g>
		<g>
			<g>
				<path class="st10" d="M95.4,151.3c0,0.2,0.1,0.3,0.1,0.5c0.7-0.8,1.7-1.3,3.1-1.3c2.4,0,3.8,1.7,4.1,3.5
					c0.1-0.2,0.1-0.5,0.1-0.7c-0.5-0.7-0.8-1.6-1-2.5c-0.1-0.4-0.2-0.7-0.3-1.1c-0.6-0.5-1.4-0.9-2.5-0.9
					C97.1,148.8,95.9,149.9,95.4,151.3z"/>
			</g>
		</g>
		<g>
			<g>
				<path class="st10" d="M108.6,142.5c-0.4,0.1-0.7,0.2-1.1,0.3C107.9,142.7,108.2,142.6,108.6,142.5z"/>
			</g>
		</g>
		<g>
			<g>
				<path class="st10" d="M106.9,134.8c-5.1,0-5.1,7.9,0,7.9c0.2,0,0.4,0,0.6,0c0.4-0.1,0.7-0.2,1.1-0.3
					C111.9,140.9,111.4,134.8,106.9,134.8z"/>
			</g>
		</g>
		<g>
			<g>
				<path class="st10" d="M126.9,148.1c-0.1,0.5-0.3,0.9-0.6,1.3c-0.4,0.6-1.1,1.1-1.4,1.7c-0.2,0.5-0.3,1.1-0.3,1.6
					c0,1-0.1,2-0.1,2.9c0.5,0.2,1,0.3,1.6,0.3C131.1,156,131.3,148.8,126.9,148.1z"/>
			</g>
		</g>
		<g>
			<g>
				<path class="st10" d="M131.9,170.6c-0.3-0.9-0.5-1.8-0.7-2.8c-0.7,0.6-1.6,1-2.8,1c-0.8,0-1.5-0.2-2.1-0.5
					c0.4,1.5,0.9,2.9,1.5,4.3c0.2,0,0.4,0,0.6,0C130.2,172.7,131.3,171.8,131.9,170.6z"/>
			</g>
		</g>
		<g>
			<g>
				<path class="st10" d="M137.5,182.2c0.2,0,0.3,0,0.5,0c-1.2-1.5-2.3-3.1-3.3-4.8c-0.2,1.5-1.2,2.8-2.8,3.3
					c0.7,1.1,1.4,2.1,2.2,3.1C134.9,182.9,136,182.2,137.5,182.2z"/>
			</g>
		</g>
		<g>
			<g>
				<path class="st10" d="M147.8,191c0-0.1,0-0.2-0.1-0.4c-1.6-0.9-3.1-1.9-4.5-3.1c-0.9,0.1-1.6,0.6-2.1,1.1
					c-0.2,0.3-0.3,0.6-0.6,0.8c-0.1,0.2-0.2,0.4-0.2,0.6c1.7,1.4,3.4,2.6,5.3,3.7C145.9,192.6,146.6,191.5,147.8,191z"/>
			</g>
		</g>
		<g>
			<g>
				<path class="st10" d="M191.2,185.3c-1.3-0.3-2.2-1.3-2.6-2.4c-0.7,0.9-1.4,1.8-2.2,2.6c0,0-0.1,0.1-0.1,0.1
					c0.6,0.9,1.6,1.4,3,1.4c0.1,0,0.1,0,0.2,0C190.1,186.5,190.7,185.9,191.2,185.3z"/>
			</g>
		</g>
		<g>
			<g>
				<path class="st10" d="M197,160.9c0.2,0,0.4,0.1,0.7,0.1c2.7,0,4-2.2,3.8-4.3c-0.1,0-0.3,0-0.4,0c-2.5,0-3.8-1.7-4.1-3.6
					c-0.2,0-0.3,0.1-0.5,0.1C196.9,155.8,197.1,158.4,197,160.9z"/>
			</g>
		</g>
		<g>
			<g>
				<path class="st10" d="M194.7,143.8c-0.3,0-0.6,0-0.9-0.1c0.2,0.5,0.5,1,0.7,1.6c0.6,0.5,1.4,0.9,2.5,0.9c4.4,0,5-6,1.7-7.6
					C199.2,141,197.8,143.8,194.7,143.8z"/>
			</g>
		</g>
		<g>
			<g>
				<path class="st10" d="M207.9,146.2c2,0,3.3-1.3,3.7-2.8c0-0.7-0.1-1.3-0.2-1.9c-0.1-0.5-0.2-1.1-0.5-1.6c-0.6-1-2-1.4-3.1-1.6
					c0,0-0.1,0-0.1,0C202.8,138.5,202.9,146.2,207.9,146.2z"/>
			</g>
		</g>
		<g>
			<g>
				<path class="st10" d="M175.3,131.9c1.8,0.3,3.6,0.7,5.4,1.1c0.7-1.5,0.4-3.5-0.8-4.7c-1.2-0.3-2.5-0.6-3.8-0.9
					c-0.4,0.1-0.7,0.3-1,0.5C175.8,129.1,175.9,130.6,175.3,131.9z"/>
			</g>
		</g>
		<g>
			<g>
				<path class="st10" d="M131.6,141.1c0.6,0.6,1.5,0.9,2.6,0.9c4.7,0,5.1-6.8,1.1-7.8c-1.4,0.5-2.9,1.1-4.3,1.7
					c-0.6,1-0.7,2.3-0.4,3.5C131,139.8,131.4,140.5,131.6,141.1z"/>
			</g>
		</g>
		<g>
			<g>
				<path class="st11" d="M35.8,140.4C35.8,140.4,35.8,140.4,35.8,140.4c0.7-0.9,1.4-1.7,2.2-2.5c-0.3-0.2-0.5-0.5-0.6-0.8
					c-0.1,0.1-0.3,0.1-0.4,0.2c-0.4,0.1-0.8,0.2-1.1,0.4c-0.7,0.2-1.5,0.1-2.2-0.3c-0.7-0.3-1.1-1-1.3-1.7c-0.2-0.7-0.1-1.6,0.3-2.2
					c0,0,0.1-0.1,0.1-0.1c0,0-0.1,0-0.1,0C30.7,135.9,31.8,140.4,35.8,140.4z"/>
			</g>
		</g>
		<g>
			<g>
				<path class="st11" d="M37.3,132.2c-0.1-0.1-0.3-0.1-0.4-0.1c-1.4,0.5-2.8,0.9-4.2,1.4c0,0-0.1,0.1-0.1,0.1
					c-0.4,0.6-0.5,1.5-0.3,2.2c0.2,0.7,0.6,1.3,1.3,1.7c0.7,0.3,1.5,0.5,2.2,0.3c0.4-0.1,0.8-0.2,1.1-0.4c0.1,0,0.3-0.1,0.4-0.2
					C36.4,135.7,36.3,133.6,37.3,132.2z"/>
			</g>
		</g>
		<g>
			<g>
				<path class="st11" d="M23.7,148.1c2.2,0,3.1,2.1,2.6,3.8c0.5,0,0.9,0.1,1.3,0.3c1.5-2.5,0.4-6.6-3.5-6.6c-3.1,0-4.5,2.8-4,5.2
					c0.3,0.1,0.6,0.2,0.9,0.3C20.9,149.6,21.8,148.1,23.7,148.1z"/>
			</g>
		</g>
		<g>
			<g>
				<path class="st11" d="M22.8,153.4c0.6-0.9,1.7-1.6,3.1-1.6c0.1,0,0.2,0,0.3,0c0.5-1.7-0.3-3.8-2.6-3.8c-1.9,0-2.8,1.5-2.7,2.9
					c0.2,0.1,0.5,0.2,0.7,0.4C22.3,151.9,22.6,152.6,22.8,153.4z"/>
			</g>
		</g>
		<g>
			<g>
				<path class="st11" d="M23.7,153.8c-0.3,0-0.5,0-0.8-0.1c0,0.1,0,0.2,0.1,0.3c0.3,0.1,0.7,0.1,1.1,0.1c1.7,0,2.8-0.8,3.5-1.9
					c-0.4-0.2-0.8-0.3-1.3-0.3C25.9,152.9,25.1,153.8,23.7,153.8z"/>
			</g>
		</g>
		<g>
			<g>
				<path class="st11" d="M22.9,153.7c-0.1,0-0.1,0-0.2-0.1c0,0.1-0.1,0.1-0.1,0.2c0.1,0,0.2,0.1,0.4,0.1
					C22.9,153.8,22.9,153.7,22.9,153.7z"/>
			</g>
		</g>
		<g>
			<g>
				<path class="st11" d="M22.7,153.6c0.1,0,0.1,0,0.2,0.1c0-0.1,0-0.2-0.1-0.2C22.8,153.5,22.7,153.5,22.7,153.6z"/>
			</g>
		</g>
		<g>
			<g>
				<path class="st11" d="M26.3,151.9c-0.1,0-0.2,0-0.3,0c-1.5,0-2.5,0.6-3.1,1.6c0,0.1,0,0.2,0.1,0.2c0.2,0.1,0.5,0.1,0.8,0.1
					C25.1,153.8,25.9,152.9,26.3,151.9z"/>
			</g>
		</g>
		<g>
			<g>
				<path class="st11" d="M30.5,169.3c0.7,0,1.2,0.2,1.6,0.5c-0.6-2.1-1-4.3-1.4-6.6c-0.4-0.1-0.9-0.2-1.4-0.2
					c-1.7,0-2.9,0.8-3.5,1.9c0.3,1.1,0.6,2.2,0.9,3.3c0.3,1,0.5,1.9,0.8,2.9c0.1,0.1,0.3,0.1,0.4,0.2
					C28.2,170.1,29,169.3,30.5,169.3z"/>
			</g>
		</g>
		<g>
			<g>
				<path class="st11" d="M30.5,169.3c-1.4,0-2.3,0.9-2.6,1.9c0.4,0.2,0.9,0.2,1.5,0.2c1.3,0,2.2-0.5,2.9-1.2
					c-0.1-0.2-0.1-0.3-0.2-0.5C31.7,169.5,31.1,169.3,30.5,169.3z"/>
			</g>
		</g>
		<g>
			<g>
				<path class="st11" d="M37.7,180.3C37.7,180.3,37.7,180.3,37.7,180.3c-0.4-0.6-0.9-1.3-1.3-1.9c-0.6,1.2-1.8,2.1-3.6,2.1
					c-0.3,0-0.6,0-0.8-0.1c0.6,0.8,1.3,1.6,2,2.4C34.4,181.4,35.7,180.3,37.7,180.3z"/>
			</g>
		</g>
		<g>
			<g>
				<path class="st11" d="M50.3,191.7c-0.7-0.4-1.4-0.7-2.1-1.2c0.3,1.5-0.1,3.1-1.2,4.1c0.1,0.1,0.2,0.1,0.3,0.2
					c0.6,0.3,1.2,0.6,1.9,0.9C48.9,194.2,49.3,192.7,50.3,191.7z"/>
			</g>
		</g>
		<g>
			<g>
				<path class="st11" d="M75.6,192c-2.3,1-4.8,1.6-7.6,2c-0.1,1.5,0.4,3,1.6,3.9c0.6-0.2,1.2-0.3,1.8-0.5c1.5-0.4,3-0.8,4.5-1.3
					C76.4,194.8,76.3,193.2,75.6,192z"/>
			</g>
		</g>
		<g>
			<g>
				<path class="st11" d="M96.3,176.1C96.3,176.1,96.3,176.1,96.3,176.1c-1.5,0-2.5-0.6-3.1-1.5c-0.7,1.4-1.5,2.7-2.3,3.9
					c1.9,0.2,3.1,1.6,3.4,3.2c0,0,0.1,0,0.1-0.1c0.4-0.6,0.8-1.2,1.2-1.8c0.4-0.6,0.7-1.3,1.1-1.9C96.6,177.3,96.5,176.7,96.3,176.1
					z"/>
			</g>
		</g>
		<g>
			<g>
				<path class="st11" d="M96.3,176.1C96.3,176.1,96.3,176.1,96.3,176.1c-0.4-1.1-1.3-2.1-2.7-2.4c-0.1,0.3-0.3,0.6-0.4,0.9
					C93.8,175.4,94.9,176.1,96.3,176.1z"/>
			</g>
		</g>
		<g>
			<g>
				<path class="st11" d="M97.4,158.8c-0.3,0.1-0.5,0.3-0.8,0.5c0,0.8,0,1.7,0,2.5c-0.1,1.3-0.2,2.5-0.4,3.7
					c0.7,0.8,1.7,1.4,3.1,1.4c1,0,1.7-0.3,2.4-0.7c0.6-1.6,1.1-3.2,1.6-4.8c-0.4-1.3-1.3-2.5-2.8-2.9c-0.5,0.3-1.2,0.4-1.9,0.4
					C98.2,159,97.8,158.9,97.4,158.8z"/>
			</g>
		</g>
		<g>
			<g>
				<path class="st11" d="M92.2,144c0.3,0.6,0.7,1.2,1,1.8c0.6,0.4,1.4,0.7,2.3,0.7c0.4,0,0.8-0.1,1.1-0.1c-1.9-2.1-1.3-6.3,1.9-7.1
					c-0.7-0.8-1.7-1.3-3-1.3c-0.3,0-0.6,0-0.8,0.1C95.7,140.2,94.9,143.3,92.2,144z"/>
			</g>
		</g>
		<g>
			<g>
				<path class="st11" d="M117.2,139.9c0,0.1,0,0.2-0.1,0.3c0,0,0,0,0,0C117.2,140.2,117.2,140.1,117.2,139.9z"/>
			</g>
		</g>
		<g>
			<g>
				<path class="st11" d="M117.2,140.1C117.2,140.1,117.2,140.1,117.2,140.1C117.2,140.1,117.2,140.1,117.2,140.1
					C117.2,140.1,117.2,140.1,117.2,140.1z"/>
			</g>
		</g>
		<g>
			<g>
				<path class="st11" d="M118.1,139.7c-0.1,0-0.1,0-0.2,0.1c-0.1,0-0.2,0.1-0.4,0.1c0,0-0.1,0.1-0.2,0.1c0,0.1-0.1,0.1-0.1,0.2
					c0,0.2-0.1,0.3,0,0.1c0,0,0,0,0,0c-0.1,0.4-0.2,0.8-0.4,1.2c0.7,0,1.4,0,2.1,0.1c0,0,0.1-0.1,0.1-0.1
					C118.6,140.9,118.3,140.3,118.1,139.7z"/>
			</g>
		</g>
		<g>
			<g>
				<path class="st11" d="M117.3,140C117.3,140,117.2,140,117.3,140C117.2,140,117.2,140,117.3,140
					C117.2,140.1,117.2,140.1,117.3,140C117.2,140.1,117.2,140.1,117.3,140C117.2,140.1,117.2,140.1,117.3,140z"/>
			</g>
		</g>
		<g>
			<g>
				<path class="st11" d="M117.2,140.1C117.3,140.1,117.3,140,117.2,140.1C117.3,140,117.3,140.1,117.2,140.1
					C117.2,140.1,117.2,140.1,117.2,140.1z"/>
			</g>
		</g>
		<g>
			<g>
				<path class="st11" d="M116.4,134.3c0.1,0,0.3,0,0.4,0c-0.3,0-0.5-0.1-0.8-0.1c-2.7,0-4.1,2.1-4.1,4.2c0.3-0.8,0.7-1.6,1.3-2.3
					C114,135.2,115.2,134.5,116.4,134.3z"/>
			</g>
		</g>
		<g>
			<g>
				<path class="st11" d="M117.2,140.1C117.2,140.1,117.2,140.1,117.2,140.1C117.2,140.2,117.2,140.1,117.2,140.1z"/>
			</g>
		</g>
		<g>
			<g>
				<path class="st11" d="M117.4,139.9L117.4,139.9C117.4,139.9,117.4,139.9,117.4,139.9C117.4,139.9,117.4,139.9,117.4,139.9
					C117.4,139.9,117.4,139.9,117.4,139.9z"/>
			</g>
		</g>
		<g>
			<g>
				<path class="st11" d="M117.3,140C117.3,140,117.3,140,117.3,140C117.3,139.9,117.3,139.9,117.3,140z"/>
			</g>
		</g>
		<g>
			<g>
				<path class="st11" d="M117.4,139.9C117.4,139.9,117.4,139.9,117.4,139.9C117.4,139.9,117.4,139.9,117.4,139.9
					C117.4,139.9,117.4,139.9,117.4,139.9C117.4,139.9,117.4,139.9,117.4,139.9z"/>
			</g>
		</g>
		<g>
			<g>
				<path class="st11" d="M117.4,139.9C117.4,139.9,117.4,139.9,117.4,139.9C117.4,139.9,117.4,139.9,117.4,139.9
					C117.4,139.9,117.4,139.9,117.4,139.9z"/>
			</g>
		</g>
		<g>
			<g>
				<path class="st11" d="M117.3,140C117.3,140,117.3,140,117.3,140C117.4,139.9,117.4,139.9,117.3,140
					C117.3,139.9,117.3,140,117.3,140C117.3,140,117.3,140,117.3,140C117.3,140,117.3,140,117.3,140z"/>
			</g>
		</g>
		<g>
			<g>
				<path class="st11" d="M117.4,139.9C117.4,139.9,117.4,139.9,117.4,139.9C117.4,139.9,117.4,139.9,117.4,139.9
					C117.4,139.9,117.4,139.9,117.4,139.9C117.4,139.9,117.4,139.9,117.4,139.9C117.6,139.8,117.6,139.8,117.4,139.9
					C117.5,139.9,117.4,139.9,117.4,139.9c0.1,0,0.1,0,0.1,0c0,0,0,0,0,0C117.8,139.7,117,140,117.4,139.9z"/>
			</g>
		</g>
		<g>
			<g>
				<path class="st11" d="M113.1,141.6c1.2-0.1,2.4-0.2,3.6-0.2c0.2-0.4,0.3-0.8,0.4-1.2c0,0,0,0,0,0s0,0,0,0c0-0.1,0-0.2,0.1-0.3
					c0,0.1,0,0.2,0,0.3c0,0,0-0.1,0.1-0.1c0,0,0,0,0,0c0,0,0,0,0,0c0,0,0,0,0,0c0,0,0,0,0,0c0,0,0,0,0,0c0,0,0,0,0.1,0
					c0-0.1,0-0.1,0,0c0,0,0.1-0.1,0.1-0.1c0,0,0,0,0,0c-0.4,0.1,0.4-0.2,0.2-0.1c0,0,0,0,0,0c0.1,0,0.2-0.1,0.4-0.1
					c0.1,0,0.1,0,0.2-0.1c-0.4-1.5-0.1-3.1,0.9-4.3c-0.5-0.6-1.3-1-2.2-1.2c-0.1,0-0.3,0-0.4,0c-1.2,0.2-2.4,0.9-3.2,1.8
					c-0.6,0.7-1.1,1.5-1.3,2.3C111.9,139.6,112.3,140.8,113.1,141.6z"/>
			</g>
		</g>
		<g>
			<g>
				<path class="st11" d="M117.3,140C117.3,140,117.3,140,117.3,140C117.3,140,117.3,140,117.3,140c0.1,0,0.1-0.1,0.2-0.1
					c0,0,0,0-0.1,0C117.4,139.9,117.4,139.9,117.3,140z"/>
			</g>
		</g>
		<g>
			<g>
				<path class="st11" d="M117.3,140C117.3,140,117.3,140,117.3,140C117.3,140,117.3,140,117.3,140C117.3,140,117.3,140,117.3,140z"
					/>
			</g>
		</g>
		<g>
			<g>
				<path class="st11" d="M117.3,140C117.3,140,117.3,140,117.3,140C117.3,140,117.2,140,117.3,140C117.2,140,117.3,140,117.3,140
					C117.3,140,117.3,140,117.3,140z"/>
			</g>
		</g>
		<g>
			<g>
				<path class="st11" d="M117.3,140C117.3,140,117.3,140.1,117.3,140c-0.1,0.1-0.1,0.1-0.1,0.1c0,0,0,0.1,0,0.1
					C117.2,140.1,117.3,140.1,117.3,140C117.3,140,117.3,140,117.3,140C117.3,140,117.3,140,117.3,140z"/>
			</g>
		</g>
		<g>
			<g>
				<path class="st11" d="M117.2,140.1C117.2,140.1,117.2,140.1,117.2,140.1C117.2,140.1,117.2,140.1,117.2,140.1
					C117.2,140.1,117.2,140.1,117.2,140.1C117.2,140.1,117.2,140.1,117.2,140.1z"/>
			</g>
		</g>
		<g>
			<g>
				<path class="st11" d="M117.5,139.9C117.6,139.8,117.6,139.8,117.5,139.9C117.4,139.9,117.4,139.9,117.5,139.9
					C117.4,139.9,117.5,139.9,117.5,139.9z"/>
			</g>
		</g>
		<g>
			<g>
				<path class="st11" d="M117.2,140.3C117.2,140.3,117.2,140.3,117.2,140.3C117.2,140.2,117.2,140.2,117.2,140.3
					c0-0.1,0.1-0.1,0.1-0.1C117.2,140.2,117.2,140.2,117.2,140.3z"/>
			</g>
		</g>
		<g>
			<g>
				<path class="st11" d="M117.3,140C117.3,140,117.3,140,117.3,140C117.3,140,117.3,140,117.3,140C117.3,140,117.3,140,117.3,140z"
					/>
			</g>
		</g>
		<g>
			<g>
				<path class="st11" d="M117.2,140.3L117.2,140.3C117.2,140.3,117.2,140.3,117.2,140.3C117.2,140.3,117.2,140.3,117.2,140.3
					C117.2,140.3,117.2,140.3,117.2,140.3z"/>
			</g>
		</g>
		<g>
			<g>
				<path class="st11" d="M117.3,140C117.2,140.1,117.2,140.1,117.3,140C117.3,140.1,117.3,140,117.3,140
					C117.3,140,117.3,140,117.3,140C117.3,140,117.3,140,117.3,140z"/>
			</g>
		</g>
		<g>
			<g>
				<path class="st11" d="M117.4,139.9C117.4,139.9,117.4,139.9,117.4,139.9L117.4,139.9C117.4,139.9,117.4,139.9,117.4,139.9z"/>
			</g>
		</g>
		<g>
			<g>
				<path class="st11" d="M117.2,140.1C117.2,140.1,117.2,140,117.2,140.1C117.2,140,117.3,140,117.2,140.1
					C117.2,140,117.2,140,117.2,140.1z"/>
			</g>
		</g>
		<g>
			<g>
				<path class="st11" d="M117.4,139.9C117.4,139.9,117.3,140,117.4,139.9C117.3,140,117.3,140,117.4,139.9
					C117.4,139.9,117.4,139.9,117.4,139.9C117.4,139.9,117.4,139.9,117.4,139.9C117.4,139.9,117.4,139.9,117.4,139.9
					C117.4,139.9,117.4,139.9,117.4,139.9z"/>
			</g>
		</g>
		<g>
			<g>
				<path class="st11" d="M117.3,140C117.3,140,117.3,140,117.3,140C117.3,140,117.3,140,117.3,140C117.3,140,117.4,139.9,117.3,140
					C117.3,140,117.3,140,117.3,140z"/>
			</g>
		</g>
		<g>
			<g>
				<polygon class="st11" points="117.1,140.3 117.2,140.3 117.2,140.3 				"/>
			</g>
		</g>
		<g>
			<g>
				<path class="st11" d="M117.2,140.2C117.2,140.2,117.2,140.2,117.2,140.2C117.1,140.5,117.2,140.4,117.2,140.2z"/>
			</g>
		</g>
		<g>
			<g>
				<path class="st11" d="M131.6,141.1c-0.5-0.5-0.9-1.1-1.1-1.8c-0.7-0.6-1.6-1-2.8-1c-0.6,0-1.1,0.1-1.6,0.3
					c-0.1,1.6-0.9,3.2-2.5,3.8c0,0.1,0,0.1,0,0.2c0.6,0.3,1.1,0.6,1.6,1c0.9,0.8,1.5,1.9,1.7,3.1c0.3,0,0.5,0.1,0.8,0.1
					C131.1,146.9,132.4,143.6,131.6,141.1z"/>
			</g>
		</g>
		<g>
			<g>
				<path class="st11" d="M131.6,141.1c-0.2-0.7-0.6-1.3-1.1-1.8C130.7,140,131.1,140.7,131.6,141.1z"/>
			</g>
		</g>
		<g>
			<g>
				<path class="st11" d="M134.7,177.3c-0.8-1.4-1.5-2.9-2-4.4c-0.5-0.3-1.2-0.4-1.9-0.4c-1.1,0-2,0.3-2.6,0.9
					c1,2.3,2.1,4.6,3.5,6.7C131.9,178.7,133,177.5,134.7,177.3z"/>
			</g>
		</g>
		<g>
			<g>
				<path class="st11" d="M134.8,177.4c0-0.1-0.1-0.1-0.1-0.2c-1.7,0.2-2.7,1.4-3.1,2.8c0.1,0.2,0.3,0.5,0.4,0.7
					C133.6,180.2,134.5,178.9,134.8,177.4z"/>
			</g>
		</g>
		<g>
			<g>
				<path class="st11" d="M142.6,136.7c1.5-0.9,3-1.7,4.6-2.3c-1.1-1.2-0.9-3.3,0.4-4.3c0,0,0,0,0-0.1c-2.5,0.8-4.9,1.6-7.3,2.4
					C140.1,134.2,140.9,136,142.6,136.7z"/>
			</g>
		</g>
		<g>
			<g>
				<path class="st11" d="M147.6,130.1c-1.3,1-1.4,3.1-0.4,4.3c0.4-0.1,0.7-0.3,1.1-0.4C148.6,132.6,148.4,131.1,147.6,130.1z"/>
			</g>
		</g>
		<g>
			<g>
				<path class="st11" d="M193.1,142.4c0-0.6,0.1-1.3,0.3-1.9c-1.6,0-2.5-1.2-2.6-2.5c-0.1,0.2-0.1,0.5-0.2,0.7
					C191.6,139.8,192.4,141,193.1,142.4z"/>
			</g>
		</g>
		<g>
			<g>
				<path class="st11" d="M196.2,138.3c0.2,0,0.5-0.1,0.7-0.1c0.7,0,1.3,0.1,1.7,0.4c-0.3-1.6-1.5-3.1-3.5-3.3
					C196.1,136,196.4,137.2,196.2,138.3z"/>
			</g>
		</g>
		<g>
			<g>
				<path class="st11" d="M193.7,135.4c0,0,0,0.1-0.1,0.1c-0.2,0.5-0.5,1-0.9,1.4c-0.5,0.5-1.2,0.9-1.9,1.1c0,0,0,0,0,0
					c0.1,1.3,1,2.4,2.6,2.5c0.5-1.1,1.4-2,2.8-2.2c0.2-1.1-0.1-2.3-1-3c-0.2,0-0.3,0-0.5,0C194.3,135.3,194,135.4,193.7,135.4z"/>
			</g>
		</g>
		<g>
			<g>
				<path class="st11" d="M196.2,138.3c-0.2,1.2-1.1,2.2-2.7,2.2c0,0-0.1,0-0.1,0c-0.2,0.6-0.4,1.2-0.3,1.9c0.2,0.4,0.4,0.9,0.7,1.3
					c0.3,0.1,0.6,0.1,0.9,0.1c3.1,0,4.5-2.8,4-5.2c-0.5-0.2-1.1-0.4-1.7-0.4C196.7,138.3,196.4,138.3,196.2,138.3z"/>
			</g>
		</g>
		<g>
			<g>
				<path class="st11" d="M196.2,138.3c-1.4,0.2-2.3,1.1-2.8,2.2c0,0,0.1,0,0.1,0C195.1,140.5,196,139.5,196.2,138.3z"/>
			</g>
		</g>
		<g>
			<g>
				<path class="st11" d="M201.9,151.1c-1.7,0-2.6-1.2-2.7-2.5c-1.6,0.8-2.3,2.7-2.1,4.4c0.2,0,0.4-0.1,0.7-0.1
					c2.4,0,3.7,1.8,3.8,3.7c0.5,0,0.9-0.1,1.2-0.3c0.6-1.7,1.3-3.3,2.4-4.6c-0.1-0.8-0.4-1.5-0.9-2.1
					C203.9,150.5,203.1,151.1,201.9,151.1z"/>
			</g>
		</g>
		<g>
			<g>
				<path class="st11" d="M201.9,151.1c1.2,0,2-0.6,2.4-1.5c-0.7-0.9-1.7-1.5-3.2-1.5c-0.8,0-1.4,0.2-2,0.5
					C199.3,149.9,200.2,151.1,201.9,151.1z"/>
			</g>
		</g>
		<g>
			<g>
				<path class="st11" d="M201.1,156.7c0.1,0,0.3,0,0.4,0c-0.1-1.9-1.4-3.7-3.8-3.7c-0.2,0-0.5,0-0.7,0.1
					C197.3,155,198.6,156.7,201.1,156.7z"/>
			</g>
		</g>
		<g>
			<g>
				<path class="st11" d="M197.4,171.5c-0.2,1.2-1.1,2.3-2.7,2.3c-0.3,0-0.5,0-0.7-0.1c-0.5,1.1-1,2.2-1.5,3.2
					c1.3,0,2.3,0.5,2.9,1.2c0.2,0,0.4-0.1,0.6-0.2c0.8-1.8,1.5-3.7,2.2-5.7c-0.1-0.3-0.3-0.6-0.5-0.9
					C197.5,171.4,197.4,171.5,197.4,171.5z"/>
			</g>
		</g>
		<g>
			<g>
				<path class="st11" d="M194.6,172.2c-0.2,0.5-0.4,1-0.6,1.5c0.2,0.1,0.5,0.1,0.7,0.1c1.6,0,2.5-1.1,2.7-2.3
					c-0.6,0.4-1.4,0.7-2.3,0.7C194.9,172.2,194.7,172.2,194.6,172.2z"/>
			</g>
		</g>
		<g>
			<g>
				<path class="st11" d="M177.8,194.7c0.1,0.2,0.1,0.4,0.1,0.7c0,0,0.1,0.1,0.1,0.1c0.3-0.1,0.6-0.3,0.8-0.5
					C178.5,195,178.1,194.8,177.8,194.7z"/>
			</g>
		</g>
		<g>
			<g>
				<path class="st11" d="M179.6,191.1c-1,0.6-2,1.1-3.1,1.5c0.6,0.5,1.1,1.3,1.3,2.1c0.3,0.2,0.7,0.3,1.1,0.3
					c0.7-0.4,1.3-0.7,2-1.1C180.1,193.1,179.7,192.1,179.6,191.1z"/>
			</g>
		</g>
		<g>
			<g>
				<path class="st2" d="M24.6,137.2c-0.5-0.2-1.1-0.4-1.7-0.4c-0.1,0-0.3,0-0.4,0c-1,0-2.1,0.4-2.8,1.1c2.7,1.2,3.1,5.1,1.2,7.1
					c0.5,0.2,1.1,0.4,1.7,0.4c0.1,0,0.3,0,0.4,0c1.1,0,2.2-0.5,3-1.2C22.9,143.3,22.4,139,24.6,137.2z"/>
			</g>
		</g>
		<g>
			<g>
				<path class="st2" d="M26.8,142.7c0.3-0.5,0.4-1.1,0.4-1.6c0-1.1-0.4-2.2-1.2-3c-0.4-0.4-0.8-0.7-1.3-0.9
					c-2.2,1.8-1.8,6.1,1.3,6.9c0,0,0,0,0,0C26.3,143.7,26.6,143.3,26.8,142.7z"/>
			</g>
		</g>
		<g>
			<g>
				<path class="st2" d="M37.6,132.2c0.2,0.1,0.4,0.3,0.6,0.5c1.2,0.8,1.7,2.2,1.7,3.6c1.1-0.9,2.3-1.6,3.6-2.3
					c-0.9-0.8-1.3-2.1-1.3-3.3c-0.2-0.1-0.4-0.1-0.6-0.2c-1.3,0.4-2.7,0.9-4,1.3c-0.1,0.1-0.1,0.2-0.2,0.3
					C37.4,132.1,37.5,132.1,37.6,132.2z"/>
			</g>
		</g>
		<g>
			<g>
				<path class="st2" d="M37.6,132.2c-0.1,0-0.1-0.1-0.2-0.1c0,0,0,0.1-0.1,0.1c0.3,0.1,0.6,0.3,0.9,0.4
					C38,132.4,37.8,132.3,37.6,132.2z"/>
			</g>
		</g>
		<g>
			<g>
				<path class="st2" d="M42.2,130.6c-0.1,1.2,0.4,2.5,1.3,3.3c0.4-0.2,0.8-0.4,1.2-0.6C44.3,132.1,43.5,131.1,42.2,130.6z"/>
			</g>
		</g>
		<g>
			<g>
				<path class="st2" d="M39.9,136.2c0-1.4-0.6-2.8-1.7-3.6c0.3,0.3,0.6,0.8,0.7,1.2c0.2,0.7,0.1,1.6-0.3,2.2
					c-0.3,0.5-0.8,0.9-1.3,1.1c0.2,0.3,0.4,0.5,0.6,0.8c0.1-0.1,0.2-0.2,0.3-0.3C38.7,137.1,39.3,136.6,39.9,136.2z"/>
			</g>
		</g>
		<g>
			<g>
				<path class="st2" d="M38.6,136c0.4-0.6,0.5-1.5,0.3-2.2c-0.1-0.5-0.4-0.9-0.7-1.2c-0.3-0.2-0.5-0.3-0.9-0.4
					c-0.9,1.5-0.9,3.5,0,5C37.8,136.9,38.3,136.5,38.6,136z"/>
			</g>
		</g>
		<g>
			<g>
				<path class="st2" d="M57,130.1c1.1-0.1,2.3-0.2,3.5-0.2c0.3-1.1,0.2-2.3-0.3-3.3c-1.5,0.1-2.9,0.2-4.4,0.4
					C56.9,127.6,57.2,128.9,57,130.1z"/>
			</g>
		</g>
		<g>
			<g>
				<path class="st2" d="M53.8,130.5c1-0.2,2.1-0.3,3.1-0.4c0.3-1.1-0.1-2.5-1.1-3.1c-0.9,0.1-1.7,0.3-2.6,0.4
					C53.8,128.3,54,129.4,53.8,130.5z"/>
			</g>
		</g>
		<g>
			<g>
				<path class="st2" d="M69.6,130.3c0.7,0.1,1.4,0.2,2.1,0.3c0-0.9,0.3-1.8,0.9-2.4c-1-0.3-2-0.6-3-0.8
					C69.8,128.4,69.9,129.4,69.6,130.3z"/>
			</g>
		</g>
		<g>
			<g>
				<path class="st2" d="M74.6,131.3c0.2-0.9,0.1-1.7-0.2-2.5c-0.6-0.2-1.2-0.4-1.8-0.6c-0.6,0.7-0.8,1.6-0.9,2.4
					C72.7,130.9,73.7,131.1,74.6,131.3z"/>
			</g>
		</g>
		<g>
			<g>
				<path class="st2" d="M52.3,192.6c-0.7-0.3-1.3-0.6-2-0.9c-1,1-1.4,2.5-1.1,3.9c1,0.4,2,0.7,3,1
					C51.5,195.4,51.6,193.8,52.3,192.6z"/>
			</g>
		</g>
		<g>
			<g>
				<path class="st2" d="M30.7,178.7c0.7-0.9,1.7-1.4,3.2-1.4c0.8,0,1.5,0.2,2,0.5c-0.4-0.5-0.7-1.1-1-1.5c-0.7-1.2-1.3-2.3-1.8-3.5
					c-0.2,1.2-1.1,2.2-2.7,2.2c-0.6,0-1.1-0.2-1.5-0.4c-0.1,0.2-0.1,0.3-0.2,0.5c0.4,0.9,0.8,1.7,1.2,2.6
					C30.2,178,30.5,178.4,30.7,178.7z"/>
			</g>
		</g>
		<g>
			<g>
				<path class="st2" d="M32.7,172c-2,0-3.2,1.1-3.8,2.5c0.4,0.3,0.9,0.4,1.5,0.4c1.5,0,2.4-1,2.7-2.2c-0.1-0.2-0.2-0.5-0.3-0.7
					C32.8,172,32.8,172,32.7,172z"/>
			</g>
		</g>
		<g>
			<g>
				<path class="st2" d="M36.3,178.4c-0.1-0.2-0.3-0.4-0.4-0.6c-0.6-0.3-1.2-0.5-2-0.5c-1.4,0-2.5,0.6-3.2,1.4
					c0.4,0.6,0.8,1.2,1.2,1.7c0.3,0,0.5,0.1,0.8,0.1C34.5,180.5,35.7,179.6,36.3,178.4z"/>
			</g>
		</g>
		<g>
			<g>
				<path class="st2" d="M128.5,164.7c-1.2,0-2.1,0.4-2.7,1.1c0.2,0.8,0.4,1.7,0.6,2.5c0.6,0.3,1.3,0.5,2.1,0.5c1.2,0,2.1-0.4,2.8-1
					c-0.1-0.7-0.3-1.5-0.4-2.3C130.3,165,129.5,164.7,128.5,164.7z"/>
			</g>
		</g>
		<g>
			<g>
				<path class="st2" d="M140.6,189.4c0.1-0.3,0.3-0.6,0.6-0.8c0.4-0.8,0.6-1.7,0.5-2.5c-1-1-2-2-2.9-3c-0.5,1.2-1.7,2.1-3.3,2.1
					c0.4,0.5,0.9,1,1.3,1.5c1.1,1.2,2.2,2.2,3.5,3.3C140.3,189.7,140.5,189.6,140.6,189.4z"/>
			</g>
		</g>
		<g>
			<g>
				<path class="st2" d="M137.5,182.2c-1.5,0-2.6,0.6-3.3,1.6c0.4,0.5,0.7,0.9,1.1,1.3c1.7,0,2.8-0.9,3.3-2.1
					c-0.2-0.3-0.4-0.5-0.7-0.8C137.9,182.2,137.7,182.2,137.5,182.2z"/>
			</g>
		</g>
		<g>
			<g>
				<path class="st2" d="M141.1,188.6c-0.2,0.3-0.4,0.5-0.6,0.8C140.8,189.2,141,188.9,141.1,188.6z"/>
			</g>
		</g>
		<g>
			<g>
				<path class="st2" d="M169.8,196c0-0.5,0.1-1.1,0.2-1.6c-0.4,0.1-0.9,0.1-1.3,0.2C169.2,195,169.5,195.5,169.8,196z"/>
			</g>
		</g>
		<g>
			<g>
				<path class="st2" d="M170.1,198.2c0.1,0,0.1,0,0.2,0c-0.1-0.1-0.1-0.2-0.2-0.4C170.1,198,170.1,198.1,170.1,198.2z"/>
			</g>
		</g>
		<g>
			<g>
				<path class="st2" d="M170.1,197.8c-0.2-0.6-0.4-1.2-0.4-1.8c-0.2-0.5-0.6-1-1.1-1.4c0,0-0.1,0-0.1,0c0.5,1.2,0.4,2.7-0.2,3.9
					c0.6-0.1,1.2-0.2,1.8-0.3C170.1,198.1,170.1,198,170.1,197.8z"/>
			</g>
		</g>
		<g>
			<g>
				<path class="st2" d="M185.3,186.7c-0.7,0.7-1.4,1.3-2.2,2c0.7,0.7,1.1,1.7,1.2,2.8c0.4-0.3,0.8-0.6,1.2-0.9
					c0.6-0.5,1.3-1,1.9-1.6C187.1,188,186.4,187.1,185.3,186.7z"/>
			</g>
		</g>
		<g>
			<g>
				<path class="st2" d="M181.7,193.3c0.9-0.6,1.8-1.2,2.7-1.9c-0.1-1-0.5-2-1.2-2.8c-0.7,0.5-1.3,1-2,1.5
					C181.9,191,182.1,192.3,181.7,193.3z"/>
			</g>
		</g>
		<g>
			<g>
				<path class="st2" d="M181.1,190.1c-0.5,0.3-1,0.7-1.5,1c0.1,1,0.5,2,1.3,2.7c0.3-0.2,0.5-0.3,0.8-0.5
					C182.1,192.3,181.9,191,181.1,190.1z"/>
			</g>
		</g>
		<g>
			<g>
				<path class="st2" d="M195.8,168.4c1.1,0.5,1.6,1.6,1.6,2.7c0.1,0.1,0.1,0.2,0.2,0.3c2.3-1.8,2-6.1-0.9-7.4
					c0,0.2-0.1,0.4-0.1,0.7C196.4,165.9,196.2,167.2,195.8,168.4z"/>
			</g>
		</g>
		<g>
			<g>
				<path class="st2" d="M197.4,171.1c0-1.1-0.5-2.3-1.6-2.7c-0.1,0.5-0.3,1-0.4,1.5C196.2,170.1,196.9,170.5,197.4,171.1z"/>
			</g>
		</g>
		<g>
			<g>
				<path class="st2" d="M197.4,171.5c0.1-0.1,0.2-0.1,0.2-0.2c-0.1-0.1-0.1-0.2-0.2-0.3C197.4,171.3,197.4,171.4,197.4,171.5z"/>
			</g>
		</g>
		<g>
			<g>
				<path class="st2" d="M195.4,169.9c-0.2,0.8-0.5,1.5-0.8,2.3c0.1,0,0.3,0,0.5,0c0.9,0,1.7-0.2,2.3-0.7c0-0.1,0-0.3,0-0.4
					C196.9,170.5,196.2,170.1,195.4,169.9z"/>
			</g>
		</g>
		<g>
			<g>
				<path class="st11" d="M18.3,141.1c0-0.6,0.1-1.1,0.4-1.6c0.2-0.5,0.5-1,0.9-1.4c0.1-0.1,0.1-0.1,0.2-0.2
					c-0.5-0.2-1.1-0.3-1.7-0.3c-5.5,0-5.5,8.5,0,8.5c1.2,0,2.2-0.4,2.9-1.1c-0.5-0.2-0.9-0.5-1.3-0.9
					C18.7,143.3,18.3,142.2,18.3,141.1z"/>
			</g>
		</g>
		<g>
			<g>
				<path class="st11" d="M19.7,137.9c-0.1,0.1-0.1,0.1-0.2,0.2c-0.4,0.4-0.7,0.8-0.9,1.4c-0.3,0.5-0.4,1.1-0.4,1.6
					c0,1.1,0.4,2.2,1.2,3c0.4,0.4,0.9,0.7,1.3,0.9C22.8,143,22.5,139.1,19.7,137.9z"/>
			</g>
		</g>
		<g>
			<g>
				<path class="st11" d="M30.9,140.2c0,2-1.2,4.1-3.8,4.1c-0.1,0-0.2,0-0.3,0c-0.1,2.2,1.3,4.5,4.1,4.5c0.3,0,0.6,0,0.8-0.1
					c0.7-2.2,1.6-4.3,2.8-6.2C33.9,141.2,32.7,140.3,30.9,140.2z"/>
			</g>
		</g>
		<g>
			<g>
				<path class="st11" d="M30.9,140.2C30.9,140.2,30.9,140.2,30.9,140.2c-2.7,0-4.1,2-4.2,4c0.1,0,0.2,0,0.3,0
					C29.7,144.3,30.9,142.3,30.9,140.2z"/>
			</g>
		</g>
		<g>
			<g>
				<path class="st11" d="M49.8,131.5c0.7-0.2,1.5-0.4,2.2-0.6c-0.6-1-0.5-2.3,0.2-3.3c-1,0.2-2.1,0.5-3.1,0.7
					C49.7,129.2,49.9,130.3,49.8,131.5z"/>
			</g>
		</g>
		<g>
			<g>
				<path class="st11" d="M52,130.9c0.3-0.1,0.7-0.1,1-0.2c-0.5-1-0.6-2.1-0.3-3.2c-0.2,0-0.3,0.1-0.5,0.1
					C51.5,128.5,51.4,129.9,52,130.9z"/>
			</g>
		</g>
		<g>
			<g>
				<path class="st11" d="M49.8,131.5c0.1-1.1-0.1-2.3-0.8-3.2c-1.1,0.3-2.2,0.6-3.3,0.9c-0.1,1.2,0.2,2.4,0.9,3.3
					C47.6,132.1,48.7,131.8,49.8,131.5C49.8,131.5,49.8,131.5,49.8,131.5z"/>
			</g>
		</g>
		<g>
			<g>
				<path class="st11" d="M53.3,127.4c-0.2,0-0.4,0.1-0.7,0.1c-0.2,1.1-0.1,2.2,0.3,3.2c0.3-0.1,0.6-0.1,0.9-0.2
					C54,129.4,53.8,128.3,53.3,127.4z"/>
			</g>
		</g>
		<g>
			<g>
				<path class="st11" d="M61.6,129.9c0.4,0,0.7,0,1.1,0c1.3,0,2.5,0,3.8,0.1c0.1-1.1,0.6-2.2,1.5-2.9c-0.4-0.1-0.9-0.2-1.3-0.2
					c-1.5-0.2-3-0.3-4.4-0.3C61.6,127.5,61.4,128.7,61.6,129.9z"/>
			</g>
		</g>
		<g>
			<g>
				<path class="st11" d="M69.5,127.4c-0.5-0.1-1-0.2-1.6-0.3c-0.9,0.7-1.4,1.8-1.5,2.9c1,0.1,2.1,0.2,3.1,0.3
					C69.9,129.4,69.8,128.4,69.5,127.4z"/>
			</g>
		</g>
		<g>
			<g>
				<path class="st11" d="M87.3,138C87.3,138,87.3,138,87.3,138c1.1,1,2.1,2,3,3.2c0.4,0.5,0.8,1.1,1.2,1.7
					c-0.3-2.1,0.8-4.4,3.2-4.8c-0.6-1.3-1.8-2.3-3.7-2.3c-0.9,0-1.7,0.3-2.3,0.7C88.5,137.1,88,137.7,87.3,138z"/>
			</g>
		</g>
		<g>
			<g>
				<path class="st11" d="M87.3,138c0.7-0.3,1.2-0.9,1.4-1.6C88.1,136.8,87.6,137.3,87.3,138z"/>
			</g>
		</g>
		<g>
			<g>
				<path class="st11" d="M91.5,142.9c0.3,0.4,0.5,0.8,0.8,1.2c2.6-0.7,3.5-3.8,2.5-6C92.3,138.5,91.2,140.8,91.5,142.9z"/>
			</g>
		</g>
		<g>
			<g>
				<path class="st11" d="M99,156.8c-1.1,0-1.9-0.4-2.6-0.9c0.1,0.9,0.2,1.8,0.3,2.7c0.2,0.1,0.5,0.2,0.8,0.3
					c0.5-0.3,1.2-0.4,1.9-0.4c0.4,0,0.8,0.1,1.2,0.1c1.7-0.8,2.4-2.8,2.2-4.5C102.2,155.5,101,156.8,99,156.8z"/>
			</g>
		</g>
		<g>
			<g>
				<path class="st11" d="M98.6,150.5c-1.4,0-2.4,0.5-3.1,1.3c0.4,1.3,0.7,2.7,0.9,4.1c0.6,0.6,1.5,0.9,2.6,0.9c2,0,3.3-1.3,3.7-2.8
					C102.4,152.1,101,150.5,98.6,150.5z"/>
			</g>
		</g>
		<g>
			<g>
				<path class="st11" d="M97.4,158.8c0.4,0.1,0.7,0.1,1.2,0.1c0.7,0,1.4-0.2,1.9-0.4c-0.4-0.1-0.7-0.1-1.2-0.1
					C98.6,158.4,98,158.6,97.4,158.8z"/>
			</g>
		</g>
		<g>
			<g>
				<path class="st11" d="M59.9,194.2c-0.9-0.1-1.8-0.2-2.7-0.3c0.3,1.4-0.1,2.9-1,3.9c0.7,0.2,1.4,0.4,2.1,0.5
					C59.6,197.4,60.1,195.7,59.9,194.2z"/>
			</g>
		</g>
		<g>
			<g>
				<path class="st11" d="M53.2,197c0.9,0.3,1.8,0.5,2.7,0.7c0.1,0,0.2,0,0.3,0.1c0.9-1,1.3-2.5,1-3.9c-1-0.2-2-0.4-3-0.7
					C54.4,194.5,54.1,196,53.2,197z"/>
			</g>
		</g>
		<g>
			<g>
				<path class="st11" d="M54.2,193.2c-0.7-0.2-1.3-0.4-1.9-0.6c-0.7,1.2-0.7,2.8-0.2,4.1c0.4,0.1,0.8,0.2,1.1,0.3
					C54.1,196,54.4,194.5,54.2,193.2z"/>
			</g>
		</g>
		<g>
			<g>
				<path class="st11" d="M147.8,191.6c0.3-0.2,0.7-0.3,1.1-0.4c-0.3-0.1-0.5-0.3-0.8-0.4c-0.1,0-0.2,0.1-0.3,0.1
					C147.8,191.2,147.8,191.4,147.8,191.6z"/>
			</g>
		</g>
		<g>
			<g>
				<path class="st11" d="M151.5,192.5c-0.9-0.4-1.7-0.8-2.6-1.2c-0.4,0-0.8,0.2-1.1,0.4c0,1-0.4,2-1.2,2.8c0.5,0.3,1,0.5,1.4,0.8
					C148.6,193.7,149.7,192.6,151.5,192.5z"/>
			</g>
		</g>
		<g>
			<g>
				<path class="st11" d="M147.8,191.6c0-0.2,0-0.4,0-0.7c-1.2,0.6-1.9,1.6-2.1,2.8c0.3,0.2,0.6,0.3,0.9,0.5
					C146.5,193.3,146.9,192.2,147.8,191.6z"/>
			</g>
		</g>
		<g>
			<g>
				<path class="st11" d="M147.8,191.6c-0.9,0.6-1.3,1.7-1.3,2.7c0,0,0.1,0,0.1,0.1C147.4,193.6,147.8,192.6,147.8,191.6z"/>
			</g>
		</g>
		<g>
			<g>
				<path class="st11" d="M146.6,194.4C146.6,194.3,146.6,194.3,146.6,194.4C146.5,194.4,146.5,194.4,146.6,194.4
					C146.6,194.4,146.6,194.4,146.6,194.4z"/>
			</g>
		</g>
		<g>
			<g>
				<path class="st11" d="M151.9,193.3c0.2-0.2,0.4-0.3,0.7-0.4c-0.3-0.1-0.7-0.3-1-0.4C151.8,192.8,151.9,193,151.9,193.3z"/>
			</g>
		</g>
		<g>
			<g>
				<path class="st11" d="M151.5,192.5c-1.8,0.1-3,1.3-3.4,2.7c0.8,0.4,1.6,0.8,2.4,1.1c0.1-1.1,0.6-2.2,1.4-2.9
					C151.9,193,151.8,192.8,151.5,192.5C151.6,192.5,151.5,192.5,151.5,192.5z"/>
			</g>
		</g>
		<g>
			<g>
				<path class="st11" d="M151.6,192.5C151.6,192.5,151.6,192.5,151.6,192.5C151.6,192.5,151.5,192.5,151.6,192.5
					C151.5,192.5,151.6,192.5,151.6,192.5z"/>
			</g>
		</g>
		<g>
			<g>
				<path class="st11" d="M163.6,194.9C163.6,194.9,163.6,194.9,163.6,194.9c-0.9,0-1.8,0-2.7-0.1c-0.4,1.3-0.3,2.8,0.5,4
					c0.4,0,0.8,0,1.2,0.1C162.3,197.5,162.6,196,163.6,194.9z"/>
			</g>
		</g>
		<g>
			<g>
				<path class="st11" d="M166.4,194.8c-0.9,0.1-1.9,0.1-2.8,0.1c-1,1-1.3,2.5-1,3.9c1.7,0.1,3.3,0,4.9-0.2
					C166.6,197.7,166.2,196.2,166.4,194.8z"/>
			</g>
		</g>
		<g>
			<g>
				<path class="st11" d="M168.6,194.6c-0.7,0.1-1.5,0.2-2.2,0.2c-0.2,1.4,0.2,2.8,1.1,3.8c0.3,0,0.6-0.1,0.8-0.1
					C169,197.4,169.1,195.9,168.6,194.6z"/>
			</g>
		</g>
		<g>
			<g>
				<path class="st11" d="M194.3,178.3c-0.9,0-1.6-0.2-2.3-0.6c-0.3,0.6-0.7,1.2-1.1,1.8c1.4,0.6,2.1,2,2.2,3.4
					c0.9-1.4,1.8-2.8,2.5-4.3c-0.1-0.1-0.2-0.2-0.3-0.4C195,178.2,194.7,178.3,194.3,178.3z"/>
			</g>
		</g>
		<g>
			<g>
				<path class="st11" d="M191.2,185.3c0.5-0.6,1-1.2,1.5-1.8c0.2-0.2,0.3-0.5,0.5-0.7c-0.1-1.4-0.8-2.8-2.2-3.4
					c-0.7,1.2-1.5,2.4-2.4,3.5C189,184,189.9,185,191.2,185.3z"/>
			</g>
		</g>
		<g>
			<g>
				<path class="st11" d="M194.3,178.3c0.4,0,0.7,0,1.1-0.1c-0.7-0.7-1.7-1.2-2.9-1.2c-0.1,0.2-0.3,0.5-0.4,0.7
					C192.6,178,193.4,178.3,194.3,178.3z"/>
			</g>
		</g>
		<g>
			<g>
				<path class="st11" d="M183.8,134.1c0.4,0.1,0.7,0.3,1,0.4c0-0.2-0.1-0.4-0.1-0.6c0-0.6,0.1-1.1,0.4-1.6c0.2-0.5,0.5-1,0.9-1.4
					c0.1-0.1,0.2-0.2,0.3-0.2c-0.1-0.1-0.3-0.1-0.4-0.2C184.5,131.2,183.8,132.6,183.8,134.1z"/>
			</g>
		</g>
		<g>
			<g>
				<path class="st11" d="M167.5,130.9c0,0.1,0,0.2,0.1,0.3c1.9,0.1,3.9,0.2,5.8,0.5c-0.1-1.5,0.4-3,1.7-3.8
					c-0.2-0.3-0.4-0.6-0.6-0.8c-1.5-0.3-3.1-0.6-4.6-0.9c-0.3,0.1-0.6,0.3-0.9,0.5C169.8,128.2,169.4,130.4,167.5,130.9z"/>
			</g>
		</g>
		<g>
			<g>
				<path class="st11" d="M169,126.7c-1.2,1-1.7,2.7-1.5,4.2C169.4,130.4,169.8,128.2,169,126.7z"/>
			</g>
		</g>
		<g>
			<g>
				<path class="st11" d="M175.1,127.9c-1.3,0.8-1.8,2.3-1.7,3.8c0.6,0.1,1.3,0.2,1.9,0.3C175.9,130.6,175.8,129.1,175.1,127.9z"/>
			</g>
		</g>
		<g>
			<g>
				<path class="st11" d="M155.6,131.9c2-0.4,4.1-0.6,6.1-0.7c1-1.5,1-3.6,0-5.1c-2.4,0.4-4.7,1.1-7,1.8c-0.1,0-0.2,0.1-0.4,0.1
					C154.1,129.3,154.5,130.9,155.6,131.9z"/>
			</g>
		</g>
		<g>
			<g>
				<path class="st10" d="M41.7,185.3c-1.2-1.3-2.6-3-3.8-4.7c0.3,1.7-0.3,3.7-1.8,4.6c1,1.1,2.1,2.2,3.2,3.3
					C40.7,188,41.5,186.7,41.7,185.3z"/>
			</g>
		</g>
		<g>
			<g>
				<path class="st10" d="M37.7,180.3c-2,0-3.2,1.1-3.8,2.5c0.7,0.7,1.3,1.5,2,2.2c0.1,0.1,0.1,0.1,0.2,0.2c1.6-0.9,2.2-2.9,1.8-4.6
					C37.8,180.5,37.8,180.4,37.7,180.3C37.7,180.3,37.7,180.3,37.7,180.3z"/>
			</g>
		</g>
		<g>
			<g>
				<path class="st10" d="M37.7,180.3c0.1,0.1,0.1,0.2,0.2,0.3c0-0.1,0-0.2-0.1-0.3C37.8,180.3,37.7,180.3,37.7,180.3z"/>
			</g>
		</g>
		<g>
			<g>
				<path class="st10" d="M46.2,193c-0.3,0.1-0.6,0.1-0.9,0.1c-0.3,0-0.6,0-0.9-0.1c0.6,0.4,1.1,0.8,1.7,1.1
					C46,193.7,46.1,193.3,46.2,193z"/>
			</g>
		</g>
		<g>
			<g>
				<path class="st10" d="M44.2,187.6c-0.2-0.1-0.3-0.3-0.5-0.5c-1.7,0.1-2.8,1.2-3.3,2.5c0.9,0.8,1.7,1.6,2.7,2.3
					C42,190.6,42.4,188.3,44.2,187.6z"/>
			</g>
		</g>
		<g>
			<g>
				<path class="st10" d="M44.3,193c-0.4-0.3-0.9-0.6-1.3-1C43.3,192.4,43.7,192.8,44.3,193z"/>
			</g>
		</g>
		<g>
			<g>
				<path class="st10" d="M46.2,193c0.2-1,0.8-2,1.8-2.6c-1.3-0.8-2.5-1.7-3.7-2.8c-1.7,0.7-2.1,3-1.2,4.4c0.4,0.3,0.9,0.7,1.3,1
					c0.3,0.1,0.6,0.1,0.9,0.1C45.6,193.1,45.9,193.1,46.2,193z"/>
			</g>
		</g>
		<g>
			<g>
				<path class="st10" d="M48.1,190.5c-0.1,0-0.1-0.1-0.2-0.1c-0.1,1.1-0.7,2.2-1.8,2.5c-0.1,0.4-0.1,0.7-0.1,1.1
					c0.3,0.2,0.6,0.3,0.9,0.5C48,193.6,48.4,192,48.1,190.5z"/>
			</g>
		</g>
		<g>
			<g>
				<path class="st10" d="M48,190.4c0.1,0,0.1,0.1,0.2,0.1c0-0.1,0-0.1,0-0.2C48,190.3,48,190.3,48,190.4
					C48,190.4,48,190.4,48,190.4z"/>
			</g>
		</g>
		<g>
			<g>
				<path class="st10" d="M46.2,193c1.2-0.4,1.8-1.4,1.8-2.5c0,0,0,0,0,0C47,191,46.4,191.9,46.2,193z"/>
			</g>
		</g>
		<g>
			<g>
				<path class="st10" d="M47.9,190.4C47.9,190.4,48,190.4,47.9,190.4C48,190.4,48,190.4,47.9,190.4C48,190.4,47.9,190.4,47.9,190.4
					z"/>
			</g>
		</g>
		<g>
			<g>
				<path class="st10" d="M92.5,182c-1.4,0-2.5-0.6-3.2-1.4c-0.5,0.7-1,1.4-1.6,2c-0.5,0.6-0.9,1.1-1.4,1.6c0.5,1.5,1.8,2.7,3.8,2.7
					c1.5-1.6,2.8-3.3,4.1-5.2c0,0,0-0.1,0-0.1C93.8,181.9,93.2,182,92.5,182z"/>
			</g>
		</g>
		<g>
			<g>
				<path class="st10" d="M92.5,182c0.7,0,1.2-0.1,1.7-0.3c-0.3-1.6-1.5-3-3.4-3.2c-0.5,0.7-1,1.4-1.5,2.1
					C90,181.5,91.1,182,92.5,182z"/>
			</g>
		</g>
		<g>
			<g>
				<path class="st10" d="M126.1,138.6c0.1-1.4-0.5-2.8-1.6-3.7c-1.3-0.2-2.7-0.4-4-0.5c-0.5,0.2-0.9,0.4-1.2,0.7
					c0.3,0.3,0.5,0.7,0.6,1.1c0.1,0.3,0.1,0.7,0.1,1c0.3,1.4,0,3-1,4.1c0,0.1,0.1,0.1,0.2,0.2c0,0,0.1,0,0.1,0
					c1.4,0.1,2.8,0.4,4.1,0.9c0.1,0,0.2-0.1,0.3-0.1C123.7,140.8,124.5,139.2,126.1,138.6z"/>
			</g>
		</g>
		<g>
			<g>
				<path class="st10" d="M119,135.5c0.5,0.5,0.8,1.2,0.9,1.8c0-0.3,0-0.7-0.1-1c-0.1-0.4-0.4-0.8-0.6-1.1
					C119.2,135.3,119.1,135.4,119,135.5z"/>
			</g>
		</g>
		<g>
			<g>
				<path class="st10" d="M118.1,139.7c0.2,0.6,0.5,1.2,0.9,1.7c1-1.1,1.3-2.7,1-4.1C119.8,138.4,119.1,139.4,118.1,139.7z"/>
			</g>
		</g>
		<g>
			<g>
				<path class="st10" d="M118.1,139.7c1-0.3,1.7-1.4,1.9-2.4c-0.2-0.7-0.5-1.3-0.9-1.8C118,136.6,117.7,138.3,118.1,139.7z"/>
			</g>
		</g>
		<g>
			<g>
				<path class="st10" d="M123.6,142.4c1.6-0.6,2.5-2.2,2.5-3.8C124.5,139.2,123.7,140.8,123.6,142.4z"/>
			</g>
		</g>
		<g>
			<g>
				<path class="st10" d="M99.7,139.1c-0.4,0-0.8,0.1-1.1,0.1c1.9,2.1,1.3,6.3-1.9,7.1c0.7,0.8,1.7,1.3,3,1.3c0.6,0,1.1-0.1,1.5-0.3
					c0.1-0.8,0.3-1.5,0.8-2.1c0.4-0.5,1-0.8,1.7-1.1C104.1,141.8,102.8,139.1,99.7,139.1z"/>
			</g>
		</g>
		<g>
			<g>
				<path class="st10" d="M96.7,146.3c3.2-0.8,3.8-5,1.9-7.1C95.4,140,94.8,144.2,96.7,146.3z"/>
			</g>
		</g>
		<g>
			<g>
				<path class="st10" d="M79.6,133.1c1.3,0.6,2.6,1.2,3.8,2c0.1-1.2,0.9-2.2,2.2-2.5c-1.5-0.5-3-1-4.5-1.5
					C80.4,131.6,79.9,132.3,79.6,133.1z"/>
			</g>
		</g>
		<g>
			<g>
				<path class="st10" d="M87.3,133.2c-0.6-0.2-1.2-0.4-1.8-0.6c-1.3,0.2-2.1,1.3-2.2,2.5c1.2,0.7,2.2,1.5,3.3,2.4
					C87.5,136.3,87.8,134.6,87.3,133.2z"/>
			</g>
		</g>
		<g>
			<g>
				<path class="st10" d="M190,138c0,0,0.1,0.1,0.1,0.1c0.2,0,0.5-0.1,0.7-0.1c0-0.2,0-0.4,0-0.7C190.6,137.6,190.3,137.8,190,138z"
					/>
			</g>
		</g>
		<g>
			<g>
				<path class="st10" d="M191.8,135.4c0.4-0.3,1-0.5,1.7-0.5c0.1,0,0.2,0,0.4,0c0.1-0.2,0.1-0.5,0.1-0.8c-0.7-0.3-1.4-0.6-2.1-0.9
					C192,133.9,192,134.7,191.8,135.4z"/>
			</g>
		</g>
		<g>
			<g>
				<path class="st10" d="M191.8,135.4c-0.2,0.7-0.5,1.4-1,1.9c0,0.2,0,0.4,0,0.7c0,0,0,0,0,0c0.4-1.2,1.4-2.3,2.9-2.6
					c0.1-0.2,0.2-0.4,0.2-0.6c-0.1,0-0.2,0-0.4,0C192.8,134.8,192.3,135.1,191.8,135.4z"/>
			</g>
		</g>
		<g>
			<g>
				<path class="st10" d="M193.6,135.5c0,0,0-0.1,0.1-0.1c-1.5,0.3-2.4,1.3-2.9,2.6c0.7-0.2,1.4-0.6,1.9-1.1
					C193.2,136.5,193.5,136.1,193.6,135.5z"/>
			</g>
		</g>
		<g>
			<g>
				<path class="st10" d="M190,138c0.3-0.2,0.6-0.4,0.8-0.7c0.1-0.8,0.4-1.5,1-1.9c0.2-0.7,0.2-1.5,0-2.2c-0.8-0.3-1.6-0.7-2.4-1.1
					c-1.1-0.5-2.1-1-3.2-1.5c-0.1,0.1-0.2,0.2-0.3,0.2c-0.4,0.4-0.7,0.8-0.9,1.4c-0.3,0.5-0.4,1.1-0.4,1.6c0,0.2,0,0.4,0.1,0.6
					c1.9,0.9,3.7,2,5,3.3C189.9,137.9,189.9,138,190,138z"/>
			</g>
		</g>
		<g>
			<g>
				<path class="st10" d="M190.8,137.3c0.5-0.5,0.9-1.2,1-1.9C191.2,135.9,190.9,136.6,190.8,137.3z"/>
			</g>
		</g>
		<g>
			<g>
				<path class="st10" d="M176.3,192.7c-0.7,0.3-1.4,0.5-2.2,0.8c0.5,1.1,0.6,2.4,0.2,3.6c0.4-0.1,0.8-0.3,1.1-0.4
					c0.8-0.3,1.7-0.7,2.5-1.1c0,0,0-0.1,0-0.1C177,194.7,176.5,193.8,176.3,192.7z"/>
			</g>
		</g>
		<g>
			<g>
				<path class="st10" d="M176.5,192.6c-0.1,0-0.1,0-0.2,0.1c0.2,1.1,0.8,2,1.7,2.6c0-0.2-0.1-0.5-0.1-0.7
					C177,194.3,176.6,193.5,176.5,192.6z"/>
			</g>
		</g>
		<g>
			<g>
				<path class="st10" d="M176.5,192.6C176.5,192.6,176.5,192.6,176.5,192.6c0.1,0.9,0.5,1.6,1.3,2.1
					C177.6,193.9,177.2,193.1,176.5,192.6z"/>
			</g>
		</g>
		<g>
			<g>
				<path class="st10" d="M176.5,192.6C176.5,192.6,176.5,192.6,176.5,192.6c0-0.1,0-0.1,0-0.1C176.4,192.6,176.4,192.6,176.5,192.6
					z"/>
			</g>
		</g>
		<g>
			<g>
				<path class="st10" d="M169.8,196c0.3,0.6,0.4,1.2,0.4,1.8c0.1,0.1,0.1,0.2,0.2,0.4c1.4-0.3,2.7-0.7,4-1.1
					c0.4-1.2,0.3-2.5-0.2-3.6c-1.3,0.4-2.7,0.7-4.1,1C169.8,194.9,169.7,195.5,169.8,196z"/>
			</g>
		</g>
		<g>
			<g>
				<path class="st10" d="M169.8,196c0,0.6,0.1,1.2,0.4,1.8C170.1,197.2,170,196.6,169.8,196z"/>
			</g>
		</g>
		<g>
			<g>
				<path class="st10" d="M158.1,194.4c-1.1-0.2-2.2-0.5-3.2-0.8c1,1.1,1.3,2.8,1,4.3c0.8,0.2,1.7,0.4,2.5,0.5
					C158.8,197.2,158.8,195.6,158.1,194.4z"/>
			</g>
		</g>
		<g>
			<g>
				<path class="st10" d="M153.1,197.2c0.5,0.2,1,0.3,1.5,0.4c0.4,0.1,0.8,0.2,1.3,0.3c0.4-1.5,0.1-3.2-1-4.3
					c-0.5-0.1-0.9-0.3-1.4-0.5C153.9,194.5,153.8,196,153.1,197.2z"/>
			</g>
		</g>
		<g>
			<g>
				<path class="st10" d="M153.5,193.2c-0.3-0.1-0.6-0.2-0.9-0.3c-0.2,0.1-0.5,0.3-0.7,0.4c0.2,1.1-0.1,2.4-1,3.1
					c0.7,0.3,1.5,0.6,2.2,0.8C153.8,196,153.9,194.5,153.5,193.2z"/>
			</g>
		</g>
		<g>
			<g>
				<path class="st10" d="M150.5,196.2c0.1,0.1,0.3,0.1,0.4,0.2c0.9-0.7,1.3-1.9,1-3.1C151.1,194.1,150.6,195.1,150.5,196.2z"/>
			</g>
		</g>
	</g>
	<g>
		<g>
			<g>
				<path d="M63.4,194.4c-8.7,0-14.2-2.1-20.4-7.8c-2.5-2.3-6.2-7.2-8.1-10.4c-2.8-4.6-3.7-9.5-4.4-14.5c-1.2-8.9,1.8-18.4,7.7-24.3
					c3.5-3.5,8-5.1,11.6-6.2c4.3-1.3,8-1.6,13-1.6c0.1,0,0.2,0,0.2,0c11.9,0,21.7,4,27.4,11.4c4.4,5.6,6.8,13.4,6.4,20.7l-0.1,0
					l0.1,0c-0.5,9.4-4.8,15.9-8.9,20.9C81.5,190.6,73.5,194.4,63.4,194.4z M63,130c-0.1,0-0.1,0-0.2,0c-5.7,0-9.1,0.4-12.9,1.6
					c-3.6,1.1-8.1,2.7-11.5,6.2c-5.8,5.8-8.8,15.2-7.6,24c0.7,5.2,1.5,9.8,4.3,14.4c2,3.2,5.6,8,8.1,10.3c6.1,5.6,11.6,7.7,20.2,7.7
					c10,0,18-3.8,24.4-11.7c4.1-5,8.3-11.4,8.8-20.7c0.4-7.3-2-14.9-6.3-20.5C84.6,134,74.9,130,63,130z"/>
			</g>
		</g>
		<g>
			<g>
				<path d="M98.2,137.2c0,0-0.1,0-0.1-0.1c0-0.1,0-0.1,0-0.2c3.1-2.1,6.9-2.6,10.3-2.8c7.4-0.5,14.8,0.1,22,1.7
					c0.1,0,0.1,0.1,0.1,0.1c0,0.1-0.1,0.1-0.1,0.1c-7.2-1.6-14.6-2.2-21.9-1.7C105.1,134.6,101.3,135.1,98.2,137.2
					C98.2,137.2,98.2,137.2,98.2,137.2z"/>
			</g>
		</g>
		<g>
			<g>
				<path d="M125.5,164.8c-0.1,0-0.1,0-0.1-0.1c-1-3.5-0.9-6.9-0.8-10.5c0-0.5,0-1,0-1.5c0-0.6,0-1.2,0.3-1.7
					c0.2-0.4,0.5-0.8,0.8-1.1c0.2-0.2,0.4-0.4,0.5-0.6c1.2-1.7,0.5-4.3-1.1-5.6c-1.7-1.5-4-1.9-5.9-2.1c-5.1-0.5-10.4,0.3-15.1,2.3
					c-0.7,0.3-1.4,0.6-2,1.2c-1.2,1.4-0.9,3.5-0.4,5.5c0.3,1.2,0.8,2.6,1.9,3.1c0.1,0,0.1,0.1,0.1,0.2c0,0.1-0.1,0.1-0.2,0.1
					c-1.2-0.6-1.6-2-2-3.3c-0.5-2-0.9-4.3,0.4-5.7c0.6-0.6,1.4-1,2.1-1.3c4.8-2,10-2.8,15.2-2.4c1.9,0.2,4.3,0.6,6,2.1
					c1.6,1.4,2.4,4,1.1,5.9c-0.2,0.2-0.4,0.5-0.6,0.7c-0.3,0.3-0.6,0.6-0.8,1c-0.2,0.5-0.2,1-0.3,1.6c0,0.5,0,1,0,1.5
					c-0.1,3.6-0.2,6.9,0.8,10.4C125.7,164.7,125.6,164.7,125.5,164.8C125.5,164.8,125.5,164.8,125.5,164.8z"/>
			</g>
		</g>
		<g>
			<g>
				<path d="M63.3,199c-0.1,0-0.1,0-0.2,0c-2.5,0-4.9-0.7-7.1-1.2c-3.3-0.9-6.1-1.6-8.7-3c-4.5-2.3-8.2-6.3-11.4-9.8
					c-2.1-2.3-4.3-4.7-5.9-7.5c-1.6-3-2.5-6.3-3.3-9.5L22.9,154c-0.3-1-0.6-2-1.3-2.5c-0.4-0.3-0.9-0.5-1.5-0.6
					c-0.1,0-0.3-0.1-0.4-0.1c-3.7-1.2-6.4-5.1-6.1-9c0.1-0.9,0.3-1.7,0.6-2.3c1.2-2.2,4-2.7,6.5-3.1c5.7-1,11.2-2.8,16.5-4.6
					c2-0.7,4.1-1.4,6.1-2c6.5-2,15-4.2,23.3-3c4,0.6,7.9,1.9,11.7,3.2l19.4,6.7c0.1,0,0.1,0.1,0.1,0.2c0,0.1-0.1,0.1-0.2,0.1
					l-19.4-6.7c-3.8-1.3-7.6-2.6-11.6-3.2c-8.2-1.2-16.7,1-23.2,3c-2,0.6-4.1,1.3-6.1,2c-5.4,1.8-10.9,3.7-16.6,4.6
					c-2.4,0.4-5.2,0.9-6.3,3c-0.3,0.6-0.5,1.3-0.6,2.2c-0.3,3.8,2.3,7.6,5.9,8.7c0.1,0,0.3,0.1,0.4,0.1c0.5,0.2,1.1,0.3,1.5,0.7
					c0.8,0.6,1.1,1.6,1.4,2.6l3.7,14.2c0.8,3.2,1.7,6.5,3.3,9.4c1.5,2.8,3.7,5.1,5.8,7.4c3.4,3.6,6.8,7.4,11.3,9.7
					c2.6,1.3,5.3,2.1,8.7,2.9c2.2,0.6,4.6,1.2,7.1,1.2c2.9,0,5.7-0.7,8.4-1.5c2.8-0.8,5.8-1.6,8.5-2.8c6-2.8,11.4-7.8,15.5-14.7
					c3.8-6.3,6.3-13.7,8.2-20.1c0.6-2.1,1-4.9-0.8-6c-0.1,0-0.1-0.1,0-0.2c0-0.1,0.1-0.1,0.2,0c2,1.2,1.6,4.1,1,6.3
					c-1.9,6.4-4.4,13.8-8.3,20.1c-4.2,6.9-9.6,12-15.7,14.8c-2.7,1.3-5.7,2.1-8.5,2.9C68.9,198.3,66.1,199,63.3,199z"/>
			</g>
		</g>
		<g>
			<g>
				<path d="M163.8,199c-3,0-6.1-0.4-9.1-1.2c-6.7-1.8-12.9-5.7-18-11c-5.9-6.2-9.9-14.2-11.3-22.7c0-0.1,0-0.1,0.1-0.1
					c0.1,0,0.1,0,0.1,0.1c1.4,8.4,5.4,16.4,11.2,22.5c5,5.3,11.2,9.1,17.9,11c7,1.9,14.4,1.6,20.8-1c3.2-1.3,6.4-3.3,10.1-6.1
					c3.1-2.5,5.4-4.7,7.1-7c3.7-4.9,5.4-11.2,7-16.7l2.1-7.5c1.1-3.8,2.4-7.7,5.7-9.6c0.3-0.2,0.6-0.3,1-0.5
					c0.6-0.3,1.3-0.6,1.8-1.1c1.6-1.5,1.4-4,1-6.5c-0.1-0.5-0.2-1.1-0.4-1.5c-0.6-1-1.8-1.3-3.1-1.6c-6.3-1.4-12.5-3.4-18.3-6.1
					c-0.5-0.3-1.1-0.5-1.6-0.8c-1.6-0.8-3.3-1.6-5-2.2c-2.5-0.9-5.1-1.5-7.6-2c-3.7-0.8-7.6-1.7-11.5-1.4c-3,0.2-6,1.1-9,2l-0.2,0.1
					c-8.3,2.6-16.1,5-24.3,8.3c-0.1,0-0.1,0-0.2-0.1c0-0.1,0-0.1,0.1-0.2c8.2-3.3,16-5.7,24.3-8.3l0.2-0.1c3-0.9,6-1.8,9.1-2
					c3.9-0.3,7.8,0.6,11.5,1.4c2.5,0.5,5.1,1.1,7.6,2c1.7,0.6,3.4,1.4,5,2.2c0.5,0.3,1.1,0.5,1.6,0.8c5.8,2.7,12,4.7,18.3,6.1
					c1.3,0.3,2.6,0.6,3.2,1.7c0.3,0.5,0.4,1.1,0.5,1.6c0.4,2.5,0.5,5.1-1.1,6.7c-0.5,0.5-1.2,0.9-1.9,1.2c-0.3,0.2-0.6,0.3-1,0.5
					c-3.2,1.8-4.5,5.7-5.5,9.5l-2.1,7.5c-1.6,5.5-3.4,11.8-7,16.8c-1.7,2.3-4,4.6-7.2,7c-3.6,2.9-6.9,4.8-10.1,6.1
					C171.9,198.2,167.9,199,163.8,199z"/>
			</g>
		</g>
		<g>
			<g>
				<path d="M163.7,195.1c-17.6,0-33-15.4-33-33c0-6.2,0.2-12.1,3-16.8c5.9-9.9,19.3-14.4,30-14.4c8.9,0,20.7,1.2,26.4,6.8
					c6,6,8.2,18.6,6.8,26.9l0,0c-1.3,7.6-4.8,14.8-10.2,20.9C181,192,173.4,195.1,163.7,195.1z M163.7,131.2
					c-10.6,0-24,4.4-29.8,14.2c-2.7,4.6-3,10.5-3,16.6c0,17.4,15.3,32.7,32.8,32.7c9.7,0,17.2-3.1,22.8-9.4
					c5.4-6.1,8.9-13.3,10.2-20.8l0.1,0l-0.1,0c1.4-8.2-0.8-20.8-6.8-26.7C185.4,133.5,176.4,131.2,163.7,131.2z"/>
			</g>
		</g>
	</g>
	<g>
		<g>
			<g>
				<path class="st12" d="M155.5,146c0.6,0,0.6-1,0-1C154.8,145,154.8,146,155.5,146L155.5,146z"/>
			</g>
		</g>
	</g>
	<g>
		<g>
			<g>
				<path class="st12" d="M71.4,147.4c0.6,0,0.6-1,0-1C70.7,146.4,70.7,147.4,71.4,147.4L71.4,147.4z"/>
			</g>
		</g>
	</g>
	<g>
		<g>
			<g>
				<path d="M101.9,204.5c-0.4-1.3-0.3-2.5,0.4-3.8c-0.5-0.1-0.9-0.2-1.4-0.4c-0.1,0.2-0.1,0.3-0.2,0.5c0.2,0.1,0.4,0.2,0.6,0.4
					c0.2,0.4,0.5,0.2,0.7-0.5c0.4-0.2,0.8-0.3,1.2-0.3c0.6,0,1.2,0.4,1.7,0.8c1,0.8,1.7,1.9,2.1,3.1c0.5-0.2,0.9-0.4,1.4-0.6
					c-0.4-0.5-0.3-1.1-0.6-1.6c-0.2-0.6-0.6-1-1.1-1.3c-0.9-0.7-1.9-1.3-3.1-1.3c-2.6,0-3.7,2.4-3.3,4.7c0.2,0.8,1.5,0.6,1.5-0.2
					c0-1.6,1.7-2.5,3-1.9c1,0.4,1.6,1.4,2,2.3c0.2,0.5,1,0.4,1.3,0c0.9-1.6-1.9-3.1-3.1-3.3c-2-0.4-3.8,0.9-4.5,2.8
					c-0.3,0.9,1.1,1.3,1.4,0.4c0.4-1.1,1.4-1.8,2.5-1.8c0.5,0,1.1,0.3,1.5,0.6c0.2,0.2,0.7,0.8,0.9,0.6c0.4,0,0.9,0,1.3,0
					c-0.8-1.7-2.3-3.4-4.4-3.3c-1.8,0.1-3.4,1.8-3.4,3.6c0.5-0.1,1-0.1,1.5-0.2c-0.5-2.4,1.7-3.5,3.6-2.1c0.6,0.4,1,0.9,1.2,1.6
					c0.1,0.5,0.2,0.9,0.5,1.3c0.5,0.7,1.6,0.3,1.4-0.6c-0.8-2.8-4.4-6.7-7.5-4.2c-0.6,0.5-1.7,1.9-0.7,2.5c1.1,0.7,2.1-0.9,2-1.8
					c-0.1-0.7-1-1.1-1.4-0.4c-0.8,1.6-1,3.2-0.5,4.9C100.8,205.8,102.2,205.4,101.9,204.5L101.9,204.5z"/>
			</g>
		</g>
	</g>
	<g>
		<g>
			<g>
				<path d="M100.8,202.6c1,0,1-1.5,0-1.5C99.8,201.1,99.8,202.6,100.8,202.6L100.8,202.6z"/>
			</g>
		</g>
	</g>
	<g>
		<g>
			<g>
				<path d="M122.2,204.2c0.6-0.7,1.4-1.1,2.2-1.6c0.9-0.7,1.6-1.5,2.6-1.9c0.4-0.1,0.5-0.5,0.3-0.8c0-0.1-0.1-0.2-0.1-0.3
					c-0.1,0.3-0.1,0.5-0.2,0.8c0,0,0.2,1.5,0.3,1.7c0.2,0.5,0.9,0.5,1.1,0c0.6-2.3-3.9-1-4.8-0.5c-0.6,0.4-0.1,1.3,0.6,1
					c0.5-0.3,1.1-0.5,1.7-0.6c0.2,0,1.4,0,1.5-0.2c0.4,0,0.7,0,1.1,0c-0.2-0.7,0.1-1.6-0.5-2.2c-0.4-0.4-0.9-0.4-1.4-0.2
					c-0.3,0.1-0.3,0.5-0.2,0.8c0,0.1,0.1,0.2,0.1,0.3c0.1-0.3,0.2-0.5,0.3-0.8c-1,0.3-1.8,1-2.6,1.7c-0.9,0.7-2,1.2-2.7,2.1
					C121,204,121.8,204.8,122.2,204.2L122.2,204.2z"/>
			</g>
		</g>
	</g>
	<g>
		<g>
			<g>
				<path d="M126,201.1c1,0,1-1.5,0-1.5C125.1,199.6,125.1,201.1,126,201.1L126,201.1z"/>
			</g>
		</g>
	</g>
	<g>
		<g>
			<g>
				<path d="M123.9,201.4C123.9,201.4,123.9,201.5,123.9,201.4c0,0,0.1,0,0.2-0.1c0,0,0,0,0,0c0.1,0,0.2,0,0.3,0
					c0.1,0.1,0.1,0.2,0.2,0.2c0,0.1,0,0.2-0.1,0.2c0,0,0.2-0.1,0.3-0.1c0.1-0.1,0.3-0.2,0.4-0.3c0.3-0.2,0.5-0.5,0.7-0.8
					c0.3-0.5-0.5-1-0.9-0.5c-0.1,0.2-0.3,0.4-0.6,0.6c-0.2,0.1-0.5,0.2-0.7,0.4c-0.5,0.6,0.4,1.6,0.9,0.9c0.2-0.2,0.2-0.5,0-0.7
					C124.4,201.2,124.1,201.2,123.9,201.4L123.9,201.4z"/>
			</g>
		</g>
	</g>
	<g>
		<g>
			<g>
				<path d="M121.2,204.4c0.6,0,0.6-1,0-1C120.6,203.4,120.6,204.4,121.2,204.4L121.2,204.4z"/>
			</g>
		</g>
	</g>
	<g>
		<g>
			<g>
				<path d="M121.2,204.6c0.5,0.1,0.9-0.1,1.1-0.6c0.1-0.2-0.1-0.5-0.3-0.6c-0.3-0.1-0.5,0.1-0.6,0.3c0-0.1,0-0.1,0.1-0.1
					c-0.3,0-0.5,0.1-0.6,0.3C120.8,204.3,120.9,204.6,121.2,204.6L121.2,204.6z"/>
			</g>
		</g>
	</g>
	<g>
		<g>
			<g>
				<path d="M127.8,202.4c0,0.1,0,0.1,0,0.2c0.3-0.2,0.5-0.3,0.8-0.5c-0.6-0.6-1.3-0.9-2.2-1c-0.6-0.1-0.6,0.9,0,1
					c0.6,0.1,1.1,0.3,1.5,0.7c0.4,0.4,0.9,0,0.8-0.5c0-0.1,0-0.1,0-0.2c0-0.3-0.4-0.4-0.6-0.3C127.8,201.8,127.7,202.1,127.8,202.4
					L127.8,202.4z"/>
			</g>
		</g>
	</g>
</g>
</svg>
