<?xml version="1.0" encoding="utf-8"?>
<!-- Generator: Adobe Illustrator 21.0.2, SVG Export Plug-In . SVG Version: 6.00 Build 0)  -->
<svg version="1.1" id="Layer_1" xmlns="http://www.w3.org/2000/svg" xmlns:xlink="http://www.w3.org/1999/xlink" x="0px" y="0px"
	 viewBox="0 0 118.3 118.3" style="enable-background:new 0 0 118.3 118.3;" xml:space="preserve">
<style type="text/css">
	.st0{fill:#D1A6FF;}
	.st1{fill:#FFFFFF;}
</style>
<g>
	<g>
		<g>
			<g>
				<polygon class="st0" points="57.8,63.3 19.4,45.9 58.8,28.6 96.7,45.5 				"/>
			</g>
		</g>
		<g>
			<g>
				<rect x="93.5" y="44.9" class="st0" width="2.4" height="25.4"/>
			</g>
			<g>
				<circle class="st0" cx="94.7" cy="71.3" r="3.8"/>
			</g>
			<g>
				<g>
					<path class="st0" d="M93.1,72.5c0,0-3.1,6.2-1.9,16h4.6V71.6C95.7,71.6,93.1,73,93.1,72.5z"/>
				</g>
				<g>
					<path class="st0" d="M96.4,72.5c0,0,3.5,6.2,2.2,16h-5.2V71.6C93.4,71.6,96.4,73,96.4,72.5z"/>
				</g>
			</g>
		</g>
		<g>
			<g>
				<path class="st1" d="M79.5,56.3c0,0.2-18.8,8.9-22.4,10.6c-3.6-1.7-22.4-10.4-22.4-10.6V82c6,6.4,18,7.5,21.8,7.6v0
					c0,0,0.2,0,0.6,0c0.4,0,0.6,0,0.6,0v0c3.8-0.2,15.7-1.2,21.8-7.6V56.3z"/>
			</g>
		</g>
	</g>
	<g>
		<path class="st1" d="M59.1,115.5c-31.1,0-56.3-25.3-56.3-56.3S28.1,2.8,59.1,2.8s56.3,25.3,56.3,56.3S90.2,115.5,59.1,115.5z
			 M59.1,3.8C28.6,3.8,3.8,28.6,3.8,59.1c0,30.5,24.8,55.3,55.3,55.3c30.5,0,55.3-24.8,55.3-55.3C114.5,28.6,89.7,3.8,59.1,3.8z"/>
	</g>
</g>
</svg>
