<?xml version="1.0" encoding="utf-8"?>
<!-- Generator: Adobe Illustrator 21.0.2, SVG Export Plug-In . SVG Version: 6.00 Build 0)  -->
<svg version="1.1" id="Layer_1" xmlns="http://www.w3.org/2000/svg" xmlns:xlink="http://www.w3.org/1999/xlink" x="0px" y="0px"
	 viewBox="0 0 55 47.2" style="enable-background:new 0 0 55 47.2;" xml:space="preserve">
<style type="text/css">
	.st0{fill:#FFFFFF;}
</style>
<g>
	<g>
		<g>
			<path class="st0" d="M38.6,0c-6.1,0-11.1,5-11.1,11.1s5,11.1,11.1,11.1s11.1-5,11.1-11.1C49.8,5,44.8,0,38.6,0z M38.6,2
				C39.3,2,40,2.5,40,3.3v0.8c1.8,0.5,3.3,1.9,3.3,3.8c0,0.5-0.2,0.9-0.6,1.1s-0.9,0.2-1.3,0c-0.4-0.2-0.7-0.7-0.6-1.1
				c0-0.5-0.7-1.3-2-1.3c-1.6,0-2,1.1-2,1.3c0,0.7,0.1,0.9,0.5,1.2c0.3,0.3,1,0.5,1.9,0.8c1,0.3,2,0.6,2.8,1.3s1.4,1.9,1.4,3.2
				c0,1.6-1.2,3.3-3.3,3.8V19c0,0.7-0.7,1.3-1.3,1.3s-1.3-0.7-1.3-1.3v-0.8c-1.8-0.5-3.3-1.9-3.3-3.8c0-0.5,0.2-0.9,0.6-1.1
				s0.9-0.2,1.3,0c0.4,0.2,0.7,0.7,0.6,1.1c0,0.5,0.7,1.3,2,1.3c1.6,0,2-1.1,2-1.3c0-0.7-0.1-0.9-0.5-1.2c-0.3-0.3-1-0.6-1.9-0.8
				c-1-0.3-2-0.6-2.8-1.3s-1.4-1.9-1.4-3.2c0-1.6,1.2-3.3,3.3-3.8V3.3C37.3,2.6,38,2,38.6,2z M21,21c-0.7,0-1.7,0.3-2.6,0.7L10.5,25
				v15.6h2.6c5,0.1,13.8,6.5,20.3,6.5c1.3,0,2.1-0.5,3.3-1.3L53,35.2c1.1-0.7,2-2,2-3.1c0-2.2-1.8-3.9-3.9-3.9
				c-0.9,0-1.9,0.4-2.6,0.7l-16.6,6.6l-10.1-4.8c-0.5-0.2-0.9-0.8-0.8-1.4s0.6-1,1.1-1.1c0.3,0,0.5,0,0.8,0.1l8.6,4
				c1.4-0.9,0.5-4.1-0.6-4.8c0,0-4.2-3.3-6.5-5.2C23.6,21.7,22.5,21,21,21z M0,22.3v22.3h7.9V22.3H0z"/>
		</g>
	</g>
</g>
</svg>
